<svg width="135" height="40" viewBox="0 0 135 40" fill="none" xmlns="http://www.w3.org/2000/svg">
<path d="M130.197 40H4.729C2.122 40 0 37.872 0 35.267V4.726C0 2.12 2.122 0 4.729 0H130.197C132.803 0 135 2.12 135 4.726V35.267C135 37.872 132.803 40 130.197 40Z" fill="#A6A6A6"/>
<path d="M134.032 35.2681C134.032 37.3841 132.318 39.0981 130.198 39.0981H4.72914C2.61014 39.0981 0.890137 37.3841 0.890137 35.2681V4.72514C0.890137 2.61014 2.61014 0.890137 4.72914 0.890137H130.197C132.318 0.890137 134.031 2.61014 134.031 4.72514L134.032 35.2681Z" fill="black"/>
<path d="M30.1281 19.7837C30.0991 16.5607 32.7671 14.9927 32.8891 14.9197C31.3781 12.7167 29.0361 12.4157 28.2131 12.3917C26.2461 12.1847 24.3381 13.5687 23.3361 13.5687C22.3141 13.5687 20.7711 12.4117 19.1081 12.4457C16.9681 12.4787 14.9661 13.7177 13.8681 15.6417C11.6021 19.5647 13.2921 25.3297 15.4631 28.5007C16.5491 30.0537 17.8181 31.7877 19.4791 31.7267C21.1041 31.6597 21.7111 30.6907 23.6721 30.6907C25.6151 30.6907 26.1851 31.7267 27.8791 31.6877C29.6231 31.6597 30.7211 30.1277 31.7691 28.5607C33.0241 26.7807 33.5281 25.0277 33.5481 24.9377C33.5071 24.9237 30.1611 23.6467 30.1281 19.7837Z" fill="white"/>
<path d="M26.928 10.3058C27.802 9.2128 28.4 7.7258 28.234 6.2168C26.969 6.2728 25.387 7.0918 24.476 8.1608C23.67 9.1028 22.95 10.6468 23.136 12.0988C24.557 12.2048 26.016 11.3818 26.928 10.3058Z" fill="white"/>
<path d="M53.6452 31.5038H51.3742L50.1302 27.5948H45.8062L44.6212 31.5038H42.4102L46.6942 18.1958H49.3402L53.6452 31.5038ZM49.7552 25.9548L48.6302 22.4798C48.5112 22.1248 48.2882 21.2888 47.9592 19.9728H47.9192C47.7882 20.5388 47.5772 21.3748 47.2872 22.4798L46.1822 25.9548H49.7552Z" fill="white"/>
<path d="M64.6624 26.5879C64.6624 28.2199 64.2214 29.5099 63.3394 30.4569C62.5494 31.2999 61.5684 31.7209 60.3974 31.7209C59.1334 31.7209 58.2254 31.2669 57.6724 30.3589H57.6324V35.4139H55.5004V25.0669C55.5004 24.0409 55.4734 22.9879 55.4214 21.9079H57.2964L57.4154 23.4289H57.4554C58.1664 22.2829 59.2454 21.7109 60.6934 21.7109C61.8254 21.7109 62.7704 22.1579 63.5264 23.0529C64.2844 23.9489 64.6624 25.1269 64.6624 26.5879ZM62.4904 26.6659C62.4904 25.7319 62.2804 24.9619 61.8584 24.3559C61.3974 23.7239 60.7784 23.4079 60.0024 23.4079C59.4764 23.4079 58.9984 23.5839 58.5714 23.9309C58.1434 24.2809 57.8634 24.7379 57.7324 25.3039C57.6664 25.5679 57.6334 25.7839 57.6334 25.9539V27.5539C57.6334 28.2519 57.8474 28.8409 58.2754 29.3219C58.7034 29.8029 59.2594 30.0429 59.9434 30.0429C60.7464 30.0429 61.3714 29.7329 61.8184 29.1149C62.2664 28.4959 62.4904 27.6799 62.4904 26.6659Z" fill="white"/>
<path d="M75.699 26.5879C75.699 28.2199 75.258 29.5099 74.375 30.4569C73.586 31.2999 72.605 31.7209 71.434 31.7209C70.17 31.7209 69.262 31.2669 68.71 30.3589H68.67V35.4139H66.538V25.0669C66.538 24.0409 66.511 22.9879 66.459 21.9079H68.334L68.453 23.4289H68.493C69.203 22.2829 70.282 21.7109 71.731 21.7109C72.862 21.7109 73.807 22.1579 74.565 23.0529C75.32 23.9489 75.699 25.1269 75.699 26.5879ZM73.527 26.6659C73.527 25.7319 73.316 24.9619 72.894 24.3559C72.433 23.7239 71.816 23.4079 71.039 23.4079C70.512 23.4079 70.035 23.5839 69.607 23.9309C69.179 24.2809 68.9 24.7379 68.769 25.3039C68.704 25.5679 68.67 25.7839 68.67 25.9539V27.5539C68.67 28.2519 68.884 28.8409 69.31 29.3219C69.738 29.8019 70.294 30.0429 70.98 30.0429C71.783 30.0429 72.408 29.7329 72.855 29.1149C73.303 28.4959 73.527 27.6799 73.527 26.6659Z" fill="white"/>
<path d="M88.0392 27.772C88.0392 28.904 87.6462 29.825 86.8572 30.536C85.9902 31.313 84.7832 31.701 83.2322 31.701C81.8002 31.701 80.6522 31.425 79.7832 30.872L80.2772 29.095C81.2132 29.661 82.2402 29.945 83.3592 29.945C84.1622 29.945 84.7872 29.763 85.2362 29.401C85.6832 29.039 85.9062 28.553 85.9062 27.947C85.9062 27.407 85.7222 26.952 85.3532 26.583C84.9862 26.214 84.3732 25.871 83.5172 25.554C81.1872 24.685 80.0232 23.412 80.0232 21.738C80.0232 20.644 80.4312 19.747 81.2482 19.049C82.0622 18.35 83.1482 18.001 84.5062 18.001C85.7172 18.001 86.7232 18.212 87.5262 18.633L86.9932 20.371C86.2432 19.963 85.3952 19.759 84.4462 19.759C83.6962 19.759 83.1102 19.944 82.6902 20.312C82.3352 20.641 82.1572 21.042 82.1572 21.517C82.1572 22.043 82.3602 22.478 82.7682 22.82C83.1232 23.136 83.7682 23.478 84.7042 23.847C85.8492 24.308 86.6902 24.847 87.2312 25.465C87.7702 26.081 88.0392 26.852 88.0392 27.772Z" fill="white"/>
<path d="M95.0881 23.5081H92.7381V28.1671C92.7381 29.3521 93.1521 29.9441 93.9821 29.9441C94.3631 29.9441 94.6791 29.9111 94.9291 29.8451L94.9881 31.4641C94.5681 31.6211 94.0151 31.7001 93.3301 31.7001C92.4881 31.7001 91.8301 31.4431 91.3551 30.9301C90.8821 30.4161 90.6441 29.5541 90.6441 28.3431V23.5061H89.2441V21.9061H90.6441V20.1491L92.7381 19.5171V21.9061H95.0881V23.5081Z" fill="white"/>
<path d="M105.691 26.6269C105.691 28.1019 105.269 29.3129 104.427 30.2599C103.544 31.2349 102.372 31.7209 100.911 31.7209C99.503 31.7209 98.382 31.2539 97.546 30.3199C96.71 29.3859 96.292 28.2069 96.292 26.7859C96.292 25.2989 96.722 24.0809 97.585 23.1339C98.446 22.1859 99.608 21.7119 101.069 21.7119C102.477 21.7119 103.61 22.1789 104.465 23.1139C105.283 24.0209 105.691 25.1919 105.691 26.6269ZM103.479 26.6959C103.479 25.8109 103.29 25.0519 102.907 24.4189C102.46 23.6529 101.821 23.2709 100.993 23.2709C100.136 23.2709 99.485 23.6539 99.038 24.4189C98.655 25.0529 98.466 25.8239 98.466 26.7359C98.466 27.6209 98.655 28.3799 99.038 29.0119C99.499 29.7779 100.143 30.1599 100.974 30.1599C101.788 30.1599 102.427 29.7699 102.888 28.9919C103.281 28.3469 103.479 27.5799 103.479 26.6959Z" fill="white"/>
<path d="M112.621 23.7829C112.41 23.7439 112.185 23.7239 111.949 23.7239C111.199 23.7239 110.619 24.0069 110.211 24.5739C109.856 25.0739 109.678 25.7059 109.678 26.4689V31.5039H107.547L107.567 24.9299C107.567 23.8239 107.54 22.8169 107.487 21.9089H109.344L109.422 23.7449H109.481C109.706 23.1139 110.061 22.6059 110.547 22.2249C111.022 21.8819 111.535 21.7109 112.088 21.7109C112.285 21.7109 112.463 21.7249 112.621 21.7499V23.7829Z" fill="white"/>
<path d="M122.156 26.2519C122.156 26.6339 122.131 26.9559 122.078 27.2189H115.682C115.707 28.1669 116.016 28.8919 116.61 29.3919C117.149 29.8389 117.846 30.0629 118.702 30.0629C119.649 30.0629 120.513 29.9119 121.29 29.6089L121.624 31.0889C120.716 31.4849 119.644 31.6819 118.407 31.6819C116.919 31.6819 115.751 31.2439 114.901 30.3689C114.053 29.4939 113.628 28.3189 113.628 26.8449C113.628 25.3979 114.023 24.1929 114.814 23.2319C115.642 22.2059 116.761 21.6929 118.169 21.6929C119.552 21.6929 120.599 22.2059 121.31 23.2319C121.873 24.0469 122.156 25.0549 122.156 26.2519ZM120.123 25.6989C120.137 25.0669 119.998 24.5209 119.709 24.0599C119.34 23.4669 118.773 23.1709 118.01 23.1709C117.313 23.1709 116.746 23.4599 116.313 24.0399C115.958 24.5009 115.747 25.0539 115.682 25.6979L120.123 25.6989Z" fill="white"/>
<path d="M49.0498 10.0092C49.0498 11.1862 48.6968 12.0722 47.9918 12.6672C47.3388 13.2162 46.4108 13.4912 45.2088 13.4912C44.6128 13.4912 44.1028 13.4652 43.6758 13.4132V6.98219C44.2328 6.89219 44.8328 6.84619 45.4808 6.84619C46.6258 6.84619 47.4888 7.09519 48.0708 7.59319C48.7228 8.15619 49.0498 8.96119 49.0498 10.0092ZM47.9448 10.0382C47.9448 9.27519 47.7428 8.69019 47.3388 8.28219C46.9348 7.87519 46.3448 7.67119 45.5678 7.67119C45.2378 7.67119 44.9568 7.69319 44.7238 7.73919V12.6282C44.8528 12.6482 45.0888 12.6572 45.4318 12.6572C46.2338 12.6572 46.8528 12.4342 47.2888 11.9882C47.7248 11.5422 47.9448 10.8922 47.9448 10.0382Z" fill="white"/>
<path d="M54.909 11.037C54.909 11.762 54.702 12.356 54.288 12.822C53.854 13.301 53.279 13.54 52.561 13.54C51.869 13.54 51.318 13.311 50.907 12.851C50.497 12.392 50.292 11.813 50.292 11.115C50.292 10.385 50.503 9.78605 50.927 9.32105C51.351 8.85605 51.921 8.62305 52.639 8.62305C53.331 8.62305 53.887 8.85205 54.308 9.31105C54.708 9.75705 54.909 10.333 54.909 11.037ZM53.822 11.071C53.822 10.636 53.728 10.263 53.541 9.95205C53.321 9.57605 53.008 9.38805 52.601 9.38805C52.18 9.38805 51.86 9.57605 51.64 9.95205C51.452 10.263 51.359 10.642 51.359 11.09C51.359 11.525 51.453 11.898 51.64 12.209C51.867 12.585 52.183 12.773 52.591 12.773C52.991 12.773 53.305 12.582 53.531 12.199C53.725 11.882 53.822 11.506 53.822 11.071Z" fill="white"/>
<path d="M62.7646 8.71924L61.2896 13.4332H60.3296L59.7186 11.3862C59.5636 10.8752 59.4376 10.3672 59.3396 9.86324H59.3206C59.2296 10.3812 59.1036 10.8882 58.9416 11.3862L58.2926 13.4332H57.3216L55.9346 8.71924H57.0116L57.5446 10.9602C57.6736 11.4902 57.7796 11.9952 57.8646 12.4732H57.8836C57.9616 12.0792 58.0906 11.5772 58.2726 10.9702L58.9416 8.72024H59.7956L60.4366 10.9222C60.5916 11.4592 60.7176 11.9762 60.8146 12.4742H60.8436C60.9146 11.9892 61.0216 11.4722 61.1636 10.9222L61.7356 8.72024H62.7646V8.71924Z" fill="white"/>
<path d="M68.1979 13.4331H67.1499V10.7331C67.1499 9.90112 66.8339 9.48512 66.1999 9.48512C65.8889 9.48512 65.6379 9.59912 65.4429 9.82812C65.2499 10.0571 65.1519 10.3271 65.1519 10.6361V13.4321H64.1039V10.0661C64.1039 9.65212 64.0909 9.20312 64.0659 8.71712H64.9869L65.0359 9.45412H65.0649C65.1869 9.22512 65.3689 9.03612 65.6079 8.88512C65.8919 8.70912 66.2099 8.62012 66.5579 8.62012C66.9979 8.62012 67.3639 8.76212 67.6549 9.04712C68.0169 9.39612 68.1979 9.91712 68.1979 10.6091V13.4331Z" fill="white"/>
<path d="M71.088 13.4332H70.041V6.55615H71.088V13.4332Z" fill="white"/>
<path d="M77.2576 11.037C77.2576 11.762 77.0506 12.356 76.6366 12.822C76.2026 13.301 75.6266 13.54 74.9096 13.54C74.2166 13.54 73.6656 13.311 73.2556 12.851C72.8456 12.392 72.6406 11.813 72.6406 11.115C72.6406 10.385 72.8516 9.78605 73.2756 9.32105C73.6996 8.85605 74.2696 8.62305 74.9866 8.62305C75.6796 8.62305 76.2346 8.85205 76.6566 9.31105C77.0566 9.75705 77.2576 10.333 77.2576 11.037ZM76.1696 11.071C76.1696 10.636 76.0756 10.263 75.8886 9.95205C75.6696 9.57605 75.3556 9.38805 74.9496 9.38805C74.5276 9.38805 74.2076 9.57605 73.9886 9.95205C73.8006 10.263 73.7076 10.642 73.7076 11.09C73.7076 11.525 73.8016 11.898 73.9886 12.209C74.2156 12.585 74.5316 12.773 74.9396 12.773C75.3396 12.773 75.6526 12.582 75.8786 12.199C76.0736 11.882 76.1696 11.506 76.1696 11.071Z" fill="white"/>
<path d="M82.33 13.433H81.389L81.311 12.89H81.282C80.96 13.323 80.501 13.54 79.905 13.54C79.46 13.54 79.1 13.397 78.829 13.113C78.583 12.855 78.46 12.534 78.46 12.153C78.46 11.577 78.7 11.138 79.183 10.834C79.665 10.53 80.343 10.381 81.216 10.388V10.3C81.216 9.67905 80.89 9.36905 80.237 9.36905C79.772 9.36905 79.362 9.48605 79.008 9.71805L78.795 9.03005C79.233 8.75905 79.774 8.62305 80.412 8.62305C81.644 8.62305 82.262 9.27305 82.262 10.573V12.309C82.262 12.78 82.285 13.155 82.33 13.433ZM81.242 11.813V11.086C80.086 11.066 79.508 11.383 79.508 12.036C79.508 12.282 79.574 12.466 79.709 12.589C79.844 12.712 80.016 12.773 80.221 12.773C80.451 12.773 80.666 12.7 80.862 12.555C81.059 12.409 81.18 12.224 81.225 11.997C81.236 11.946 81.242 11.884 81.242 11.813Z" fill="white"/>
<path d="M88.2847 13.4332H87.3547L87.3057 12.6762H87.2767C86.9797 13.2522 86.4737 13.5402 85.7627 13.5402C85.1947 13.5402 84.7217 13.3172 84.3467 12.8712C83.9717 12.4252 83.7847 11.8462 83.7847 11.1352C83.7847 10.3722 83.9877 9.75415 84.3957 9.28215C84.7907 8.84215 85.2747 8.62215 85.8507 8.62215C86.4837 8.62215 86.9267 8.83515 87.1787 9.26215H87.1987V6.55615H88.2477V12.1632C88.2477 12.6222 88.2597 13.0452 88.2847 13.4332ZM87.1987 11.4452V10.6592C87.1987 10.5232 87.1887 10.4132 87.1697 10.3292C87.1107 10.0772 86.9837 9.86515 86.7907 9.69415C86.5957 9.52315 86.3607 9.43715 86.0897 9.43715C85.6987 9.43715 85.3927 9.59215 85.1677 9.90315C84.9447 10.2142 84.8317 10.6112 84.8317 11.0962C84.8317 11.5622 84.9387 11.9402 85.1537 12.2312C85.3807 12.5412 85.6867 12.6962 86.0697 12.6962C86.4137 12.6962 86.6887 12.5672 86.8977 12.3082C87.0997 12.0692 87.1987 11.7812 87.1987 11.4452Z" fill="white"/>
<path d="M97.2479 11.037C97.2479 11.762 97.0409 12.356 96.6269 12.822C96.1929 13.301 95.6189 13.54 94.8999 13.54C94.2089 13.54 93.6579 13.311 93.2459 12.851C92.8359 12.392 92.6309 11.813 92.6309 11.115C92.6309 10.385 92.8419 9.78605 93.2659 9.32105C93.6899 8.85605 94.2599 8.62305 94.9789 8.62305C95.6699 8.62305 96.2269 8.85205 96.6469 9.31105C97.0469 9.75705 97.2479 10.333 97.2479 11.037ZM96.1619 11.071C96.1619 10.636 96.0679 10.263 95.8809 9.95205C95.6599 9.57605 95.3479 9.38805 94.9399 9.38805C94.5199 9.38805 94.1999 9.57605 93.9789 9.95205C93.7909 10.263 93.6979 10.642 93.6979 11.09C93.6979 11.525 93.7919 11.898 93.9789 12.209C94.2059 12.585 94.5219 12.773 94.9299 12.773C95.3299 12.773 95.6449 12.582 95.8709 12.199C96.0639 11.882 96.1619 11.506 96.1619 11.071Z" fill="white"/>
<path d="M102.883 13.4331H101.836V10.7331C101.836 9.90112 101.52 9.48512 100.885 9.48512C100.574 9.48512 100.323 9.59912 100.129 9.82812C99.935 10.0571 99.838 10.3271 99.838 10.6361V13.4321H98.789V10.0661C98.789 9.65212 98.777 9.20312 98.752 8.71712H99.672L99.721 9.45412H99.75C99.873 9.22512 100.055 9.03612 100.293 8.88512C100.578 8.70912 100.895 8.62012 101.244 8.62012C101.683 8.62012 102.049 8.76212 102.34 9.04712C102.703 9.39612 102.883 9.91712 102.883 10.6091V13.4331Z" fill="white"/>
<path d="M109.936 9.50392H108.782V11.7939C108.782 12.3759 108.987 12.6669 109.393 12.6669C109.581 12.6669 109.737 12.6509 109.86 12.6179L109.887 13.4129C109.68 13.4909 109.408 13.5299 109.073 13.5299C108.659 13.5299 108.337 13.4039 108.104 13.1519C107.87 12.8999 107.754 12.4759 107.754 11.8809V9.50392H107.065V8.71892H107.754V7.85492L108.781 7.54492V8.71792H109.935L109.936 9.50392Z" fill="white"/>
<path d="M115.484 13.4332H114.435V10.7532C114.435 9.90815 114.119 9.48515 113.486 9.48515C113 9.48515 112.668 9.73015 112.486 10.2202C112.455 10.3232 112.437 10.4492 112.437 10.5972V13.4322H111.39V6.55615H112.437V9.39715H112.457C112.787 8.88015 113.26 8.62215 113.873 8.62215C114.307 8.62215 114.666 8.76415 114.951 9.04915C115.306 9.40415 115.484 9.93215 115.484 10.6302V13.4332Z" fill="white"/>
<path d="M121.207 10.8533C121.207 11.0413 121.193 11.1993 121.168 11.3283H118.025C118.039 11.7943 118.189 12.1493 118.48 12.3953C118.746 12.6153 119.089 12.7253 119.509 12.7253C119.974 12.7253 120.398 12.6513 120.78 12.5023L120.944 13.2303C120.497 13.4243 119.971 13.5213 119.362 13.5213C118.632 13.5213 118.057 13.3063 117.641 12.8763C117.223 12.4463 117.016 11.8693 117.016 11.1453C117.016 10.4343 117.209 9.84226 117.598 9.37026C118.004 8.86626 118.553 8.61426 119.246 8.61426C119.924 8.61426 120.439 8.86626 120.787 9.37026C121.068 9.77026 121.207 10.2653 121.207 10.8533ZM120.207 10.5823C120.215 10.2713 120.146 10.0033 120.004 9.77726C119.822 9.48626 119.545 9.34026 119.17 9.34026C118.828 9.34026 118.549 9.48226 118.336 9.76726C118.162 9.99426 118.059 10.2653 118.025 10.5823H120.207Z" fill="white"/>
</svg>
