<svg width="135" height="40" viewBox="0 0 135 40" fill="none" xmlns="http://www.w3.org/2000/svg">
<path d="M129.998 40.0002H5.00235C2.25238 40.0002 0.00244141 37.7503 0.00244141 35.0003V5.00088C0.00244141 2.25092 2.25238 0.000976562 5.00235 0.000976562H129.998C132.748 0.000976562 134.998 2.25092 134.998 5.00088V35.0003C134.998 37.7503 132.748 40.0002 129.998 40.0002Z" fill="#100F0D"/>
<path d="M129.998 0.000976562H5.00235C2.25238 0.000976562 0.00244141 2.25092 0.00244141 5.00088V35.0003C0.00244141 37.7503 2.25238 40.0002 5.00235 40.0002H129.998C132.748 40.0002 134.998 37.7503 134.998 35.0003V5.00088C134.998 2.25092 132.748 0.000976562 129.998 0.000976562ZM129.998 0.800557C132.314 0.800557 134.198 2.68494 134.198 5.00088V35.0003C134.198 37.3163 132.314 39.2006 129.998 39.2006H5.00235C2.68641 39.2006 0.802846 37.3163 0.802846 35.0003V5.00088C0.802846 2.68494 2.68641 0.800557 5.00235 0.800557H129.998Z" fill="#A2A2A1"/>
<path d="M106.936 30.0002H108.802V17.4983H106.936V30.0002ZM123.743 22.0021L121.604 27.422H121.54L119.32 22.0021H117.31L120.64 29.5772L118.741 33.7911H120.687L125.818 22.0025L123.743 22.0021ZM113.16 28.5801C112.55 28.5801 111.697 28.2742 111.697 27.5184C111.697 26.5535 112.759 26.1836 113.675 26.1836C114.495 26.1836 114.882 26.3602 115.38 26.6016C115.235 27.7598 114.238 28.5801 113.16 28.5801ZM113.386 21.7287C112.035 21.7287 110.636 22.324 110.057 23.6428L111.713 24.3341C112.067 23.6428 112.726 23.4178 113.418 23.4178C114.383 23.4178 115.364 23.9963 115.38 25.0259V25.1544C115.042 24.9614 114.318 24.6721 113.434 24.6721C111.648 24.6721 109.831 25.6528 109.831 27.4864C109.831 29.159 111.295 30.2367 112.935 30.2367C114.189 30.2367 114.882 29.6738 115.315 29.0141H115.38V29.9797H117.182V25.1864C117.182 22.9669 115.524 21.7287 113.386 21.7287ZM101.854 23.524H99.2001V19.239H101.854C103.249 19.239 104.041 20.3937 104.041 21.3814C104.041 22.3502 103.249 23.524 101.854 23.524ZM101.806 17.4986H97.3349V30.0005H99.2001V25.2643H101.806C103.874 25.2643 105.907 23.7674 105.907 21.3819C105.907 18.9968 103.874 17.4986 101.806 17.4986ZM77.4256 28.5822C76.1365 28.5822 75.0576 27.5025 75.0576 26.0209C75.0576 24.5221 76.1365 23.4272 77.4256 23.4272C78.6983 23.4272 79.6971 24.5222 79.6971 26.0209C79.6971 27.5025 78.6983 28.5822 77.4256 28.5822ZM79.5682 22.7019H79.5037C79.085 22.2027 78.2791 21.7515 77.2647 21.7515C75.1377 21.7515 73.1885 23.6206 73.1885 26.0209C73.1885 28.4049 75.1377 30.2576 77.2647 30.2576C78.2791 30.2576 79.0849 29.8064 79.5037 29.2912H79.5682V29.9029C79.5682 31.5306 78.6983 32.4001 77.2967 32.4001C76.1533 32.4001 75.4444 31.5786 75.1542 30.886L73.5273 31.5625C73.9941 32.6898 75.2343 34.0758 77.2968 34.0758C79.4881 34.0758 81.3408 32.7867 81.3408 29.645V22.0092H79.5682L79.5682 22.7019ZM82.6298 29.9998H84.4978V17.498H82.6298V29.9998ZM87.2529 25.8757C87.2048 24.2323 88.5262 23.3948 89.4762 23.3948C90.2176 23.3948 90.8453 23.7655 91.0555 24.2968L87.2529 25.8757ZM93.0523 24.4577C92.6981 23.5078 91.6188 21.7515 89.4118 21.7515C87.2204 21.7515 85.4001 23.4753 85.4001 26.0046C85.4001 28.3889 87.2048 30.2576 89.6208 30.2576C91.57 30.2576 92.6981 29.0659 93.1656 28.3729L91.7156 27.4061C91.2321 28.1151 90.5719 28.5823 89.6208 28.5823C88.6708 28.5823 87.9939 28.1472 87.5595 27.2933L93.2457 24.9414L93.0523 24.4577ZM47.7453 23.0566V24.8608H52.0627C51.9338 25.8757 51.5955 26.6167 51.0799 27.1323C50.4514 27.7604 49.4687 28.4534 47.7452 28.4534C45.087 28.4534 43.009 26.3108 43.009 23.6527C43.009 20.9945 45.087 18.8517 47.7452 18.8517C49.1791 18.8517 50.226 19.4156 50.9994 20.1406L52.2724 18.8676C51.1927 17.8367 49.7591 17.0474 47.7452 17.0474C44.1038 17.0474 41.043 20.0117 41.043 23.6527C41.043 27.2933 44.1038 30.2576 47.7452 30.2576C49.7104 30.2576 51.1928 29.6132 52.3525 28.405C53.5447 27.2128 53.9154 25.5374 53.9154 24.184C53.9154 23.7656 53.8829 23.3789 53.8185 23.0566H47.7453ZM58.8244 28.5822C57.5353 28.5822 56.4236 27.5189 56.4236 26.0046C56.4236 24.4741 57.5353 23.4273 58.8244 23.4273C60.113 23.4273 61.2246 24.4741 61.2246 26.0046C61.2246 27.5189 60.113 28.5822 58.8244 28.5822ZM58.8244 21.7515C56.4716 21.7515 54.5548 23.5397 54.5548 26.0046C54.5548 28.4534 56.4716 30.2576 58.8244 30.2576C61.1762 30.2576 63.0934 28.4534 63.0934 26.0046C63.0934 23.5397 61.1762 21.7515 58.8244 21.7515ZM68.1372 28.5822C66.849 28.5822 65.7369 27.5189 65.7369 26.0046C65.7369 24.4741 66.8491 23.4273 68.1372 23.4273C69.4263 23.4273 70.5376 24.4741 70.5376 26.0046C70.5376 27.5189 69.4263 28.5822 68.1372 28.5822ZM68.1372 21.7515C65.7853 21.7515 63.8685 23.5397 63.8685 26.0046C63.8685 28.4534 65.7853 30.2576 68.1372 30.2576C70.49 30.2576 72.4067 28.4534 72.4067 26.0046C72.4067 23.5397 70.49 21.7515 68.1372 21.7515Z" fill="white"/>
<path d="M20.7169 19.4245L10.0713 30.724C10.0717 30.7263 10.0725 30.7283 10.0729 30.7307C10.3994 31.9577 11.5201 32.8612 12.8501 32.8612C13.3818 32.8612 13.881 32.7174 14.3091 32.4651L14.3431 32.4451L26.3267 25.5301L20.7169 19.4245Z" fill="#EB3131"/>
<path d="M31.4873 17.5004L31.4771 17.4934L26.3034 14.4941L20.4746 19.6809L26.3237 25.5292L31.4701 22.5598C32.3723 22.0727 32.9848 21.1215 32.9848 20.0246C32.9848 18.9356 32.3806 17.9891 31.4873 17.5004Z" fill="#F6B60B"/>
<path d="M10.0698 9.27734C10.0058 9.51334 9.97217 9.76053 9.97217 10.0172V29.9846C9.97217 30.2408 10.0054 30.4889 10.0702 30.724L21.0833 19.7132L10.0698 9.27734Z" fill="#5778C5"/>
<path d="M20.7954 20.0011L26.3059 14.4922L14.3358 7.55211C13.9007 7.29151 13.3929 7.14111 12.8496 7.14111C11.5195 7.14111 10.3973 8.04622 10.0707 9.27465C10.0703 9.27585 10.0703 9.27668 10.0703 9.27773L20.7954 20.0011Z" fill="#3BAD49"/>
<path d="M47.3952 9.78138H44.4781V10.5033H46.6641C46.6047 11.0924 46.3703 11.5549 45.975 11.8908C45.5797 12.2268 45.075 12.3955 44.4781 12.3955C43.8234 12.3955 43.2687 12.1674 42.8142 11.7143C42.3688 11.2518 42.1423 10.6799 42.1423 9.99085C42.1423 9.30187 42.3688 8.72994 42.8142 8.26749C43.2687 7.8144 43.8234 7.58781 44.4781 7.58781C44.8141 7.58781 45.1344 7.64561 45.4281 7.7722C45.7219 7.8987 45.9578 8.07529 46.1422 8.30189L46.6968 7.7472C46.4452 7.46121 46.1266 7.24251 45.7311 7.08312C45.3358 6.92372 44.9234 6.84722 44.478 6.84722C43.6047 6.84722 42.8641 7.15031 42.2594 7.75503C41.6547 8.36122 41.3516 9.10811 41.3516 9.99087C41.3516 10.8736 41.6547 11.6221 42.2594 12.2269C42.8641 12.8314 43.6047 13.1347 44.478 13.1347C45.3952 13.1347 46.1265 12.8409 46.689 12.244C47.1843 11.7472 47.4374 11.0753 47.4374 10.2347C47.4374 10.0925 47.4202 9.94078 47.3952 9.78138ZM48.5253 6.98146V13.0002H52.0393V12.2611H49.2988V10.3518H51.7706V9.62992H49.2988V7.72213H52.0393V6.98144L48.5253 6.98146ZM56.9667 7.72215V6.98146H52.8308V7.72215H54.512V13.0002H55.2854V7.72215H56.9667ZM60.7111 6.98146H59.9376V13.0002H60.7111V6.98146ZM65.816 7.72215V6.98146H61.6802V7.72215H63.3613V13.0002H64.1347V7.72215H65.816ZM73.6206 7.76435C73.0237 7.15027 72.2925 6.84717 71.419 6.84717C70.5441 6.84717 69.8129 7.15026 69.216 7.75497C68.6191 8.35187 68.3254 9.10026 68.3254 9.99081C68.3254 10.8814 68.6191 11.6299 69.216 12.2268C69.8128 12.8314 70.5441 13.1346 71.419 13.1346C72.2846 13.1346 73.0236 12.8314 73.6206 12.2268C74.2175 11.6299 74.5111 10.8814 74.5111 9.99081C74.5111 9.10806 74.2174 8.36113 73.6206 7.76435ZM69.7707 8.26744C70.216 7.81434 70.7628 7.58775 71.419 7.58775C72.0737 7.58775 72.6206 7.81435 73.0581 8.26744C73.5034 8.71273 73.7221 9.29389 73.7221 9.9908C73.7221 10.6893 73.5034 11.2689 73.0581 11.7142C72.6206 12.1673 72.0737 12.3954 71.419 12.3954C70.7628 12.3954 70.2159 12.1673 69.7707 11.7142C69.3347 11.2595 69.116 10.6893 69.116 9.9908C69.116 9.29391 69.3347 8.72209 69.7707 8.26744ZM76.3486 9.25182L76.3159 8.09081H76.3486L79.408 13.0001H80.2157V6.9814H79.4423V10.5032L79.4751 11.6642H79.4423L76.5174 6.9814H75.5752V13.0001H76.3486V9.25182Z" fill="white" stroke="white" stroke-width="0.26666" stroke-miterlimit="10"/>
</svg>
