<svg width="95" height="32" viewBox="0 0 95 32" fill="none" xmlns="http://www.w3.org/2000/svg">
<path d="M12.0743 24.0457C4.31445 24.4749 7.58084 14.1034 11.6766 7.9635C8.19193 10.0732 4.91826 12.9467 3.75672 14.843C2.95735 16.0811 2.543 17.5283 2.56607 19.0018C0.179933 17.8694 -0.705169 15.1801 0.609147 12.8861C2.16838 10.1653 9.87241 5.94595 15.7723 3.67136C15.9613 3.6032 16.1561 3.55207 16.3543 3.51858C16.6464 3.52046 16.9321 3.60449 17.1788 3.76108C18.8617 1.61986 21.7352 0 23.4472 0C31.03 0.0145496 22.1014 23.5267 12.0743 24.0457ZM22.47 2.33764C21.369 1.29977 18.738 3.43856 18.1584 4.29456C18.6193 4.62159 19.0401 5.00168 19.4121 5.42701C16.0487 5.48763 7.77242 22.8526 11.5844 22.9157C16.6283 23.0127 24.9458 4.63163 22.47 2.33764Z" fill="#26421D"/>
<path d="M43.1043 7.23114C42.3089 6.28299 40.7206 5.48761 39.0692 5.48761C33.4749 5.57975 29.8059 13.7736 27.2064 17.8087C27.0968 18.015 27.0044 18.2299 26.9299 18.4513C26.6404 19.2079 26.4054 19.9843 26.2267 20.7744C26.119 21.3378 26.1719 21.9202 26.3795 22.4549C25.9905 22.4709 25.6023 22.407 25.2389 22.2672C24.8756 22.1273 24.5447 21.9145 24.2668 21.6418C23.9889 21.3691 23.7699 21.0424 23.6231 20.6817C23.4764 20.3211 23.4052 19.9342 23.4138 19.545C23.4453 19.1473 23.7509 18.1385 24.2407 16.732C24.7596 15.2334 25.3416 13.6742 26.0448 11.9622L27.6041 7.86405C29.4082 9.45481 30.1406 9.6682 30.1406 10.289C30.1406 10.8103 29.2846 12.4908 29.0421 13.2256C30.9675 9.89372 34.8183 2.55586 39.5275 2.34004C42.7066 2.18484 44.1737 4.23391 43.1043 7.23114Z" fill="#26421D"/>
<path d="M66.2185 30.741C59.7051 32.5451 48.4243 27.0114 38.3948 25.8499C36.8064 28.3573 33.3024 30.8647 30.2009 30.7119C25.8894 30.4985 28.3361 24.4434 35.9189 24.1379C36.6221 22.2731 37.5703 19.95 38.5184 17.6245C36.8986 20.3162 35.0629 22.8527 33.9935 22.8527C26.9903 22.8527 34.6046 7.41309 38.3948 7.41309C39.8012 7.41309 40.9628 8.51401 41.4211 9.73618C40.7809 9.52278 40.2305 9.67555 39.6485 10.0126C36.8671 11.6325 32.7083 21.936 34.1754 21.936C35.1454 21.936 38.2105 17.074 40.1383 13.6209C41.0258 11.3585 41.8503 9.27786 42.3692 7.8714C45.2792 10.2963 45.6114 9.21724 43.9285 13.1626C43.0434 15.362 41.5739 18.6648 40.5045 21.2037C40.1056 22.2969 39.6482 23.3678 39.1344 24.4119C48.4898 25.4837 63.8372 29.7637 69.8292 23.5874C71.2939 26.7059 69.9481 29.7031 66.2185 30.741ZM35.4 25.4837C31.8523 25.331 27.6644 28.9999 30.2931 29.5503C31.5176 29.8559 33.9935 28.7841 35.4 25.4837Z" fill="#26421D"/>
<path d="M58.0221 17.9203C56.5841 20.1536 54.506 22.8138 53.6184 22.8138C52.5806 22.8138 50.6236 22.0863 50.6843 19.8772C50.6843 19.237 50.9607 18.2282 51.3584 17.0643C49.644 19.9087 47.6579 22.8138 46.5255 22.8138C39.5562 22.8138 47.1075 7.40332 50.837 7.40332C52.275 7.40332 53.405 8.50424 53.8633 9.72641C53.1916 9.54454 52.7018 9.66579 52.0907 10.0029C49.3093 11.6227 45.2427 21.8851 46.7413 21.8851C47.7113 21.8851 50.6212 17.2098 52.549 13.8149C53.2523 11.9816 54.0792 9.93495 54.9036 7.85193C57.8378 10.3908 58.0561 9.10563 56.3416 13.1431C54.7509 16.8727 53.5287 20.0203 53.4972 21.0921C53.4972 21.5504 53.5893 21.8851 53.8342 21.8851C54.3847 21.8851 56.4023 19.2564 57.5929 17.4523C57.657 17.4236 57.7286 17.4158 57.7974 17.43C57.8662 17.4442 57.9288 17.4797 57.9762 17.5315C58.0237 17.5833 58.0537 17.6487 58.062 17.7185C58.0702 17.7883 58.0563 17.8589 58.0221 17.9203Z" fill="#26421D"/>
<path d="M71.842 17.9616C70.404 20.1634 68.2628 22.8236 67.3171 22.8236C66.2768 22.8236 64.3514 22.0961 64.4071 19.887C64.4071 19.2153 64.589 18.5726 65.0473 17.2195C65.7214 15.1389 67.5547 10.9802 67.6468 9.21724C67.7099 8.66678 67.5862 8.32971 67.3413 8.32971C66.2719 8.32971 62.603 14.3242 60.8303 17.6876C60.7716 17.9369 60.6905 18.1804 60.5879 18.415C60.2934 19.1699 60.0582 19.9466 59.8846 20.7381C59.7456 21.3004 59.7994 21.893 60.0374 22.421C59.6456 22.4421 59.2538 22.3808 58.8871 22.2413C58.5204 22.1018 58.187 21.887 57.9084 21.6109C57.6297 21.3347 57.4119 21.0033 57.2691 20.6379C57.1262 20.2725 57.0615 19.8812 57.079 19.4893C57.1081 19.0916 57.416 18.0828 57.9034 16.6763C58.791 14.0477 60.0131 11.0214 61.2984 7.8423C64.4508 10.5631 64.2641 9.18814 62.6733 13.1311C62.6127 13.2839 62.5812 13.4075 62.5205 13.5579C64.2325 10.5316 66.4004 7.41309 67.5959 7.41309C68.5125 7.41309 69.1552 7.68953 69.6135 8.14057C70.1348 8.72013 70.341 9.54703 70.341 10.5655C70.2803 13.1335 68.7211 16.252 67.8942 18.6672C67.3753 20.0131 67.2225 20.5926 67.2225 21.114C67.2225 21.5723 67.2831 21.8778 67.5571 21.8778C68.0785 21.8778 70.1882 19.2783 71.3788 17.513C71.6577 17.3505 71.9026 17.6245 71.842 17.9616Z" fill="#26421D"/>
<path d="M77.9332 17.9614C76.5268 20.1633 74.4777 22.8234 73.5683 22.8234C72.5305 22.8234 70.6026 22.0571 70.6584 19.9135C70.7215 18.0172 72.8409 12.9127 74.8172 7.92946L74.8487 7.86641C77.7829 10.4053 78.0011 9.18315 76.3037 13.1867C74.6838 16.8872 73.4907 20.0347 73.4592 21.1066C73.4301 21.5916 73.5514 21.8704 73.7648 21.8704C74.3467 21.8704 76.3352 19.3024 77.5258 17.5055C77.8023 17.3503 78.0472 17.6244 77.9332 17.9614ZM79.7374 5.10925C79.5846 6.39204 78.5443 7.43234 77.5064 7.43234C76.4686 7.43234 75.7314 6.39204 75.8841 5.10925C76.0369 3.82646 77.1087 2.75464 78.1466 2.75464C79.1845 2.75464 79.912 3.83616 79.7277 5.12138L79.7374 5.10925Z" fill="#26421D"/>
<path d="M94.86 14.2611C93.5457 18.4199 84.5273 23.1291 80.2764 22.8236C78.5038 22.6999 76.8524 21.5384 77.3422 18.2671C78.0697 13.7106 82.0515 7.41309 84.4352 7.41309C85.6476 7.41309 86.7898 8.48491 87.7379 9.73618C87.8234 9.83876 87.8952 9.95207 87.9513 10.0732C88.1802 10.3708 88.2992 10.7383 88.2884 11.1135C88.2254 12.0835 87.6143 13.4366 86.3315 14.9037C85.5046 14.1399 85.2596 13.7106 85.3227 13.3154C85.3833 12.7334 85.6889 12.5491 86.2927 10.9292C86.4163 10.5316 86.5352 10.1654 86.6297 9.79922H86.4212C84.2193 9.7677 80.7323 17.2292 80.0921 20.4374C79.8763 21.4777 80.274 21.8754 80.9481 21.8754C84.006 21.8754 93.6039 15.2093 91.7706 10.3182C93.8512 10.2866 95.5026 12.1005 94.86 14.2611Z" fill="#26421D"/>
</svg>
