<svg width="140" height="28" viewBox="0 0 140 28" fill="none" xmlns="http://www.w3.org/2000/svg">
<path fill-rule="evenodd" clip-rule="evenodd" d="M113.582 15.9896C115.321 15.9896 112.807 19.4162 109.398 19.9816C110.685 17.9513 112.573 15.9896 113.582 15.9896ZM4.09396 27.9829C15.6272 27.9829 20.1501 8.71653 24.0206 7.20881L26.4125 7.74851C26.2499 7.8476 26.113 7.98249 26.0124 8.14257C24.6555 10.2328 15.7925 24.265 15.0793 25.3872C15.0358 25.43 15.0358 25.4557 15.0793 25.4557H17.8539C17.9408 25.4557 18.08 25.2415 18.2626 24.9246C18.8628 23.9908 20.1762 21.9006 21.6983 19.4848C22.8203 18.1484 25.2905 16.3151 26.5342 16.3151C26.6386 16.3151 26.6995 16.3751 26.6995 16.5036C26.6995 16.8805 23.2204 21.9862 22.8203 22.8943C22.7162 23.1241 22.6572 23.3711 22.6463 23.6225C22.6358 23.8711 22.6763 24.1194 22.7655 24.3523C22.8546 24.5852 22.9905 24.798 23.1651 24.9779C23.3397 25.1579 23.5494 25.3013 23.7815 25.3996C24.0137 25.4979 24.2636 25.549 24.5164 25.5499C26.0385 25.5499 28.065 23.8366 29.9003 21.7978C29.8597 22.0816 29.8394 22.3678 29.8394 22.6544C29.8394 25.2758 31.3006 27.4175 34.9885 27.4175C40.8508 27.4175 45.7476 22.3803 45.7476 17.8057C45.7774 17.338 45.7094 16.8693 45.5479 16.4285C45.3864 15.9878 45.1349 15.5843 44.8088 15.243C44.4827 14.9018 44.0891 14.6301 43.6521 14.4446C43.2152 14.2592 42.7443 14.164 42.2685 14.1649C41.8075 14.1649 41.5118 14.2763 41.5118 14.4476C41.5118 14.8674 43.0426 14.6532 43.0426 17.8057C43.0426 21.2324 39.0068 26.5008 34.3448 26.5008C32.6662 26.5008 32.0312 25.6442 32.0312 24.3678C32.0777 23.1725 32.3926 22.0022 32.9532 20.9411C38.2327 20.6413 41.477 14.9445 37.3021 14.9445C34.858 14.9445 31.6746 17.0604 30.3438 19.9731C28.7609 21.8834 26.9343 23.5796 25.6645 23.5796C24.6381 23.5796 29.5958 17.8143 29.5958 16.298C29.6061 16.1071 29.5752 15.9163 29.5051 15.738C29.435 15.5598 29.3275 15.3982 29.1894 15.2638C29.0514 15.1295 28.886 15.0255 28.7042 14.9586C28.5224 14.8917 28.3283 14.8636 28.1346 14.8759C26.9343 14.8759 24.8903 15.7326 23.1769 16.9662C25.4818 13.3425 27.8302 9.5989 28.7696 8.19397C29.8955 8.39003 31.0358 8.49603 32.1791 8.51094H32.701C39.781 8.51094 39.9288 0.912345 39.9288 0.526847C39.9288 -0.175616 39.059 -0.175616 39.059 0.526847C39.059 1.79471 37.7022 5.16139 33.1967 5.16139C26.2385 5.16139 20.8198 3.0026 14.9923 3.0026C4.30271 3.0026 3.85043 13.4539 8.79946 13.4539C9.73882 13.4539 9.79101 12.5372 8.92993 12.5372C5.8944 12.5372 5.45083 5.35842 13.618 5.35842C16.5239 5.50977 19.4034 5.98101 22.2027 6.76335C14.7835 9.84733 11.6436 27.0063 3.93741 27.0063C1.11933 27.0063 0.919272 22.3974 3.11111 22.3974C3.98089 22.3974 4.26793 21.318 3.06763 21.318C-0.411478 21.318 -1.96839 27.9743 4.09396 27.9743V27.9829ZM50.688 27.9829C44.5995 27.9829 46.1477 21.3266 49.6529 21.3266C50.8619 21.3266 50.5749 22.406 49.7051 22.406C47.5133 22.406 47.7046 27.0148 50.5314 27.0148C54.8803 27.0148 57.8027 21.4551 60.8557 16.0667C60.5284 16.0034 60.2265 15.8488 59.9859 15.6212C59.5336 15.1843 59.3596 13.7708 59.9859 14.3791C60.4477 14.7176 61.0229 14.8708 61.595 14.8074C63.6998 11.2266 65.9438 7.95411 68.7793 6.77192C66.0417 6.00604 63.2271 5.53779 60.386 5.37555C52.2449 5.37555 52.671 12.5544 55.7066 12.5544C56.5763 12.5544 56.5155 13.471 55.5674 13.471C50.6271 13.471 51.0794 3.04543 61.7602 3.01973C67.5877 3.01973 73.0673 5.17852 79.9734 5.17852C84.4788 5.17852 85.827 1.81184 85.827 0.543978C85.827 -0.158485 86.6967 -0.158485 86.6967 0.543978C86.6967 0.929476 86.5489 8.52807 79.4689 8.52807H78.9557C76.1491 8.38376 73.3667 7.93852 70.658 7.20025C69.2142 7.76564 67.6921 10.7982 65.7351 14.3791C66.411 14.2344 67.1174 14.3412 67.7182 14.6789C68.5358 15.4756 68.4488 17.0861 67.666 16.3151C67.1963 15.8525 66.083 15.8954 64.8306 16.0067C61.6298 21.6864 57.3331 28 50.7401 28L50.688 27.9829ZM74.172 14.9959C70.084 14.9959 66.1091 19.9046 66.1091 22.8857C66.1091 24.5991 66.9789 25.5928 68.3618 25.5928C69.2316 25.5928 70.4754 24.7361 71.7366 23.6053C71.7236 23.852 71.7617 24.0988 71.8484 24.3306C71.9352 24.5624 72.0688 24.7744 72.2412 24.9538C72.4136 25.1333 72.6212 25.2763 72.8514 25.3744C73.0816 25.4724 73.3297 25.5234 73.5805 25.5242C75.5723 25.5242 78.3382 22.7658 80.4691 19.9902C80.4725 19.9704 80.4725 19.9501 80.4691 19.9302C81.4793 18.6228 82.3838 17.2394 83.1742 15.7926C83.6351 16.1352 84.0439 16.4265 84.0439 16.812C84.0439 18.2855 80.3996 22.2261 80.3996 23.5368C80.3707 23.7775 80.3918 24.0214 80.4614 24.2538C80.5311 24.4862 80.648 24.7022 80.8049 24.8889C80.9619 25.0755 81.1556 25.2288 81.3745 25.3395C81.5934 25.4502 81.8328 25.5159 82.0782 25.5328C83.1568 25.5328 84.4788 24.6761 85.8096 23.4768L84.6093 25.3701C84.6093 25.4129 84.6093 25.4386 84.6093 25.4386H87.4274C87.5317 25.4386 87.6448 25.2244 87.8362 24.9074C88.2015 24.3506 89.8192 21.7978 91.3153 19.382C92.4721 18.0713 94.8553 16.298 96.0817 16.298C96.2121 16.298 96.2469 16.358 96.2469 16.4865C96.2469 16.8634 90.7325 25.3701 90.7325 25.3701C90.7325 25.3701 90.689 25.4386 90.7325 25.4386H93.6376C93.7854 25.4386 93.8463 25.3101 93.9594 25.1559C94.5334 24.2992 96.3861 21.378 97.7429 19.0907C98.9693 17.7972 101.092 16.298 102.205 16.298C102.335 16.298 102.37 16.358 102.37 16.4865C102.37 16.8634 98.891 21.9691 98.517 22.8772C98.3962 23.1022 98.3279 23.351 98.317 23.6053C98.3065 23.854 98.347 24.1022 98.4361 24.3351C98.5253 24.568 98.6612 24.7808 98.8358 24.9608C99.0104 25.1407 99.22 25.2842 99.4522 25.3825C99.6844 25.4807 99.9343 25.5319 100.187 25.5328C101.727 25.5328 103.736 23.8195 105.562 21.8063C105.518 22.0898 105.494 22.3761 105.493 22.663C105.461 23.0321 105.508 23.4037 105.632 23.7536C105.755 24.1035 105.952 24.4238 106.21 24.6937C106.468 24.9636 106.78 25.1771 107.127 25.3202C107.474 25.4633 107.848 25.5328 108.224 25.5242C111.085 25.5242 114.138 22.1404 115.791 19.9988C115.791 19.9988 115.791 19.9988 115.791 19.9559C116.821 18.6465 117.738 17.2538 118.531 15.7926C118.983 16.1352 119.4 16.4265 119.4 16.812C119.4 18.294 117.165 20.5556 117.165 22.6801C117.139 23.0529 117.193 23.4269 117.324 23.7778C117.454 24.1286 117.658 24.4486 117.922 24.7168C118.186 24.985 118.505 25.1955 118.857 25.3346C119.209 25.4737 119.587 25.5383 119.966 25.5242C124.315 25.5242 129.081 20.1101 135.369 20.1101C139.066 20.1101 138.849 23.0828 137.587 25.1045C137.179 25.7813 137.996 26.1582 138.457 25.4643C141.78 20.1101 139.101 17.5744 136.378 17.5059C129.098 17.3346 124.323 24.4877 120.644 24.4877C119.896 24.4877 119.444 24.1622 119.444 23.3997C119.444 21.2581 122.271 18.3369 122.271 17.129C122.271 15.2186 119.444 14.6703 119.444 13.8479C119.444 13.3168 120.044 12.3916 119.487 12.3916C119.234 12.3568 118.975 12.3745 118.729 12.4436C118.482 12.5127 118.253 12.6316 118.056 12.7928C117.858 12.9541 117.697 13.154 117.583 13.3799C117.469 13.6058 117.403 13.8528 117.391 14.1049C117.412 14.5262 117.6 14.9227 117.913 15.21C117.19 16.7457 116.272 18.1849 115.182 19.4933C113.964 21.0268 110.833 24.3849 109.05 24.3849C107.458 24.3849 107.763 22.7144 108.754 20.8469C113.973 20.4871 117.174 14.8502 113.103 14.8502C110.65 14.8502 107.45 16.9748 106.145 19.9045C104.562 21.8063 102.744 23.4854 101.492 23.4854C100.465 23.4854 105.423 17.7201 105.423 16.2038C105.433 16.0129 105.402 15.8221 105.332 15.6438C105.262 15.4656 105.155 15.3039 105.017 15.1696C104.879 15.0353 104.713 14.9312 104.531 14.8644C104.35 14.7975 104.155 14.7693 103.962 14.7817C102.735 14.7817 100.674 15.7069 98.9432 16.9148C99.1217 16.6201 99.2509 16.299 99.3259 15.9639C99.3259 15.2015 98.6823 14.7817 97.8212 14.7817C96.6383 14.7817 94.6465 15.6384 92.9244 16.8291C93.5071 15.9211 93.9594 15.2015 94.1681 14.8674C94.1753 14.8627 94.1812 14.8563 94.1853 14.8488C94.1894 14.8414 94.1915 14.833 94.1915 14.8245C94.1915 14.8161 94.1894 14.8077 94.1853 14.8002C94.1812 14.7928 94.1753 14.7864 94.1681 14.7817H91.5588C91.3501 14.7817 91.2022 15.0301 91.0891 15.2015L88.2449 19.6904C86.6272 21.6778 84.7658 23.4854 83.4177 23.4854C82.5479 23.4854 86.9838 18.4482 86.9838 17.0347C86.9838 15.1329 84.1657 14.5761 84.1657 13.7537C84.1657 13.2226 84.7659 12.2888 84.2092 12.2888C83.9555 12.2553 83.6976 12.274 83.4516 12.3436C83.2056 12.4132 82.977 12.5322 82.78 12.6932C82.5831 12.8542 82.4221 13.0536 82.3073 13.2789C82.1925 13.5042 82.1264 13.7504 82.113 14.0021C82.1378 14.4225 82.3244 14.8178 82.6349 15.1072C81.9159 16.6451 80.9979 18.0848 79.9038 19.3906V19.4505C78.2773 21.5065 76.2768 23.4254 74.9374 23.4254C73.9806 23.4254 76.9118 18.9793 79.6168 14.7988C79.6195 14.7885 79.6197 14.7777 79.6174 14.7673C79.6152 14.7569 79.6105 14.7472 79.6037 14.7389C79.597 14.7305 79.5884 14.7239 79.5785 14.7194C79.5687 14.715 79.558 14.7128 79.5472 14.7132H76.9378C76.6856 14.7132 76.5378 15.013 76.4073 15.1758C76.318 15.3374 76.2163 15.4921 76.1029 15.6384C75.868 15.1329 75.294 14.7817 74.2763 14.7817L74.172 14.9959ZM69.3708 23.5625C71.5887 23.5625 76.5204 16.041 74.5025 16.041C71.5713 16.041 67.4573 23.5625 69.3708 23.5625ZM37.8587 15.9896C39.5983 15.9896 36.989 19.4933 33.5098 19.9988C34.8319 17.7886 36.7193 15.9896 37.8587 15.9896Z" fill="#FF3939"/>
</svg>
