<svg version="1.2" xmlns="http://www.w3.org/2000/svg" viewBox="0 0 230 159" width="230" height="159">
	<title>3428195_60292 8</title>
	<style>
		.s0 { fill: #262e3a } 
		.s1 { fill: #5e6278 } 
	</style>
	<path class="s0" d="m65.6 159.1l-6-10.4-47.6-82.4h-12l53.6 92.8h12z"/>
	<path class="s0" d="m113.6 159.1l-6-10.4-6-10.4-6-10.4-6-10.4-6-10.4-23.6-40.8h-12l29.6 51.2 6 10.4 6 10.4 6 10.4 6 10.4h12z"/>
	<path class="s0" d="m131.6 148.7l-6-10.4-6-10.4-6-10.4-6-10.4-6-10.3-6-10.4-11.6-20.1h-12l17.6 30.4 12 20.8 6 10.4 6 10.4 6 10.4 6 10.4h12z"/>
	<path class="s1" d="m157.4 0h-12l-43.8 75.9 6 10.4z"/>
	<path class="s0" d="m77.6 159.1h12l-6-10.4-6-10.4-6-10.4-35.6-61.6h-12l41.6 72 6 10.4 6 10.4z"/>
	<path class="s1" d="m119.6 107l61.8-107h-12l-55.8 96.6 0.1 0.2z"/>
	<path class="s1" d="m131.6 127.8l73.8-127.8h-12l-67.8 117.4 0.1 0.1z"/>
	<path class="s1" d="m229.4 0h-12l-79.8 138.2 0.1 0.1 5.9 10.3z"/>
</svg>