<svg width="89" height="49" viewBox="0 0 89 49" fill="none" xmlns="http://www.w3.org/2000/svg">
<path fill-rule="evenodd" clip-rule="evenodd" d="M44.8581 15.7514C44.5219 14.8728 43.9796 14.0877 43.2769 13.4622C42.5738 12.8376 41.6238 12.4343 40.4268 12.2522C39.5422 12.1214 38.6832 12.401 37.8498 13.091C37.0165 13.7811 36.2357 14.6679 35.5075 15.7514C34.7508 16.8812 34.0851 18.0694 33.5167 19.3046C32.9171 20.5931 32.4094 21.7838 31.9936 22.8766C31.89 20.6642 31.7077 18.8359 31.4466 17.3915C31.1855 15.9471 30.8408 14.8025 30.4124 13.9577C29.9834 13.1112 29.4498 12.5059 28.8115 12.1418C28.1733 11.7777 27.4119 11.5565 26.5272 11.478C25.9739 11.4279 25.4193 11.5581 24.946 11.8491C24.3984 12.1801 23.8993 12.5854 23.463 13.0534C22.9475 13.6029 22.4824 14.1975 22.0731 14.83C21.6316 15.507 21.2283 16.1902 20.8631 16.8797C20.4979 17.5692 20.166 18.2461 19.8673 18.9105C19.568 19.5744 19.3143 20.1535 19.1061 20.6479C18.82 18.9037 18.4425 17.4201 17.9738 16.197C17.505 14.9739 16.9327 13.9781 16.2569 13.2096C15.6198 12.4718 14.8263 11.8853 13.9341 11.4927C13.0094 11.1023 12.0292 10.859 11.0293 10.7716C9.85205 10.6581 8.668 10.9029 7.63226 11.4739C6.61861 12.0263 5.69098 12.7237 4.87866 13.544C4.14368 14.2808 3.47122 15.0774 2.86824 15.9256C2.32319 16.7061 1.94574 17.2528 1.7359 17.5656C1.47191 17.9783 1.23697 18.4088 1.03279 18.8541C0.773696 19.3979 0.551892 19.9587 0.368913 20.5326C0.196641 21.0593 0.0788402 21.6023 0.0173565 22.153C-0.0349683 22.6608 0.0312565 23.0319 0.212758 23.2658C0.577397 23.7078 0.967924 23.9422 1.38434 23.9689C1.80049 23.9942 2.12588 24.0081 2.36053 24.0081C2.41785 24.0051 2.47379 23.9894 2.52438 23.9623C2.57497 23.9352 2.61896 23.8972 2.65322 23.8512C2.78024 23.6932 2.89142 23.5231 2.98515 23.3434C3.11542 23.1096 3.29747 22.7973 3.53129 22.4065C3.76512 22.0157 4.07744 21.5344 4.46824 20.9627C5.40518 19.5826 6.25001 18.4696 7.00272 17.6237C7.75544 16.7778 8.43893 16.1403 9.0532 15.7114C9.66475 15.2813 10.2308 15.0273 10.7513 14.9494C11.259 14.8721 11.7771 14.8999 12.2736 15.0311C13.2629 15.3173 13.9916 16.2087 14.4598 17.7054C14.928 19.2021 15.3196 21.3033 15.6347 24.0089C15.791 25.3696 15.8628 26.7387 15.8497 28.1083C15.8366 29.4878 15.7908 30.7436 15.7124 31.8757C15.6339 33.0077 15.5494 33.9512 15.4589 34.7061C15.3684 35.461 15.3098 35.8905 15.2831 35.9946C15.272 36.0887 15.284 36.1842 15.3181 36.2726C15.3521 36.3611 15.4072 36.4399 15.4785 36.5023C15.5587 36.5814 15.6509 36.6474 15.7516 36.6977C16.1424 36.8536 16.5068 36.9836 16.8447 37.0877C17.1317 37.1923 17.4374 37.2888 17.762 37.3804C18.0201 37.464 18.2918 37.4973 18.5624 37.4785C18.9532 37.4523 19.1941 37.2245 19.2852 36.795C19.4037 36.1688 19.4886 35.5368 19.5394 34.9015C19.643 33.8605 19.8065 32.663 20.03 31.3091C20.2534 29.9552 20.5202 28.5759 20.8304 27.1713C21.1427 25.7656 21.4942 24.3796 21.8851 23.0131C22.2273 21.7823 22.6512 20.5756 23.1539 19.4011C23.6096 18.36 24.0977 17.5337 24.6182 16.9222C25.1387 16.3107 25.6723 16.0439 26.219 16.1218C26.6349 16.2003 26.9535 16.6559 27.1748 17.4888C27.3961 18.3216 27.5394 19.3627 27.6048 20.6119C27.6691 21.8612 27.6757 23.2145 27.6244 24.672C27.5732 26.1295 27.5081 27.5024 27.429 28.7909C27.3505 30.0794 27.2658 31.1922 27.1748 32.1291C27.0837 33.066 27.0382 33.6383 27.0382 33.846C27.0084 34.3598 27.0679 34.8749 27.214 35.3683C27.3421 35.8026 27.533 36.2157 27.7806 36.5947C27.9833 36.9109 28.2334 37.1941 28.5221 37.4344C28.7423 37.6197 28.9933 37.765 29.2637 37.8636C29.6823 37.9941 30.1297 38.0009 30.5522 37.8832C30.8799 37.8026 31.1951 37.6777 31.4891 37.512C31.5709 37.4859 31.6322 37.3044 31.6845 36.9659C31.7368 36.6274 31.7883 36.1982 31.8407 35.6774C32.0233 34.6102 32.2958 33.3933 32.6582 32.0269C33.0207 30.6605 33.4295 29.2744 33.8846 27.8687C34.3397 26.463 34.8409 25.0835 35.3881 23.7302C35.9354 22.3768 36.4804 21.173 37.0233 20.1189C37.5683 19.0648 38.1085 18.2254 38.6437 17.6008C39.179 16.9762 39.667 16.6638 40.108 16.6638C40.4203 16.6638 40.6351 16.9364 40.7522 17.4814C40.8694 18.0265 40.9215 18.7623 40.9084 19.6889C40.8953 20.6127 40.8367 21.6799 40.7326 22.8905C40.6285 24.1011 40.5179 25.3699 40.4007 26.6971C40.2835 28.0243 40.1925 29.3646 40.1276 30.718C40.0627 32.0713 40.0562 33.3598 40.108 34.5835C40.1592 35.4163 40.2309 36.1385 40.323 36.75C40.4151 37.3616 40.7078 37.8249 41.2011 38.1399C41.5048 38.3194 41.8175 38.4831 42.138 38.6305C42.4736 38.7904 42.8275 38.9085 43.1919 38.982C43.5304 39.0474 43.8168 39.015 44.0512 38.8847C44.2858 38.7539 44.4027 38.4686 44.4027 38.0255C44.4027 37.5823 44.4092 36.9127 44.4223 36.015C44.4354 35.1173 44.4616 34.1273 44.5041 33.0481C44.5466 31.9689 44.5858 30.8741 44.6414 29.7679C44.697 28.6618 44.7584 27.6921 44.836 26.859C44.8905 26.2867 44.9884 25.558 45.1295 24.6728C45.2707 23.7877 45.3745 22.8311 45.441 21.8031C45.5064 20.7633 45.5132 19.7206 45.4615 18.68C45.4207 17.6775 45.2169 16.6884 44.8581 15.7514Z" fill="#07544F"/>
<path fill-rule="evenodd" clip-rule="evenodd" d="M46.714 21.9577C46.9902 22.2899 47.3367 22.5565 47.7286 22.7385C48.1712 22.9565 48.7568 23.0927 49.4856 23.1473C50.2143 23.2018 50.7803 23.1173 51.1837 22.8938C51.546 22.708 51.86 22.4404 52.101 22.1122C52.2927 21.8509 52.426 21.5515 52.4918 21.2341C52.533 21.0412 52.5604 20.8456 52.5735 20.6487C52.5533 20.4245 52.5139 20.2024 52.4558 19.9849C52.3572 19.6037 52.1847 19.2457 51.9481 18.931C51.6881 18.5664 51.2978 18.2407 50.7773 17.954C50.2568 17.6673 49.567 17.5242 48.708 17.5248C48.1352 17.5248 47.6795 17.6158 47.3411 17.7979C47.0286 17.9582 46.7605 18.1929 46.5603 18.4813C46.3846 18.7402 46.2648 19.0328 46.2087 19.3406C46.159 19.6047 46.1317 19.8724 46.127 20.141C46.1318 20.4373 46.171 20.7319 46.2439 21.0191C46.331 21.3622 46.4914 21.6824 46.714 21.9577Z" fill="#07544F"/>
<path fill-rule="evenodd" clip-rule="evenodd" d="M83.2212 32.7194C82.5222 33.3219 81.7537 33.8387 80.932 34.2589C78.0705 35.7395 75.5417 34.3513 75.1583 32.3425C75.0394 31.712 74.9867 31.0708 75.0013 30.4294C75.0144 29.7655 75.0471 29.1995 75.0994 28.7313C75.1539 28.3666 75.2125 27.8851 75.2752 27.2866C75.3379 26.6881 75.4093 26.0373 75.4894 25.3342C76.089 25.2797 76.6553 25.2149 77.1883 25.1397C77.7214 25.0644 78.1302 25.0121 78.4147 24.9827C78.9352 24.9282 79.3192 24.7268 79.5667 24.3785C79.8119 24.0261 79.9509 23.7727 79.9754 23.6165C80.0262 23.4519 80.0537 23.281 80.0572 23.1088C80.0572 22.9524 79.9141 22.8093 79.628 22.6796C79.3387 22.5538 79.0251 22.4938 78.7098 22.5038C78.4106 22.5169 78.0018 22.5234 77.4835 22.5234C77.1973 22.4689 76.6376 22.4689 75.8042 22.5234C75.9088 21.8988 75.9936 21.3393 76.0584 20.8449C76.123 20.3495 76.1819 19.9857 76.2342 19.751C76.3639 19.1002 76.3443 18.5993 76.1753 18.2483C76.0061 17.8967 75.8573 17.6686 75.7265 17.5648C75.5968 17.4351 75.421 17.2397 75.1992 16.9786C74.9773 16.7175 74.6457 16.5875 74.2042 16.5886C73.7758 16.6094 73.3652 16.7667 73.0326 17.0375C72.6957 17.3084 72.4392 17.6664 72.2911 18.0725C72.2065 18.3064 72.1476 18.5487 72.1153 18.7953C72.076 19.0678 72.0433 19.3605 72.0172 19.6733C71.9918 19.9857 71.9714 20.2849 71.9591 20.5727C71.9468 20.8605 71.9264 21.0935 71.9002 21.2758C71.8635 21.4293 71.8438 21.5864 71.8414 21.7443C71.8283 21.9781 71.7959 22.2779 71.7441 22.6436L69.4794 22.7254C69.0694 22.7439 68.6661 22.8364 68.289 22.9984C67.9375 23.1549 67.6835 23.311 67.527 23.4669C67.3769 23.6031 67.2686 23.7792 67.2147 23.9746C67.1488 24.1498 67.1094 24.3339 67.0978 24.5208C67.124 24.8077 67.209 25.0023 67.3521 25.1061C67.5003 25.2129 67.6664 25.2924 67.8426 25.3408C68.0775 25.392 68.546 25.4193 69.248 25.4225H71.5119C71.4601 26.3333 71.4083 27.2509 71.3566 28.1753C71.3048 29.0997 71.2775 29.9001 71.2748 30.5765C71.2775 31.0252 71.3048 31.4733 71.3566 31.919C71.2658 32.1209 71.1751 32.3425 71.0835 32.6058C70.9155 33.1183 70.5955 33.5677 70.1662 33.8943C69.7105 34.2589 69.1055 34.4412 68.3512 34.4412C67.9876 34.4412 67.6946 34.3502 67.4723 34.1681C67.2444 33.9779 67.0744 33.7275 66.9817 33.4454C66.8691 33.0979 66.8036 32.7369 66.7871 32.3719C66.761 31.955 66.7479 31.5124 66.7479 31.0442C66.7479 30.5765 66.7413 30.1138 66.7283 29.6543C66.7186 29.2357 66.6795 28.8182 66.6113 28.4051C66.5606 28.0712 66.4551 27.748 66.299 27.4485C66.1688 27.1997 65.954 27.0057 65.6932 26.9015C65.3933 26.8158 65.0863 26.7573 64.7759 26.7266C64.4129 26.6867 64.047 26.6801 63.6828 26.7069C63.3108 26.7316 62.9435 26.8036 62.5897 26.9212C62.2505 27.031 61.938 27.2106 61.6724 27.4485C61.3957 27.6991 61.1347 27.9664 60.8908 28.2489C60.6313 28.5481 60.3972 28.8207 60.1885 29.0665C59.98 29.3117 59.805 29.5219 59.6611 29.6911C59.5172 29.8603 59.4339 29.9445 59.4077 29.9445C59.2774 29.9445 59.1864 29.6581 59.1346 29.0853C59.1296 28.9082 59.1099 28.7318 59.0758 28.5579C59.03 28.3177 58.944 28.0869 58.8215 27.8753C58.6841 27.6319 58.4982 27.4193 58.2754 27.2506C57.9972 27.0501 57.6766 26.9163 57.3384 26.8598C55.8292 26.626 55.1004 27.1727 55.1522 28.4999C55.1522 28.8384 55.1653 29.4107 55.1915 30.2168C55.2086 30.7793 55.2487 31.3614 55.2986 31.9582C55.2104 32.1797 55.1356 32.4063 55.0745 32.6368C55.0484 32.7665 54.9505 32.9878 54.781 33.3007C54.5929 33.6413 54.3705 33.9619 54.1172 34.2573C53.8413 34.5837 53.5114 34.8602 53.1418 35.0748C52.7584 35.2971 52.3123 35.3862 51.8729 35.3283C51.6848 35.312 51.5018 35.2588 51.3343 35.1717C51.1667 35.0845 51.0181 34.9652 50.8967 34.8206C50.6591 34.5285 50.4861 34.1894 50.389 33.8256C50.2843 33.4434 50.2253 33.0501 50.2132 32.654C50.1989 32.3092 50.2054 31.9638 50.2329 31.6198C50.2874 31.0469 50.3329 30.5457 50.3694 30.1162C50.4059 29.6867 50.4255 29.3289 50.4283 29.0428C50.4132 28.8855 50.3667 28.7329 50.2917 28.5939C50.1894 28.3828 50.051 28.191 49.8829 28.0273C49.6974 27.8426 49.4869 27.6849 49.2575 27.5589C49.0062 27.4249 48.7247 27.3576 48.4399 27.3635C47.685 27.3635 47.119 27.5392 46.7418 27.8908C46.3646 28.2424 46.1761 28.9782 46.1761 30.0982C46.1761 30.4882 46.163 30.951 46.1368 31.4881C46.1106 32.0253 46.1106 32.5878 46.1368 33.1862C46.1642 33.7951 46.2624 34.3987 46.4295 34.9849C46.6 35.5834 46.8925 36.1402 47.2888 36.6201C47.6916 37.115 48.2445 37.5183 48.9476 37.8301C49.6507 38.1418 50.5487 38.3111 51.6415 38.3378C52.8908 38.3639 53.8991 38.1429 54.6666 37.6747C55.265 37.3195 55.8002 36.8672 56.2502 36.3364C56.315 36.4177 56.3933 36.4874 56.4816 36.5424C57.1356 36.9321 57.6368 37.14 57.9851 37.1662C58.2252 37.1947 58.4678 37.1947 58.7079 37.1662C58.837 37.1406 59.0256 37.0171 59.2736 36.7958C59.5053 36.6005 59.6636 36.332 59.7225 36.0347C59.7225 35.9049 59.7745 35.7033 59.8786 35.4297C59.9827 35.156 60.0934 34.8633 60.2106 34.5516C60.3221 34.2508 60.4523 33.9572 60.6005 33.6727C60.7444 33.3996 60.8548 33.1977 60.9333 33.0677C61.0118 32.9377 61.1213 32.748 61.2652 32.5011C61.4091 32.2542 61.5514 32.0106 61.6944 31.7784C61.813 31.5776 61.9499 31.3882 62.1032 31.2126C62.2332 31.0695 62.3379 31.0107 62.4156 31.0368C62.494 31.0913 62.5592 31.2151 62.611 31.408C62.6633 31.6034 62.7148 31.8372 62.7671 32.1103C62.8194 32.3834 62.8775 32.6638 62.9429 32.95C62.9977 33.2019 63.0693 33.4499 63.1571 33.6923C63.2356 33.9 63.3658 34.2188 63.5479 34.6489C63.7517 35.1121 64.0276 35.5401 64.3655 35.9169C64.7654 36.362 65.2413 36.7324 65.7709 37.0109C66.3443 37.3232 67.0599 37.4793 67.9178 37.4793C68.7518 37.4793 69.4876 37.3491 70.1253 37.0885C70.7197 36.8551 71.268 36.5182 71.7449 36.0935C72.008 35.8496 72.2493 35.5831 72.466 35.2972C72.8903 35.9088 73.461 36.3838 74.1265 36.8146C74.2502 36.8948 74.3789 36.9716 74.5124 37.0452C74.6923 37.1065 74.8713 37.1613 75.0463 37.2087C76.8098 37.6911 78.4727 37.5357 79.9158 36.6871C81.1969 35.9284 82.3268 34.6194 83.2212 32.7194Z" fill="#07544F"/>
<path fill-rule="evenodd" clip-rule="evenodd" d="M67.0005 8.15857C66.0644 10.2614 64.7481 12.1516 62.8219 13.517C64.2428 12.2214 65.5003 10.4772 66.5942 8.28447C65.5176 8.23823 64.4391 8.30675 63.377 8.48887C62.1191 10.8397 60.6564 12.5187 58.9891 13.526C60.3855 12.2762 61.6359 10.6375 62.7401 8.60987C61.6347 8.8455 60.5535 9.18352 59.5107 9.61957C58.5841 11.2547 57.566 12.4236 56.4563 13.1262C57.1397 12.5266 57.9459 11.4499 58.8746 9.89592C58.0571 10.2663 56.2993 11.2367 55.4809 11.7306C56.2036 10.9449 58.1396 9.7095 59.2867 9.12657C58.2773 8.74885 57.1307 8.59488 55.8472 8.66465C57.025 8.28638 58.38 8.34089 59.9121 8.82816C60.909 8.38333 61.9438 8.02925 63.0042 7.77022C62.0847 7.04803 60.806 6.44847 59.1682 5.97155C60.7619 5.99444 62.3194 6.53214 63.8406 7.58463C64.9172 7.36661 66.0124 7.25299 67.1109 7.24534C66.0268 5.96719 64.5903 5.02071 62.8015 4.40589C64.6421 4.73783 66.35 5.69167 67.9252 7.26741C68.7777 7.30769 69.6204 7.4659 70.4294 7.73751C70.3526 3.99138 67.5875 2.51566 63.2552 2.13794C63.7343 2.51947 64.0758 2.94434 64.2796 3.41254C62.6112 2.80863 60.5583 2.96505 58.1208 3.88183C58.4785 4.0664 58.8208 4.27938 59.1444 4.51872C57.7349 4.54706 56.0562 5.1349 54.1082 6.28223C54.3741 6.44734 54.6122 6.65346 54.8137 6.89296C53.5857 7.5274 52.5281 8.59025 51.6407 10.0815C51.9639 10.1567 52.3013 10.3426 52.6529 10.6391C50.9973 11.4763 49.9009 13.0918 49.3613 15.4211C50.1052 15.7027 50.8978 15.8333 51.6927 15.8052C52.4877 15.7772 53.2691 15.591 53.9913 15.2576C53.7525 15.7375 53.5473 16.134 53.2554 16.2934C54.9012 16.69 56.1251 16.569 57.3646 15.977C57.2011 16.4177 56.9877 16.7447 56.7923 16.896C59.4347 17.053 61.1638 16.3621 62.2978 15.4628C62.0624 16.1823 61.7749 16.6703 61.4353 16.9271C63.7686 16.0048 65.3834 15.1328 66.2794 14.3108C66.2195 14.8869 66.0946 15.3461 65.905 15.6884C67.2049 15.2895 70.5014 12.0723 71.1309 10.1698C81.8174 12.0093 88.6802 21.5464 84.4345 32.2116C83.4125 34.7715 82.0128 36.5064 80.3703 37.4711C80.0331 37.6699 79.6791 37.8387 79.3124 37.9755C79.7254 37.9385 80.1352 37.8721 80.5387 37.7769C94.2421 34.5556 90.9743 9.87629 67.0005 8.15857Z" fill="#07544F"/>
<path fill-rule="evenodd" clip-rule="evenodd" d="M73.4094 4.78282C73.6051 3.59679 74.0537 2.64131 74.7552 1.9164C74.1649 2.74814 73.8332 3.61477 73.7602 4.51629C74.2432 4.17438 74.7582 3.88004 75.298 3.63739C75.6338 2.69718 76.1472 1.97145 76.8383 1.46019C76.2698 2.18347 75.8981 2.8487 75.7232 3.45589C76.2691 3.23508 76.8339 3.06433 77.4106 2.94572C77.9295 2.25078 78.5067 1.80084 79.1423 1.5959C78.6036 1.92467 78.1395 2.36211 77.7794 2.88032C78.4653 2.77485 79.7023 2.70699 80.2673 2.8239C79.7522 2.86642 78.6771 2.99314 78.2012 3.08798C79.0978 3.47878 79.7903 3.6968 80.2787 3.74204C79.5701 3.78455 78.7558 3.59379 77.8358 3.16974C77.2419 3.30675 76.662 3.49833 76.1033 3.74204C77.2261 4.28164 78.289 4.60622 79.2919 4.71578C78.2437 4.79917 77.0746 4.52391 75.7845 3.89002C75.2623 4.14376 74.7689 4.45295 74.3129 4.81225C75.482 5.42979 76.5819 5.79879 77.6126 5.91924C76.3388 5.92742 75.1672 5.51045 74.097 4.88583C73.3854 5.47525 72.7221 6.12075 72.1136 6.81613C72.6646 7.50698 76.1786 8.10299 76.9463 7.84463C76.7167 7.72381 76.5135 7.55844 76.3486 7.35818C77.0027 7.43667 77.9838 7.31103 79.2919 6.98127C79.0605 6.97555 78.7825 6.8521 78.453 6.6101C79.233 6.64852 80.2084 6.40652 81.3146 5.50637C81.1189 5.47899 80.9335 5.40217 80.7758 5.28317C81.5059 5.15236 82.0839 4.82042 82.6775 4.12794C82.4992 4.15083 82.2842 4.04046 82.0291 3.90637C82.4507 3.82465 82.8518 3.65963 83.2088 3.42097C83.5658 3.18231 83.8715 2.87482 84.1082 2.51649C83.1378 1.66376 82.146 1.3024 81.1649 1.45365C81.2086 1.24759 81.3005 1.05482 81.4331 0.891154C80.5747 0.51616 79.7764 0.382625 79.0384 0.490545C79.0511 0.321772 79.0909 0.156139 79.1562 0C77.9396 0.10901 77.0188 0.379627 76.3936 0.811852C76.4589 0.605232 76.5409 0.404261 76.6389 0.210931C75.2817 0.57666 74.3327 1.1536 73.7921 1.94174C73.7361 1.64869 73.7527 1.3464 73.8403 1.06121C72.0604 2.58844 70.9068 4.33151 72.0514 6.001C72.2992 5.65844 73.0317 5.09431 73.4094 4.78282Z" fill="#07544F"/>
<path d="M74.2714 45.9756C74.2714 46.3386 74.1896 46.6141 74.013 46.7932C73.9225 46.8873 73.8128 46.9609 73.6913 47.0089C73.5699 47.057 73.4395 47.0785 73.3091 47.072C73.0126 47.072 72.7831 46.979 72.6207 46.7932C72.4572 46.61 72.3754 46.3345 72.3754 45.9756V42.9506H70.8359V46.4661C70.8359 47.0935 70.9965 47.5862 71.3175 47.9443C71.6385 48.3024 72.0923 48.4812 72.6788 48.4806C73.0154 48.4886 73.3468 48.3967 73.6312 48.2166C73.7569 48.1353 73.8739 48.0414 73.9803 47.9361C74.0838 47.8317 74.1802 47.7205 74.2689 47.6034V48.3793H75.8076V42.9522H74.2689L74.2714 45.9756Z" fill="#556566"/>
<path d="M51.3733 41.9727C51.1273 41.7491 50.8378 41.5785 50.523 41.4715C50.1562 41.3481 49.7711 41.2884 49.3841 41.2949H46.4883V48.3817H48.0474V46.256H49.2321C49.6106 46.2587 49.9874 46.2059 50.3505 46.099C50.6822 46.003 50.9919 45.843 51.2621 45.6281C51.5226 45.4176 51.7322 45.1509 51.8753 44.8481C52.0297 44.5082 52.1057 44.138 52.0977 43.7648V43.7452C52.1023 43.4036 52.0387 43.0644 51.9104 42.7477C51.7895 42.4536 51.6062 42.1892 51.3733 41.9727ZM50.5181 43.7942C50.5208 43.9376 50.4931 44.0798 50.4367 44.2116C50.3803 44.3434 50.2966 44.4617 50.1911 44.5587C49.9731 44.7647 49.6692 44.8677 49.2795 44.8677H48.0441V42.7011H49.2492C49.6406 42.7011 49.9494 42.7922 50.1756 42.9742C50.4018 43.1563 50.5148 43.4231 50.5148 43.7746L50.5181 43.7942Z" fill="#556566"/>
<path d="M86.0367 44.2709V42.9546H84.7604V41.5647H83.2217V42.9546H82.5742V44.2709H83.2217V46.843C83.2135 47.1095 83.2531 47.3753 83.3387 47.6278C83.4069 47.8182 83.519 47.9899 83.6657 48.129C83.8062 48.2579 83.9764 48.35 84.1611 48.3972C84.3715 48.4499 84.5877 48.4755 84.8046 48.4732C85.0335 48.4781 85.262 48.4506 85.4832 48.3915C85.6705 48.3375 85.8506 48.2609 86.0195 48.1633V46.928C85.7887 47.0614 85.5266 47.1311 85.26 47.1299C84.9329 47.1299 84.7637 46.955 84.7637 46.6026V44.275L86.0367 44.2709Z" fill="#556566"/>
<path d="M54.6293 44.0485V42.9546H53.0898V48.3817H54.6293V46.3778C54.6293 45.7237 54.7762 45.2408 55.07 44.929C55.3638 44.6173 55.7671 44.4622 56.28 44.4638H56.3618V42.8532C55.9031 42.8336 55.5385 42.935 55.2687 43.1574C54.9851 43.3969 54.7654 43.7031 54.6293 44.0485Z" fill="#556566"/>
<path d="M62.0958 43.6692C61.8292 43.4111 61.5144 43.2081 61.1695 43.0715C60.7993 42.9237 60.4038 42.8496 60.0052 42.8532C59.6027 42.8487 59.2032 42.9246 58.8304 43.0764C58.4842 43.2179 58.1682 43.4241 57.8992 43.6839C57.6363 43.9403 57.4263 44.2459 57.2811 44.5832C57.1313 44.93 57.0555 45.3043 57.0587 45.682V45.7016C57.0555 46.0794 57.1313 46.4537 57.2811 46.8005C57.4251 47.1348 57.6335 47.4376 57.8942 47.6916C58.1611 47.9494 58.4757 48.1524 58.8206 48.2893C59.1909 48.4366 59.5863 48.5104 59.9848 48.5068C60.3873 48.5111 60.7867 48.4352 61.1597 48.2836C61.5062 48.1428 61.8224 47.9366 62.0909 47.6761C62.3537 47.4197 62.5634 47.1142 62.7081 46.7768C62.8581 46.4303 62.9342 46.0563 62.9313 45.6788V45.6583C62.9341 45.2805 62.8581 44.9063 62.7081 44.5595C62.5642 44.2255 62.3562 43.923 62.0958 43.6692ZM61.4131 45.6984C61.4142 45.8933 61.3816 46.0869 61.3166 46.2707C61.2555 46.4444 61.1607 46.6044 61.0378 46.7416C60.9145 46.8774 60.7645 46.9862 60.5972 47.0613C60.4103 47.1414 60.2085 47.181 60.0052 47.1774C59.8043 47.1805 59.6052 47.1389 59.4223 47.0556C59.0785 46.8951 58.8114 46.6063 58.6783 46.2511C58.6105 46.0679 58.5764 45.874 58.5777 45.6788V45.6583C58.576 45.4634 58.6084 45.2698 58.6734 45.086C58.7346 44.9123 58.8293 44.7523 58.9522 44.6151C59.0749 44.4792 59.2247 44.3706 59.3921 44.2962C59.5792 44.2162 59.7812 44.1766 59.9848 44.1801C60.1837 44.1782 60.3806 44.2195 60.562 44.3011C60.9084 44.4599 61.1777 44.7495 61.3109 45.1065C61.3796 45.2894 61.4143 45.4834 61.4131 45.6788V45.6984Z" fill="#556566"/>
<path d="M67.9628 43.6635C67.7706 43.4395 67.5433 43.2482 67.2899 43.0969C67.0234 42.9334 66.6844 42.8516 66.2729 42.8516C65.9533 42.8509 65.6366 42.9129 65.3408 43.0339C65.0434 43.1562 64.7757 43.3411 64.556 43.576C64.3195 43.8323 64.1341 44.1315 64.0098 44.4573C63.8645 44.8402 63.7937 45.2473 63.8013 45.6567V45.6772C63.7937 46.0866 63.8645 46.4937 64.0098 46.8765C64.1345 47.2035 64.322 47.5029 64.5617 47.7579C64.7837 47.9921 65.0529 48.1766 65.3515 48.2991C65.6436 48.4199 65.9567 48.4819 66.2729 48.4814C66.6773 48.4814 67.013 48.3997 67.2801 48.2362C67.5463 48.0712 67.7781 47.8563 67.9628 47.6034V48.3825H69.5023V40.99H67.9628V43.6635ZM67.9832 45.6788C67.9856 45.8876 67.9499 46.0951 67.8778 46.2912C67.8128 46.4656 67.7166 46.6268 67.5941 46.767C67.4786 46.8965 67.3371 47.0001 67.1787 47.0711C67.0174 47.1412 66.8433 47.1774 66.6674 47.1774C66.4914 47.1774 66.3173 47.1412 66.156 47.0711C65.9965 46.9996 65.8535 46.8961 65.7357 46.767C65.6099 46.6284 65.5119 46.4668 65.4471 46.2912C65.3743 46.0953 65.3382 45.8877 65.3408 45.6788V45.6584C65.3373 45.4478 65.3734 45.2384 65.4471 45.0411C65.5127 44.8673 65.6107 44.7075 65.7357 44.5702C65.8535 44.4411 65.9965 44.3375 66.156 44.266C66.3173 44.1959 66.4914 44.1598 66.6674 44.1598C66.8433 44.1598 67.0174 44.1959 67.1787 44.266C67.3371 44.337 67.4786 44.4407 67.5941 44.5702C67.7166 44.7103 67.8128 44.8715 67.8778 45.046C67.9499 45.242 67.9856 45.4495 67.9832 45.6584V45.6788Z" fill="#556566"/>
<path d="M80.4926 47.0204C80.2851 47.1285 80.0537 47.1825 79.8197 47.1773C79.6244 47.18 79.4309 47.1404 79.2523 47.0612C79.0868 46.9855 78.9386 46.8767 78.8166 46.7416C78.6932 46.6029 78.5984 46.4412 78.5378 46.2657C78.4729 46.0769 78.4406 45.8784 78.4421 45.6787V45.6583C78.4408 45.4634 78.4732 45.2698 78.5378 45.086C78.5992 44.9134 78.6921 44.7538 78.8117 44.6151C78.9275 44.4822 79.0687 44.3738 79.227 44.2962C79.393 44.2175 79.5747 44.1778 79.7584 44.1801C80 44.1719 80.2393 44.2284 80.4517 44.3436C80.6516 44.4629 80.834 44.6093 80.9938 44.7786L81.9356 43.7664C81.6852 43.4876 81.3824 43.2606 81.0445 43.0985C80.7065 42.9349 80.2811 42.8532 79.7682 42.8532C79.3755 42.849 78.986 42.925 78.6236 43.0764C78.2863 43.2168 77.9805 43.4234 77.7243 43.6838C77.2084 44.2195 76.9213 44.935 76.9239 45.6787V45.6984C76.9216 46.072 76.9942 46.4422 77.1373 46.7874C77.273 47.1222 77.4741 47.4266 77.7287 47.6829C77.9833 47.9393 78.2864 48.1423 78.6203 48.2803C78.9775 48.431 79.3618 48.507 79.7494 48.5035C80.289 48.5035 80.7278 48.4105 81.0657 48.2247C81.403 48.0385 81.7069 47.7976 81.9651 47.5117L81.0657 46.6001C80.8927 46.7632 80.7002 46.9043 80.4926 47.0204Z" fill="#556566"/>
<path d="M41.7555 44.136H0.212891V45.3566H41.7555V44.136Z" fill="#556566"/>
</svg>
