<svg width="73" height="49" viewBox="0 0 73 49" fill="none" xmlns="http://www.w3.org/2000/svg">
<path d="M4.15843 0.59555C4.36823 0.581269 4.57877 0.581269 4.78858 0.59555C4.78858 0.678646 4.73317 0.734037 4.84397 0.761736C5.23389 1.01154 5.54769 1.36366 5.75111 1.77967C5.83421 2.47214 5.66801 3.1023 5.69571 3.76015C5.59404 4.05165 5.57487 4.36557 5.64031 4.66728C5.55171 5.08397 5.50531 5.50851 5.50182 5.93449C5.46067 6.10517 5.46067 6.28317 5.50182 6.45385C5.33563 7.06322 5.41872 7.69337 5.20406 8.27505C5.20406 8.54511 5.03786 8.82209 5.14866 9.07138C5.09635 9.35308 5.05936 9.63742 5.03786 9.92313C6.08349 9.92313 7.11528 9.70154 8.17476 9.61844C8.23918 9.62744 8.30483 9.62037 8.36587 9.59788C8.42691 9.57538 8.48144 9.53817 8.52462 9.48951C8.56779 9.44086 8.59827 9.38227 8.61334 9.31899C8.62842 9.25571 8.62762 9.18969 8.61101 9.12679C8.66641 8.65591 8.61101 8.19196 8.66641 7.74185C8.73468 7.34172 8.76251 6.93573 8.7495 6.53003C8.87023 6.22308 8.93587 5.89723 8.9434 5.56748C8.9434 4.27256 9.27578 2.98458 9.24808 1.66196C9.27196 1.31408 9.39446 0.98019 9.60125 0.699416C9.60125 0.699416 9.51815 0.644022 9.49045 0.616323H10.8754C10.8754 0.948709 11.2909 0.921018 11.4848 0.948716C11.8656 0.948716 11.9764 1.44036 12.3088 1.60655C12.5281 2.20534 12.6383 2.83857 12.6343 3.47623C12.5807 3.86862 12.5552 4.26433 12.5581 4.66035C12.577 5.02355 12.53 5.38718 12.4196 5.73369C12.4866 5.9635 12.4669 6.20993 12.3642 6.42616C12.3642 6.70315 12.3642 7.00783 12.3642 7.28482C12.3971 7.47461 12.3576 7.66985 12.2534 7.83188C12.1426 8.93291 12.1703 10.0339 12.0595 11.135C11.9764 11.7651 12.0595 12.4299 11.9764 13.0323C12.1149 13.7248 11.9764 14.4934 12.1426 15.179C12.1426 15.3452 12.0595 15.4837 12.0595 15.6499C12.1426 16.6401 12.0595 17.658 12.1149 18.676C12.1781 18.8997 12.1959 19.1337 12.1674 19.3644C12.1388 19.5951 12.0645 19.8178 11.9487 20.0193C11.5886 19.8324 11.644 20.2963 11.4017 20.2963C11.0739 20.4215 10.7115 20.4215 10.3837 20.2963C10.079 20.2963 9.91286 19.9916 9.58047 20.047C9.49738 19.8324 9.4489 19.5554 9.19961 19.4446C9.00144 19.2978 8.848 19.0988 8.75643 18.8699C8.56254 17.4849 8.75643 16.1 8.61794 14.715C8.67334 13.6971 8.45867 12.6999 8.53484 11.682C7.98779 11.6058 7.43381 11.7928 6.91446 11.682C6.27922 11.7973 5.63021 11.816 4.98939 11.7374C4.87881 11.9101 4.83 12.1151 4.8509 12.3191C4.70503 13.285 4.61256 14.2583 4.57391 15.2344C4.49081 15.5391 4.65701 15.8645 4.46311 16.1415C4.57391 16.5016 4.40771 16.8825 4.51851 17.2425C4.35231 18.1497 4.51851 19.0845 4.43541 20.0124C4.24845 20.1786 4.27614 20.4556 4.05455 20.6218C3.63907 20.5387 3.30669 21.0096 2.89813 20.8157C2.53804 20.8157 2.28876 20.5387 1.96329 20.4833C1.7971 20.2617 1.52011 20.1232 1.38162 19.8809C1.24312 19.6385 0.862266 19.3823 0.973061 19.0222C0.973061 17.4018 0.973059 15.7814 1.08385 14.1749C1.10965 13.3188 1.19061 12.4653 1.32622 11.6197C1.32622 10.5741 1.54781 9.54228 1.54781 8.4828C1.54781 7.42332 1.9356 6.5785 1.96329 5.61596C2.15719 4.23102 2.31645 2.84608 2.39955 1.46114C2.44312 1.18989 2.53707 0.929198 2.67654 0.692506C2.8072 0.685745 2.93699 0.667192 3.06432 0.637096C3.42767 0.598613 3.7932 0.584733 4.15843 0.59555Z" fill="#07544F"/>
<path d="M15.279 19.3337C15.1861 19.2039 15.0624 19.0992 14.9189 19.029C14.6321 18.504 14.3755 17.963 14.1503 17.4087C14.0118 17.0763 14.0949 16.7162 13.901 16.363C13.7441 15.2594 13.7255 14.1405 13.8456 13.0322C13.9794 12.6329 14.045 12.2139 14.0395 11.7927C14.2888 11.6819 14.1226 11.3011 14.2611 11.1003C14.389 10.9447 14.4555 10.7476 14.448 10.5463C14.5303 10.3707 14.5952 10.1874 14.6419 9.99921C14.7527 9.69452 15.002 9.42448 15.002 9.06439C15.3802 8.35578 15.823 7.68352 16.3246 7.05621C16.4562 6.83462 16.8163 6.77922 16.8163 6.47454C17.2843 6.34368 17.7647 6.26246 18.2497 6.23219C18.3302 6.19143 18.4192 6.17017 18.5094 6.17017C18.5996 6.17017 18.6886 6.19143 18.7691 6.23219C19.0474 6.35455 19.3451 6.4272 19.6485 6.44685C19.6485 6.66844 19.8424 6.72384 20.0086 6.83464C20.2127 6.93233 20.3925 7.07426 20.5349 7.25012C20.6387 7.88027 21.2273 8.35114 21.165 9.00898C21.2204 9.25827 20.8603 9.39676 20.9988 9.61143C21.1373 9.8261 20.888 9.83302 20.8326 9.91612C20.9157 10.3316 20.5903 10.574 20.341 10.8233C19.6024 11.3549 18.7388 11.6865 17.8342 11.7858C17.5849 11.7858 17.5572 12.0905 17.4534 12.2567C17.121 12.5821 17.1764 13.1084 17.0379 13.5239C16.8994 13.9394 16.844 14.5695 16.6778 15.0612C16.6493 15.658 16.6772 16.2562 16.7609 16.8478C16.7606 17.3167 16.8952 17.7758 17.1487 18.1704C17.3703 18.4751 17.7511 18.5305 17.9727 18.7798C18.222 18.8352 18.5475 19.0775 18.7137 18.7798C18.88 18.6207 19.0812 18.5029 19.3013 18.4355C19.5213 18.3682 19.754 18.3533 19.9809 18.392C20.1413 18.5487 20.2663 18.7379 20.3475 18.9469C20.4287 19.1559 20.4643 19.3799 20.4518 19.6038C20.2616 19.7915 20.0579 19.9651 19.8424 20.1231L19.7039 20.2339C19.6447 20.2612 19.5908 20.2987 19.5446 20.3447C19.3135 20.3968 19.0721 20.3775 18.8522 20.2893C18.7414 20.4278 18.8522 20.7602 18.4436 20.5663C18.3051 20.5663 18.222 20.7048 18.1112 20.7325C17.6935 20.6342 17.2703 20.5602 16.844 20.5109C16.5393 20.0954 15.9646 20.04 15.6599 19.6592C15.6231 19.581 15.5701 19.5116 15.5044 19.4555C15.4388 19.3994 15.3619 19.3579 15.279 19.3337ZM18.3605 10.2C18.7137 10.2 18.9076 9.86765 19.1568 9.70145C19.3633 9.41443 19.5051 9.08605 19.5723 8.73893C19.5723 8.54504 19.6762 8.30266 19.4892 8.24726C19.323 8.68352 19.0183 9.01592 18.7968 9.4314C18.5844 9.64333 18.4336 9.90901 18.3605 10.2Z" fill="#07544F"/>
<path d="M31.7594 13.9949C31.7403 14.4636 31.666 14.9285 31.5378 15.3798C31.4547 15.7607 31.5378 16.2038 31.2885 16.5639C31.15 16.9171 31.2885 17.3326 31.15 17.7204C30.9561 17.9904 31.15 18.4128 30.9561 18.6829C30.7692 18.8214 31.0946 19.1746 30.8246 19.2576C30.5545 19.3407 30.603 19.6731 30.8246 19.7285C30.7692 19.7285 30.6861 19.7285 30.6307 19.7839C30.5043 19.9676 30.3184 20.1021 30.1044 20.1648C29.6942 20.2344 29.2751 20.2344 28.8649 20.1648C28.6517 20.3384 28.4194 20.4871 28.1724 20.608C27.1382 20.7173 26.0927 20.5846 25.1186 20.2202C24.8693 19.9986 24.5439 19.9432 24.2946 19.7562C24.2946 19.7562 24.2392 19.7562 24.2115 19.7008C24.1618 19.6795 24.1152 19.6515 24.073 19.6177C24.073 19.4238 23.8237 19.3961 23.7406 19.2576C23.1115 18.5915 22.6842 17.7608 22.508 16.8617C22.3695 16.4808 22.508 16.0654 22.3418 15.6845C22.4526 15.1859 22.5911 14.715 22.695 14.2234C22.9442 14.0018 22.9719 13.6486 23.2212 13.3993C23.235 13.2476 23.2928 13.1032 23.3874 12.9839C23.6852 12.79 23.8237 12.4091 24.1284 12.1875C24.4331 11.9659 24.6823 11.9105 24.8208 11.6335C25.2341 11.2548 25.7769 11.0491 26.3374 11.0588C27.0625 10.9602 27.8008 11.046 28.484 11.3081C28.761 11.2527 28.5671 10.7541 28.6779 10.6156C28.6779 10.1793 28.5671 9.76388 28.5394 9.32762C28.4286 9.05063 28.207 8.69054 27.8469 8.80134C27.5769 8.80134 27.4661 9.18912 27.1545 9.10603C27.0603 9.12207 26.9705 9.15741 26.8906 9.20985C26.8108 9.26228 26.7426 9.33067 26.6905 9.41071C26.4092 9.61756 26.0702 9.73135 25.7211 9.73618C25.2258 9.70406 24.7544 9.51209 24.3777 9.18912C24.1284 8.91213 23.8514 8.63513 23.609 8.33737C23.4982 8.03268 23.8237 7.86649 23.9622 7.6449C24.0443 7.4259 24.1887 7.23575 24.3777 7.09786C24.5705 7.0531 24.7551 6.97832 24.9247 6.87627C25.373 6.68984 25.8395 6.55059 26.3166 6.46078C26.3166 6.37769 26.4551 6.34999 26.5382 6.32921C26.6213 6.30844 26.8359 6.32922 26.8636 6.48849C27.0852 6.57158 26.8636 5.99682 27.3068 6.34998C27.5838 6.43308 27.9993 6.19072 28.1586 6.54388C28.5109 6.61024 28.8415 6.76247 29.1211 6.98707C29.3427 7.00383 29.5501 7.10258 29.7028 7.26405C29.9174 7.50642 30.3329 7.56181 30.4437 7.95652C31.0676 8.56866 31.4655 9.37421 31.5724 10.2417C31.9016 11.4651 31.9654 12.7448 31.7594 13.9949ZM28.3732 13.3024C28.3732 13.1362 28.207 13.1639 28.1239 13.2193C27.7203 13.3306 27.345 13.5265 27.0229 13.794C26.9675 14.1264 26.5589 14.1818 26.3304 14.4034C25.915 14.9074 25.5638 15.461 25.2848 16.0515C25.0078 16.4947 25.2017 17.014 25.2294 17.4849C25.2294 18.0874 25.9219 18.3644 26.4135 18.4752C26.6455 18.3469 26.8952 18.2535 27.1545 18.1982C27.3207 18.1428 27.5146 18.1982 27.6253 18.0597C27.7238 17.6259 27.7955 17.1865 27.84 16.744C28.0893 15.8576 28.0893 14.9505 28.2832 14.0987C28.207 13.801 28.5117 13.5863 28.394 13.3093L28.3732 13.3024Z" fill="#07544F"/>
<path d="M35.3882 0.623304C35.9907 0.567907 36.3785 1.09418 36.877 1.31578C37.1471 1.64816 37.5072 2.00823 37.4795 2.47219C37.3687 3.05386 37.5903 3.65632 37.3133 4.2103C37.3687 4.81275 37.1748 5.38749 37.2579 5.99686C37.0932 6.43153 36.9838 6.88521 36.9324 7.34719C36.9103 8.10042 36.8456 8.8518 36.7386 9.59772C36.5724 10.0132 36.6831 10.4564 36.5447 10.8649C36.4062 11.2735 36.6278 11.8552 36.3785 12.2499C36.2677 12.4161 36.5724 12.5269 36.4339 12.6584C36.2123 13.2955 36.4893 14.0434 36.2677 14.6943C36.3227 15.5398 36.2949 16.3887 36.1846 17.2287C36.24 17.9974 36.2677 18.773 36.3508 19.5139C36.2677 19.7909 36.3508 20.061 36.2677 20.3102C36.0184 20.3102 35.8314 20.5041 35.6375 20.6426C35.2497 20.5318 34.7304 20.6426 34.4257 20.3379C34.3149 20.3379 34.121 20.3379 34.0102 20.3379C33.8717 19.9779 33.6294 19.6455 33.4909 19.2923C33.4078 19.0984 33.4909 18.8284 33.297 18.6899C33.1031 18.5514 33.2139 18.3575 33.1862 18.1913C32.8053 15.5253 33.1308 12.8246 33.1862 10.1586C33.2468 9.34611 33.3485 8.53719 33.4909 7.73497C33.4494 7.54563 33.4494 7.34957 33.4909 7.16023C33.6017 6.38466 33.6571 5.61602 33.7679 4.84738C33.8511 4.39032 33.8951 3.92699 33.8994 3.46244C33.9843 3.09114 34.0399 2.71373 34.0656 2.33371C34.0656 2.03595 34.3149 1.73126 34.2041 1.42657C34.0933 1.12189 34.4257 0.851811 34.2041 0.657919C34.3082 0.640579 34.4047 0.592338 34.4811 0.519438C34.786 0.441471 35.1089 0.478441 35.3882 0.623304Z" fill="#07544F"/>
<path d="M47.6588 8.53814C47.2988 8.67663 47.0841 8.37886 46.7517 8.37886C46.1492 8.37886 45.5399 8.24037 44.9374 8.21268C44.6604 8.56584 44.882 9.0921 44.7158 9.47989C44.6816 10.0284 44.5888 10.5716 44.4388 11.1003C44.4292 11.7463 44.3643 12.3904 44.245 13.0254C44.058 14.0156 44.1896 15.0058 44.0857 15.996C43.9749 16.273 44.1619 16.5223 44.1342 16.7716C44.1266 17.0584 44.1934 17.3423 44.328 17.5956C44.3566 17.8717 44.4315 18.1409 44.5496 18.392C44.7063 18.3774 44.8639 18.3774 45.0205 18.392C45.1798 18.6967 45.5953 18.5582 45.8723 18.669C46.1493 18.7798 46.3916 18.9668 46.5647 19.216C46.5708 19.4352 46.6178 19.6512 46.7032 19.8531C46.5924 20.1232 46.26 20.234 46.0108 20.4556C45.5873 20.5713 45.1537 20.6456 44.7158 20.6771C44.4388 20.6771 44.2173 20.4279 43.9472 20.4556C43.6447 20.4033 43.3702 20.2465 43.1716 20.0124C43.0885 19.8254 42.7631 19.957 42.7077 19.7423C42.5475 19.5494 42.3364 19.4054 42.0983 19.3268C41.9649 19.1439 41.8191 18.9704 41.662 18.8075C41.5711 18.4742 41.4506 18.1498 41.302 17.838C41.1358 17.5403 41.1912 17.1802 40.9696 16.8755C40.8247 16.0132 40.7621 15.139 40.7826 14.2649C40.8287 13.7885 40.8472 13.3099 40.838 12.8315C40.9696 11.8966 40.9973 10.9341 41.1081 9.99924C41.1912 9.47989 41.2466 8.92591 41.3297 8.39963C40.6995 8.12957 40.007 8.59354 39.4046 8.35118C39.1276 8.29578 38.9614 8.01878 38.8021 7.79719C38.8021 7.5202 38.4974 7.36093 38.6082 7.05624C38.5702 6.69967 38.6126 6.33911 38.7325 6.00114C38.8523 5.66316 39.0465 5.35642 39.3007 5.10349C39.6106 4.98823 39.9342 4.91374 40.2632 4.88189C40.651 4.88189 41.0042 4.79881 41.392 4.8265C41.4851 4.8302 41.5772 4.80575 41.6563 4.75634C41.7353 4.70694 41.7977 4.63485 41.8352 4.5495C41.8631 3.59246 41.9441 2.63769 42.0775 1.68959C42.0013 1.4957 42.0775 1.24643 42.0775 1.05946C42.1068 1.02902 42.1261 0.990371 42.1329 0.948665C42.1883 0.948665 42.216 0.948653 42.2437 0.893255C42.2877 0.869857 42.3342 0.851292 42.3822 0.837867C42.6093 0.767947 42.8406 0.712446 43.0747 0.671681C43.1208 0.66901 43.167 0.66901 43.2132 0.671681H43.4348C43.4902 0.671681 43.5456 0.754774 43.5733 0.754774C43.7268 0.728685 43.8837 0.728685 44.0372 0.754774L44.4527 0.837867C44.3419 1.08716 44.7851 1.14255 44.8959 1.32952C45.0067 1.51648 45.1382 1.7173 45.249 1.91119C45.3598 2.38023 45.3598 2.86863 45.249 3.33768C45.3598 3.75316 45.1659 4.14096 45.1936 4.52182C45.1783 4.55997 45.1722 4.60117 45.1757 4.64212C45.1792 4.68308 45.1922 4.72263 45.2138 4.75763C45.2353 4.79264 45.2648 4.82211 45.2997 4.84369C45.3347 4.86526 45.3743 4.87836 45.4152 4.88189C45.9138 4.96499 46.4055 4.96499 46.8763 5.07578C47.1256 5.18658 47.2018 5.45663 47.3957 5.65053C47.7941 6.08346 48.0376 6.6363 48.0882 7.22245C48.1077 7.45928 48.0798 7.69764 48.0061 7.92356C47.9324 8.14948 47.8143 8.35841 47.6588 8.53814Z" fill="#07544F"/>
<path d="M60.206 10.7194C59.9567 11.0518 60.206 11.5227 60.0398 11.9036C59.8952 12.243 59.8199 12.6079 59.8182 12.9769C59.8182 13.1985 59.5966 13.3924 59.6797 13.6694C59.6797 13.884 59.4651 14.0502 59.5482 14.2718C59.6313 14.4934 59.3266 14.715 59.4097 14.9643C59.3539 15.3734 59.2706 15.7782 59.1604 16.1761C59.1604 16.6747 58.7726 17.0556 58.8003 17.5264C58.6341 18.2189 58.364 18.9114 58.1701 19.6038C58.2809 20.0955 57.8378 20.2963 57.5331 20.5941C57.4015 20.7326 57.1799 20.5941 57.0691 20.7326C56.9583 20.871 56.709 20.7326 56.5428 20.6772C56.1538 20.5743 55.789 20.3955 55.4695 20.1509C54.9779 20.2894 55.2271 20.0678 55.2271 19.9085C55.0665 19.512 54.8815 19.1258 54.6732 18.7521C54.8298 17.867 55.0426 16.9927 55.3102 16.1346C55.6717 14.8397 55.9653 13.5268 56.1897 12.2013C56.3836 11.1557 56.4667 10.1239 56.7367 9.06444C56.6813 8.70435 56.986 8.15729 56.6259 7.8803C56.371 7.90547 56.1243 7.98455 55.9023 8.11229C55.6802 8.24003 55.4879 8.41352 55.3379 8.62125C54.6753 9.26459 54.2155 10.0879 54.0153 10.9895C53.9882 11.4928 53.8461 11.9831 53.5998 12.4229C52.9818 14.0594 52.6538 15.7911 52.6304 17.5403C52.5887 18.3638 52.5887 19.1889 52.6304 20.0124C52.6304 20.1509 52.4642 20.0124 52.4088 20.1509C52.2495 20.4556 51.8894 20.4279 51.6125 20.5664C51.4186 20.5664 51.2247 20.4279 51.0377 20.4002C50.7884 20.2063 50.4283 20.1786 50.1583 19.9847C50.0752 19.7146 49.7428 19.5207 49.7151 19.2161C49.6535 18.9889 49.5502 18.7752 49.4104 18.5859C49.2996 17.4295 49.3273 16.3008 49.3273 15.1236C49.3232 14.8267 49.3604 14.5307 49.4381 14.2441C49.355 13.3 49.3829 12.3495 49.5212 11.4119C49.4935 10.5453 49.5491 9.67803 49.6874 8.82207C49.7428 8.51738 49.6874 8.19193 49.8259 7.94264C49.8158 6.95712 49.89 5.97254 50.0475 4.99964C50.0338 4.6123 50.0616 4.2246 50.1306 3.8432C50.1306 2.90837 50.2898 1.97353 50.4006 1.07332C50.4837 0.783713 50.4837 0.476568 50.4006 0.186959L50.8161 0C51.2247 0 51.6125 0.0830838 52.0279 0.138481C52.4025 0.187225 52.7584 0.331219 53.0615 0.556715C53.3646 0.782212 53.6048 1.08169 53.7591 1.42649C53.7922 2.0266 53.755 2.62851 53.6483 3.21998C53.511 3.50215 53.4815 3.82471 53.5652 4.12712C53.6206 4.26561 53.4267 4.31408 53.4821 4.42488C53.5143 4.93307 53.477 5.44327 53.3713 5.94139C53.3656 5.95449 53.3627 5.96864 53.3627 5.98294C53.3627 5.99723 53.3656 6.01138 53.3713 6.02448C53.3713 6.02448 53.3159 6.02448 53.2952 6.02448C53.1764 6.96406 53.1116 7.90968 53.1013 8.85668C53.2951 8.85668 53.2398 8.5797 53.3713 8.4689C53.7054 8.11716 54.0025 7.73196 54.2577 7.3194C54.5469 7.23817 54.7945 7.05005 54.9502 6.79314C55.2213 6.64496 55.5067 6.52431 55.8019 6.43304C56.1066 6.43304 56.3005 6.07989 56.5982 6.16298C56.6543 6.19049 56.7159 6.20478 56.7783 6.20478C56.8407 6.20478 56.9023 6.19049 56.9583 6.16298C57.2022 6.21804 57.4554 6.21804 57.6993 6.16298C58.0041 6.22349 58.2998 6.32359 58.5787 6.46074C59.0496 6.59924 59.3543 7.01471 59.7628 7.3194C59.8272 7.52011 59.9308 7.70606 60.0675 7.86646C60.2207 8.37821 60.3319 8.90161 60.3999 9.43145C60.291 9.85293 60.226 10.2846 60.206 10.7194Z" fill="#07544F"/>
<path d="M72.7533 10.2001C72.5092 11.1359 72.3607 12.0941 72.3101 13.06C72.1686 14.1841 72.0762 15.314 72.0331 16.4462C72.0331 16.7716 71.8115 17.0486 71.8392 17.4087C71.9223 17.9003 71.8392 18.3989 71.8946 18.8906C71.95 19.1122 72.1716 19.5 71.8946 19.5831C71.95 19.9851 71.95 20.3928 71.8946 20.7949C71.8946 20.9819 72.0054 21.2034 71.8392 21.3696C71.8673 21.6806 71.8673 21.9935 71.8392 22.3045C71.8392 22.5538 71.5969 22.7753 71.7077 22.9969C71.7908 23.4886 71.3753 23.8764 71.3753 24.3819C71.2091 24.4373 71.2091 24.6312 71.0983 24.742C70.9804 24.9147 70.8784 25.0978 70.7936 25.289C70.4178 25.7223 69.9845 26.1021 69.5056 26.4177C69.5056 26.7224 69.0901 26.4731 68.8962 26.6393C68.7024 26.6393 68.6262 26.9717 68.4046 26.8609C68.183 26.7501 68.0999 26.9163 67.9614 26.8609C67.3867 26.8609 66.8604 26.5562 66.2856 26.5562H66.0086C65.9879 26.4992 65.949 26.4505 65.8978 26.4177C65.703 26.2803 65.4912 26.1686 65.2677 26.0854C65.129 25.8878 64.9609 25.7126 64.7691 25.566C64.4921 25.3721 64.4437 25.019 64.1944 24.7974C63.9451 24.5758 64.0005 24.3819 63.8066 24.2157C63.6591 23.9036 63.5654 23.5688 63.5296 23.2254C63.5385 22.9548 63.6358 22.6946 63.8066 22.4845C64.111 22.3132 64.4487 22.2093 64.7968 22.1798C64.9928 22.079 65.21 22.0264 65.4304 22.0264C65.6508 22.0264 65.868 22.079 66.064 22.1798C66.5072 22.0967 66.6942 22.5122 66.8604 22.8723C67.0266 23.2324 66.7219 23.4193 66.5626 23.6686C66.5202 23.841 66.5201 24.0211 66.5623 24.1935C66.6045 24.3659 66.6877 24.5256 66.805 24.6589C67.2205 24.7143 67.4421 24.2988 67.6636 24.0772C67.8836 23.7937 68.076 23.49 68.2384 23.1701C68.6098 22.0268 68.7671 20.8249 68.7024 19.6246C68.647 19.403 68.7854 19.1537 68.6262 18.9875C68.4335 19.0916 68.2564 19.2221 68.0999 19.3753C67.9891 19.6523 67.6359 19.5415 67.4074 19.68C67.1858 19.68 67.2412 20.0609 66.9088 19.8947C66.4768 19.9634 66.035 19.9374 65.6139 19.8185C65.0946 19.7631 64.6237 19.5692 64.1043 19.5138C64.1043 19.4584 63.9935 19.4307 63.9382 19.403H64.0212C63.9802 19.3387 63.9224 19.2867 63.8541 19.2525C63.7858 19.2184 63.7096 19.2034 63.6335 19.2091C62.8756 18.5409 62.2749 17.7132 61.8746 16.7855C61.8746 16.5708 61.6807 16.4046 61.6807 16.183C61.6807 15.9614 61.6807 15.5529 61.5976 15.2759C61.5145 14.9989 61.653 14.5834 61.5976 14.258C61.6246 13.2235 61.7358 12.1929 61.93 11.1765C62.1239 10.1308 62.1516 9.02981 62.4216 7.98418C62.4216 7.65179 62.5047 7.35402 62.5047 7.04934C62.5186 6.81322 62.5652 6.58017 62.6432 6.35687C62.754 6.28069 62.9202 6.28068 62.9756 6.16988C63.3634 6.11449 63.7166 6.16988 64.1043 6.16988C64.406 6.27451 64.7205 6.33742 65.0392 6.35687C65.0392 6.66155 65.427 6.66155 65.5585 6.85545C65.6901 7.04934 65.7801 7.02163 65.8632 7.13243C65.9749 7.34938 66.0498 7.58339 66.0848 7.8249C66.0017 8.39965 65.8909 8.98133 65.8355 9.55608C65.8341 9.85015 65.7777 10.1414 65.6693 10.4147C65.7524 11.3496 65.2608 12.2567 65.2608 13.1846C65.2298 13.559 65.1555 13.9285 65.0392 14.2856C65.1223 15.3036 64.9007 16.3215 65.15 17.3118C65.2254 17.5589 65.3685 17.7801 65.5631 17.9502C65.7577 18.1203 65.9959 18.2326 66.251 18.2743C66.3341 18.3574 66.5003 18.4128 66.5557 18.2743C66.874 18.2051 67.169 18.0545 67.4117 17.8372C67.6544 17.62 67.8367 17.3435 67.9406 17.0348C68.002 16.9228 68.0894 16.8272 68.1955 16.7561C68.3015 16.685 68.4231 16.6405 68.55 16.6262C68.5339 16.0734 68.5594 15.5202 68.6262 14.9712C68.6712 14.587 68.6712 14.1989 68.6262 13.8148C68.737 12.2775 69.0694 10.761 69.1801 9.22368C69.3186 8.8636 69.2632 8.44812 69.374 8.12266C69.5125 8.03956 69.374 7.90107 69.374 7.76258C69.465 7.47585 69.5299 7.1815 69.5679 6.88313C70.115 6.38455 70.8282 6.93854 71.4653 6.74465C71.5761 7.10473 72.0124 7.02164 72.2063 7.27093C72.3518 7.39501 72.5096 7.50405 72.6771 7.59639C72.7493 7.77734 72.8498 7.94562 72.9749 8.09495C73.0857 8.50351 72.781 8.89129 72.8087 9.30678C72.968 9.64609 72.5871 9.92308 72.7533 10.2001Z" fill="#07544F"/>
<path d="M20.2983 29.4509C20.603 29.8664 21.0947 30.3511 20.8592 30.9189C20.603 31.099 20.3191 31.1751 20.0629 31.3829C19.9382 31.3829 19.779 31.3275 19.6266 31.3275C19.2181 31.5075 19.4189 31.279 19.3981 31.1266C19.2665 31.1751 19.1904 31.279 19.0865 31.3067C17.9785 31.4313 16.8706 31.3067 15.7903 31.4867C15.5341 31.6114 15.2779 31.4867 15.0217 31.5629C14.8901 31.6875 15.0217 31.8676 15.0217 32.0476C14.994 32.3818 14.994 32.7176 15.0217 33.0517C14.9289 33.2822 14.9025 33.5341 14.9455 33.7788C14.9116 33.8416 14.8938 33.9118 14.8938 33.9831C14.8938 34.0544 14.9116 34.1246 14.9455 34.1874C15.0217 34.3189 15.1533 34.1874 15.2779 34.1874C16.5382 34.1874 17.7985 33.855 19.038 34.1874C19.3427 34.2635 19.5228 34.6236 19.8828 34.5197C20.0421 34.5197 19.7859 34.5752 19.8344 34.6236C19.9552 34.8389 20.0917 35.0448 20.2429 35.2399C20.2429 35.6 19.9105 35.8077 19.7028 36.064C19.0103 36.3202 18.214 36.0155 17.4938 36.1955C17.2376 36.3202 16.926 36.1955 16.6421 36.2717C16.1839 36.4485 15.6894 36.5103 15.2017 36.4517C15.0779 36.3745 14.9294 36.3473 14.7863 36.3756C14.5577 36.7841 14.8901 37.2273 14.7378 37.6636C14.6339 38.356 14.7863 39.1316 14.6339 39.8518C14.4816 40.1565 14.6339 40.5442 14.4539 40.8005C14.4501 41.2418 14.4084 41.682 14.3292 42.1161C14.2738 43.0441 14.2738 43.9928 14.3292 44.9207C14.3292 45.0453 14.1977 45.1007 14.2254 45.2254C14.3327 45.6788 14.3585 46.1478 14.3015 46.6103C14.3292 46.8681 14.3292 47.1281 14.3015 47.3859C14.0811 47.5639 13.8498 47.7281 13.6091 47.8775C13.3708 47.8401 13.1269 47.884 12.9166 48.0021C12.7404 47.9386 12.5599 47.8877 12.3765 47.8498C12.24 47.7366 12.069 47.6731 11.8917 47.6698C11.6792 47.3627 11.448 47.0689 11.1993 46.7903C11.1471 46.3904 11.1471 45.9854 11.1993 45.5854C11.1439 44.1659 11.1993 42.7809 11.1993 41.3614C11.2754 40.6135 11.3031 39.8449 11.407 39.097C11.407 37.8367 11.5593 36.5764 11.5316 35.3161C11.6632 34.8244 11.587 34.312 11.6909 33.7996C11.7879 32.4839 11.871 31.1474 11.871 29.804C12.2454 29.7876 12.6159 29.7201 12.972 29.6032C13.3321 29.4717 13.7476 29.5478 14.1076 29.4232C14.1762 29.4097 14.2468 29.4097 14.3154 29.4232C14.8763 29.4716 15.4164 29.2154 15.9842 29.2708C16.2681 29.2154 16.5521 29.347 16.836 29.2708C17.4523 29.2708 18.0686 29.1392 18.6849 29.1946C18.8736 29.2154 19.064 29.2154 19.2527 29.1946C19.4431 29.2853 19.6428 29.355 19.8482 29.4024C19.9928 29.4517 20.1466 29.4682 20.2983 29.4509Z" fill="#FFBA0A"/>
<path d="M25.0569 29.3123C25.2448 29.2293 25.4493 29.1905 25.6546 29.1989C25.8599 29.2073 26.0605 29.2627 26.241 29.3608C27.0373 29.153 26.3726 29.3607 26.4764 29.4369C26.5803 29.5131 26.8365 29.8247 27.0927 29.6447C27.6809 29.475 28.305 29.475 28.8932 29.6447C29.534 29.7049 30.1339 29.9865 30.5897 30.441C30.9775 30.6003 31.1852 30.9811 31.5453 31.1889C31.6977 31.4451 31.7531 31.7567 32.0093 31.9644C32.1664 32.2491 32.3471 32.5201 32.5494 32.7746C32.8907 33.4175 33.0914 34.1257 33.138 34.852C33.138 35.316 33.4496 35.8353 33.2904 36.2924C33.2904 36.3962 33.3942 36.4793 33.3942 36.5763C33.3326 37.0359 33.3326 37.5016 33.3942 37.9612C33.4981 38.349 33.2973 38.7091 33.3457 39.0969C33.3942 39.4847 33.1657 39.7132 33.2142 40.0733V41.0843C33.1596 41.1565 33.124 41.2412 33.1107 41.3308C33.0973 41.4203 33.1067 41.5117 33.138 41.5967C33.0134 41.8321 33.138 42.0607 33.0341 42.2892C33.0301 42.6816 32.9428 43.0687 32.7779 43.4248C32.8818 43.8057 32.5217 44.1173 32.6533 44.4774C32.56 44.5923 32.4895 44.7239 32.4455 44.8652C32.3132 45.3931 32.0957 45.896 31.8015 46.354C31.573 46.534 31.5453 46.9495 31.1852 46.9218C31.0052 46.9218 30.9498 47.1503 30.8736 47.2819C30.6451 47.4342 30.3335 47.4619 30.1258 47.642C29.5856 47.7943 29.0455 48.0021 28.5054 48.1059C27.9285 48.1385 27.3499 48.1036 26.7811 48.0021C26.5047 47.9132 26.2224 47.8438 25.9363 47.7943C25.8324 47.4619 25.3685 47.5381 25.2438 47.2542C24.9045 46.8733 24.3921 46.7141 24.0597 46.3055C23.6435 45.9195 23.3172 45.4467 23.1041 44.9206C22.8861 44.4705 22.73 43.993 22.6402 43.501C22.4025 42.5739 22.2404 41.629 22.1554 40.6757C21.9895 39.7317 21.9546 38.7694 22.0515 37.8158C22.0515 37.1233 22.1762 36.4309 22.1762 35.7384C22.2724 35.2975 22.3418 34.8512 22.3839 34.4019C22.5101 33.9499 22.5868 33.4856 22.6125 33.017C22.8756 32.3938 23.0279 31.7498 23.2565 31.1127C23.3797 30.9497 23.4691 30.7637 23.5196 30.5656C23.7101 30.3624 23.8646 30.1282 23.9766 29.8732C24.2398 29.6931 24.5444 29.5685 24.8007 29.3608C24.8768 29.3123 24.9322 29.3123 25.0569 29.3123ZM25.8532 33.7095C25.8438 33.9417 25.8624 34.1742 25.9086 34.4019C25.7286 34.582 25.777 34.8451 25.7563 35.0459C25.5762 35.3091 25.6524 35.6138 25.597 35.9254C25.6732 36.05 25.7286 36.2301 25.5485 36.3062C25.4207 37.1423 25.3858 37.99 25.4447 38.8337C25.2369 39.5816 25.5208 40.3226 25.5485 41.0981C25.5762 41.8737 25.9571 42.7947 25.9848 43.6949C26.1925 44.0273 26.3172 44.3874 26.4972 44.7751C26.6011 44.9344 26.5526 45.1629 26.7327 45.2391C27.1204 45.3707 27.2174 45.8346 27.5567 46.0354C27.6813 46.1947 27.8614 46.0354 27.9929 46.0354C28.1921 46.046 28.3916 46.0202 28.5815 45.9593C29.1105 45.3324 29.4662 44.578 29.6133 43.7711C29.7934 43.2794 29.7934 42.767 29.9457 42.303C29.9964 41.9613 30.0241 41.6166 30.0288 41.2712C30.117 40.8565 30.168 40.4348 30.1812 40.011C30.2837 39.1654 30.3345 38.3144 30.3335 37.4626C30.3689 36.9314 30.3526 36.3981 30.285 35.87C30.2089 35.5584 30.2296 35.1775 30.1535 34.8659C30.0288 34.762 30.2573 34.3742 30.0011 34.3742C30.0011 34.1457 30.0011 33.8341 29.8211 33.6818C29.8211 33.2386 29.4056 32.9893 29.2255 32.6223C29.0807 32.3497 28.9091 32.0922 28.7131 31.8537C28.4015 31.7221 28.2769 31.2373 27.8614 31.4382C27.5567 31.6736 27.5013 31.3897 27.4251 31.2096C27.1895 31.3131 26.9345 31.365 26.6773 31.362C26.3433 32.1271 26.0678 32.9165 25.8532 33.7233V33.7095Z" fill="#FFBA0A"/>
<path d="M37.5699 29.3123C37.7578 29.2293 37.9623 29.1905 38.1676 29.1989C38.3728 29.2073 38.5735 29.2627 38.754 29.3608C39.5503 29.153 38.8786 29.3607 38.9825 29.4369C39.0864 29.5131 39.3426 29.8247 39.5988 29.6447C40.187 29.475 40.8111 29.475 41.3992 29.6447C42.0425 29.7034 42.6451 29.985 43.1027 30.441C43.4836 30.6003 43.6913 30.9811 44.0514 31.1889C44.2107 31.4451 44.2591 31.7567 44.5154 31.9644C44.6806 32.2549 44.8706 32.5306 45.0832 32.7885C45.4245 33.4314 45.6251 34.1395 45.6718 34.8659C45.6718 35.3298 45.9834 35.8492 45.831 36.3062C45.831 36.4101 45.928 36.4932 45.928 36.5901C45.8629 37.0495 45.8629 37.5157 45.928 37.9751C46.0319 38.3629 45.8241 38.7229 45.8726 39.1107C45.9211 39.4985 45.6925 39.727 45.7479 40.0871V41.0843C45.6902 41.1549 45.6526 41.2398 45.6392 41.33C45.6258 41.4202 45.6371 41.5124 45.6718 41.5967C45.5402 41.8321 45.6718 42.0607 45.5679 42.2892C45.5577 42.6808 45.4706 43.0667 45.3117 43.4248C45.4086 43.8057 45.0486 44.1173 45.1801 44.4774C45.0868 44.5923 45.0163 44.7239 44.9724 44.8652C44.8401 45.3931 44.6225 45.896 44.3284 46.354C44.0999 46.534 44.0722 46.9495 43.7121 46.9218C43.532 46.9218 43.4836 47.1503 43.4074 47.2819C43.172 47.4342 42.8673 47.4619 42.6595 47.642C42.1194 47.7943 41.5793 48.0021 41.0391 48.1059C40.4623 48.1387 39.8836 48.1038 39.3149 48.0021C39.0361 47.9133 38.7515 47.8439 38.4632 47.7943C38.3593 47.4619 37.8953 47.5381 37.7707 47.2542C37.4383 46.8733 36.9189 46.7141 36.5866 46.3055C36.1725 45.9176 35.8466 45.4453 35.631 44.9206C35.4129 44.4705 35.2569 43.993 35.167 43.501C34.9294 42.5739 34.7673 41.629 34.6823 40.6757C34.5199 39.7314 34.485 38.7695 34.5784 37.8158C34.5784 37.1233 34.71 36.4309 34.71 35.7384C34.8006 35.2968 34.8676 34.8507 34.9108 34.4019C35.0393 33.9502 35.1182 33.4858 35.1462 33.017C35.4024 32.3938 35.5548 31.7498 35.7902 31.1127C35.9086 30.9477 35.9955 30.7622 36.0464 30.5656C36.2391 30.3627 36.3959 30.1285 36.5104 29.8732C36.7666 29.6931 37.0782 29.5685 37.3344 29.3608C37.3968 29.3123 37.466 29.3123 37.5699 29.3123ZM38.3662 33.7095C38.358 33.9414 38.3742 34.1735 38.4147 34.4019C38.2346 34.582 38.29 34.8451 38.2623 35.0459C38.0823 35.3091 38.1585 35.6138 38.11 35.9254C38.1862 36.05 38.2346 36.2301 38.0546 36.3062C37.9337 37.143 37.8989 37.9899 37.9507 38.8337C37.7499 39.5816 38.0269 40.3226 38.0546 41.0981C38.0823 41.8737 38.4701 42.7947 38.4909 43.6949C38.6986 44.0273 38.8302 44.3874 39.0102 44.7751C39.1141 44.9344 39.0587 45.1629 39.2387 45.2391C39.6265 45.3707 39.7304 45.8346 40.0628 46.0354C40.1943 46.1947 40.3744 46.0354 40.499 46.0354C40.7005 46.0461 40.9022 46.0203 41.0945 45.9593C41.6188 45.3302 41.9718 44.5765 42.1194 43.7711C42.2994 43.2794 42.2994 42.767 42.4587 42.303C42.5072 41.9612 42.5326 41.6165 42.5349 41.2712C42.6231 40.8565 42.6741 40.4348 42.6872 40.011C42.7886 39.1652 42.8417 38.3144 42.8465 37.4626C42.876 36.9312 42.8575 36.3981 42.7911 35.87C42.7149 35.5584 42.7426 35.1775 42.6595 34.8659C42.5349 34.762 42.7634 34.3742 42.5072 34.3742C42.5072 34.1457 42.5072 33.8341 42.3271 33.6818C42.3271 33.2386 41.9186 32.9893 41.7385 32.6223C41.5888 32.351 41.415 32.0938 41.2192 31.8537C40.9145 31.7221 40.7829 31.2373 40.3744 31.4382C39.9658 31.639 40.0143 31.3897 39.9381 31.2096C39.7021 31.3117 39.4474 31.3636 39.1902 31.362C38.8502 32.1247 38.5746 32.9146 38.3662 33.7233V33.7095Z" fill="#FFBA0A"/>
<path d="M58.3373 37.9474C58.2889 38.1759 58.3858 38.4114 58.2335 38.6399C58.1088 39.3878 58.2335 40.1841 57.8249 40.8558C57.7695 41.3405 57.541 41.7837 57.4856 42.2407C57.4007 42.3645 57.3396 42.5031 57.3056 42.6493C57.1532 42.7809 57.1532 42.9817 57.077 43.1617C57.0009 43.3418 56.8693 43.5772 56.7447 43.7849C56.3569 44.0896 56.1768 44.5813 55.7614 44.8652C55.6367 45.2253 55.2489 45.3499 55.0204 45.6615C54.785 45.8139 54.5772 46.0216 54.3279 46.174C54.0804 46.2525 53.8691 46.4171 53.7324 46.6379C53.6562 46.7695 53.2962 46.7141 53.3516 46.9218C52.972 47.1127 52.5756 47.268 52.1674 47.3858C51.8558 47.462 51.6273 47.7182 51.3157 47.7944C51.0041 47.8705 50.464 48.3899 50 48.0783C49.6953 48.1337 49.7438 47.5935 49.3837 47.8221C49.0998 47.8221 48.7397 48.0298 48.5112 47.8221C48.3311 47.7736 48.1234 47.7736 47.9711 47.7182C47.6883 47.4681 47.4371 47.1844 47.2232 46.8734C47.3755 46.5894 46.7869 46.7418 47.0431 46.3817C46.9662 45.449 46.9408 44.5127 46.967 43.5772C46.9362 42.9783 46.9969 42.3782 47.147 41.7976C47.0847 40.9423 47.0847 40.0837 47.147 39.2285C47.2125 38.8367 47.2541 38.4412 47.2717 38.0444C47.4506 37.1793 47.5641 36.302 47.611 35.4199C47.5785 35.0155 47.5948 34.6086 47.6595 34.2081C47.6595 33.4117 47.8395 32.6362 47.9157 31.8398C48.0201 31.306 48.0734 30.7634 48.0749 30.2194C48.1788 30.164 48.3034 30.1433 48.3311 30.0117C48.435 30.0117 48.5389 30.0117 48.6358 30.0117C48.7328 30.0117 48.7397 29.9355 48.7674 29.8871H49.0236C49.364 29.7291 49.7298 29.633 50.1039 29.6032C50.2354 29.6032 50.3116 29.4993 50.4155 29.4716C50.7726 29.4118 51.1337 29.3794 51.4957 29.3746C51.7796 29.2708 52.0636 29.4231 52.3475 29.3746C52.7821 29.4435 53.2122 29.5383 53.6355 29.6585C53.8917 29.7832 54.1964 29.7832 54.4041 29.9632C54.4142 29.9874 54.4317 30.0078 54.4541 30.0215C54.4765 30.0352 54.5026 30.0414 54.5288 30.0394H54.7365C54.7431 30.0949 54.7595 30.1489 54.785 30.1987C55.4082 30.2748 55.7683 30.8911 56.2322 31.2028C56.433 31.5836 56.8485 31.8191 56.9732 32.2553C57.2354 32.6838 57.4668 33.1304 57.6657 33.5918C57.791 34.1149 57.9459 34.6305 58.1296 35.136C58.1296 35.136 58.1296 35.1914 58.1296 35.2122C57.9496 35.316 58.0534 35.6484 58.2127 35.8077C58.183 36.204 58.2086 36.6026 58.2889 36.9918C58.2612 37.248 58.4135 37.622 58.3373 37.9474ZM55.8929 35.2399C55.8929 35.1914 55.8929 35.1152 55.8929 35.0598C55.9101 35.0439 55.9239 35.0246 55.9334 35.0032C55.9429 34.9817 55.948 34.9586 55.9483 34.9352C55.8516 34.4383 55.6958 33.9548 55.4844 33.4948C55.5605 33.3148 55.429 33.2109 55.3251 33.0794C55.1807 32.7978 55.0091 32.5311 54.8127 32.283C54.6049 32.1307 54.3002 32.1791 54.1202 32.0476C53.9402 31.916 53.4277 31.9991 53.1438 31.9229C52.9154 31.8819 52.6834 31.8634 52.4513 31.8675C52.0913 32.1514 51.5511 32.0268 51.2188 32.3592C50.9071 32.5669 51.0387 32.9755 50.9625 33.2871C50.8367 33.8294 50.751 34.3802 50.7063 34.9352C50.6882 34.9617 50.6784 34.9931 50.6784 35.0252C50.6784 35.0573 50.6882 35.0887 50.7063 35.1152C50.5263 35.5999 50.7063 36.1193 50.5263 36.5833C50.734 36.7841 50.5263 37.068 50.6094 37.2757C50.5055 37.8158 50.4224 38.356 50.2978 38.8961C50.3739 39.0761 50.2424 39.2285 50.2424 39.4085C50.3255 39.7963 50.09 40.101 50.1662 40.5165C50.2424 40.932 50.1177 41.3405 50.1662 41.7283C50.093 41.8033 50.0521 41.904 50.0521 42.0088C50.0521 42.1135 50.093 42.2142 50.1662 42.2892C50.2424 42.4208 50.0415 42.497 50.0623 42.6008C50.1662 42.8293 50.0138 43.0648 50.0138 43.2933C50.0623 43.8611 50.0138 44.4289 50.0138 45.0175C50.2424 45.0175 50.4224 44.8167 50.6301 44.789C50.8379 44.7613 50.9902 44.5605 51.198 44.4774C51.6562 44.2395 52.0726 43.9285 52.4306 43.5564C52.6058 43.4748 52.758 43.3511 52.8738 43.1963C53.3815 42.7832 53.8455 42.3191 54.2587 41.8114C54.4664 41.4513 54.8265 41.1951 54.9512 40.7796C55.1312 40.5511 55.1035 40.191 55.2836 39.9348C55.4636 39.6786 55.3597 39.5193 55.4636 39.3185C55.6702 38.7046 55.8253 38.0746 55.9275 37.435C56.0416 36.7067 56.0299 35.9642 55.8929 35.2399Z" fill="#FFBA0A"/>
<path d="M70.2116 38.0789C70.3777 36.5554 68.3627 36.2299 67.1508 36.2923C67.2482 35.9939 67.2825 35.6785 67.2515 35.3662C67.2205 35.0539 67.1249 34.7514 66.9708 34.478C66.8554 34.2712 66.6642 34.1173 66.4376 34.0487C62.6359 33.3562 62.809 38.3074 62.8714 40.7033C62.8714 41.1465 63.5638 41.6728 63.917 41.3958C65.1219 40.4748 66.6176 40.1286 68.1618 39.6854C68.9997 39.4361 70.1146 39.0068 70.2116 38.0789Z" fill="#FFBA0A"/>
<path d="M0.00291935 35.1498C0.141413 33.7025 2.08033 33.7648 3.18828 34.0903C3.15508 33.7945 3.18413 33.4951 3.27358 33.2113C3.36302 32.9275 3.51088 32.6655 3.70764 32.4422C3.77873 32.3573 3.86635 32.2878 3.96515 32.2378C4.06395 32.1878 4.17188 32.1584 4.28239 32.1514C7.93863 32.2552 6.81683 36.7978 6.29056 39.0068C6.19361 39.4154 5.48036 39.7755 5.19645 39.4431C4.25469 38.349 2.939 37.7396 1.58868 37.0333C0.889283 36.6455 -0.059403 36.05 0.00291935 35.1498Z" fill="#FFBA0A"/>
</svg>
