<svg width="96" height="39" viewBox="0 0 96 39" fill="none" xmlns="http://www.w3.org/2000/svg">
<path d="M29.4758 10.9651C29.4377 9.33066 28.3153 9.43963 27.4545 9.53225C24.9756 9.79921 19.4838 18.9686 16.193 26.449C15.3431 20.2925 15.3376 11.2321 15.9043 10.9924C15.8716 9.3579 14.7438 9.46687 13.883 9.55949C10.2217 9.92997 -0.108109 29.9631 0.000855512 34.9428C0.0498896 37.2474 2.35994 38.6967 4.8171 37.9285C4.70268 32.7472 9.54617 21.8725 12.9023 15.6343C12.7116 20.5377 13.4798 27.3589 14.2044 29.3965C14.3142 29.7236 14.4662 30.035 14.6566 30.3227C13.9592 32.295 13.567 33.9294 13.567 34.9428C13.6214 37.2474 15.9315 38.6967 18.3832 37.923C18.2198 30.448 28.3862 11.085 29.4758 10.9651Z" fill="#07544F"/>
<path d="M84.1478 7.38564C84.1478 7.38564 85.7823 0.270248 74.6515 0.0141807C63.5208 -0.241886 52.074 2.96168 46.6694 10.3005C46.6694 10.3005 50.1018 7.72889 53.5342 10.3005C56.9665 12.872 73.3657 24.1935 83.8972 11.6135C71.7531 6.87351 56.9012 7.21675 56.9012 7.21675C67.34 6.52482 75.289 7.49461 80.9497 8.85122C87.0081 10.0662 90.2117 11.668 91.9061 12.9755C92.1474 13.1588 92.3784 13.3552 92.598 13.5639L92.8159 13.7819C93.2342 14.245 93.5647 14.7804 93.7912 15.3619C94.7719 17.868 93.9928 21.4966 91.0671 26.2583C90.07 27.4461 87.5312 30.1102 84.2513 28.9443C83.4123 28.6447 82.7803 27.4951 83.2597 25.8933C83.5718 26.1916 83.943 26.421 84.3495 26.5664C84.7559 26.7119 85.1884 26.7703 85.6188 26.7378C88.0542 26.7378 91.2142 25.1414 91.2142 22.1558C91.2142 21.5238 90.5822 19.5788 87.4004 19.5788C83.6575 19.5788 80.394 23.3108 79.3207 26.7487C78.5416 27.6694 77.0705 29.2876 75.9101 29.2876C75.1582 29.2876 74.7659 29.1622 74.7659 28.0889C74.7659 26.0295 78.1602 22.2375 78.2147 21.6055C78.2692 20.9735 76.4113 19.7477 75.9319 19.7477C75.4524 19.7477 73.867 20.7992 71.6495 20.7992H71.3172C69.4321 20.7338 68.9145 20.1563 68.1954 19.3772C67.4435 19.3772 66.708 20.2871 66.708 21.0989C66.7135 21.5315 66.8504 21.9523 67.1005 22.3055C67.3505 22.6587 67.7019 22.9276 68.1082 23.0766C67.179 24.7834 66.0366 26.3651 64.7085 27.7838C64.7097 27.8287 64.7189 27.873 64.7357 27.9146C63.9948 28.6229 63.1013 29.2658 62.2622 29.2658C61.5267 29.2658 61.3687 28.6065 61.3687 28.1761C61.3687 26.0949 64.8229 22.0741 64.8229 21.5402C64.7429 20.9871 64.4534 20.4859 64.0144 20.1401C63.5754 19.7943 63.0203 19.6304 62.4638 19.6823C61.0745 19.6823 58.6501 23.1964 57.5604 26.4817C56.8303 27.3153 55.2449 29.2385 53.7793 29.2385C53.0493 29.2385 52.8858 28.5793 52.8858 28.1489C52.8858 26.0676 56.3455 22.0468 56.3455 21.5129C56.2655 20.9609 55.9768 20.4605 55.5389 20.1149C55.1011 19.7692 54.5474 19.6047 53.9918 19.6551C52.6189 19.6551 50.2543 23.0766 49.0884 26.3237C48.4237 27.0701 46.7402 29.2113 45.1929 29.2113C44.4628 29.2113 44.2994 28.552 44.2994 28.1216C44.2994 26.6615 45.4708 24.3079 46.8546 22.0686C47.1857 22.1415 47.5235 22.1799 47.8625 22.1831C51.2187 22.1831 52.0304 20.2271 52.0304 19.3118C52.0304 18.3965 51.442 17.8081 51.077 17.8081C50.712 17.8081 51.2187 18.767 48.974 18.8978C50.0636 17.3287 51.0116 16.1737 51.186 15.9993C51.186 15.6452 51.0661 14.3213 49.2137 14.3213C48.4891 14.3213 46.8219 15.7759 45.0676 17.8898C43.504 17.1216 42.1201 16.1954 41.3519 16.1954C40.0389 16.1954 38.9601 17.2524 38.9601 18.1023C39.8972 18.1023 41.4391 19.2955 43.188 20.3906C41.9414 22.1641 40.9202 24.0857 40.1478 26.1112C39.4559 26.8958 37.8106 28.9498 36.2959 28.9498C35.5659 28.9498 35.4024 28.2905 35.4024 27.8601C35.4024 25.7843 38.8566 21.7581 38.8566 21.2242C38.7766 20.6721 38.488 20.1717 38.0501 19.8261C37.6122 19.4805 37.0585 19.3159 36.503 19.3663C35.8655 19.3663 35.0211 20.1018 34.182 21.2078C33.7843 20.1618 32.8254 19.5407 31.3544 19.5407C29.1751 19.5407 26.9413 21.0716 25.5357 22.5917C23.6288 24.6511 21.1771 30.1702 24.0047 32.3985C26.3747 34.2509 29.5129 31.4941 31.0003 29.7452C31.1691 31.5431 32.2751 33.0141 34.1221 33.0141C35.8546 33.0141 38.023 31.2762 39.4614 29.5055C39.4614 31.5159 40.502 33.2593 43.6946 33.2593C45.3673 33.2593 47.2142 31.6248 48.4564 29.9413C48.609 31.7611 49.7204 33.2593 51.5837 33.2593C53.3217 33.2593 55.501 31.5159 56.9393 29.7343C57.021 31.6466 58.1434 33.2593 60.0775 33.2593C62.4584 33.2593 65.6783 29.9904 66.6699 27.8111C67.6996 26.3619 68.6585 24.9126 69.5956 23.4089C70.1287 23.4733 70.6665 23.4915 71.2028 23.4634C71.7383 23.4635 72.2727 23.4143 72.7991 23.3163C73.2677 23.2182 73.3113 23.4035 73.1206 23.6377C72.4946 24.427 71.9472 25.2755 71.4861 26.1712C70.8378 27.3861 70.2167 28.7209 70.3365 30.132C70.3579 30.9779 70.7142 31.7807 71.3272 32.364C71.9401 32.9473 72.7596 33.2635 73.6055 33.243C75.6268 33.243 77.5445 31.4505 78.9829 29.6907C79.3915 32.769 82.1973 33.1776 83.1399 33.1776C86.7847 33.1776 89.8085 30.3663 91.3122 28.4812C91.3013 28.5139 105.668 9.70114 84.1478 7.38564ZM83.6357 24.9726C84.6218 23.0275 86.6431 21.5729 87.5856 21.8071C87.8744 21.878 88.0215 22.1722 88.0215 22.5426C88.0215 23.3381 86.5777 24.9072 83.5866 25.0706L83.6357 24.9726ZM27.715 28.187C27.1701 28.187 26.7288 27.7893 26.7288 27.0156C26.7288 24.7492 29.8943 21.9542 31.4579 21.9542C32.3732 21.9542 32.3732 22.8205 32.3732 23.0766C32.3732 24.9017 29.4747 28.187 27.715 28.187Z" fill="#07544F"/>
</svg>
