<svg width="153" height="19" viewBox="0 0 153 19" fill="none" xmlns="http://www.w3.org/2000/svg">
<path d="M0.25115 9.3927C1.37524 3.43015 5.43928 0.00134277 11.0492 0.00134277C14.6923 0.00134277 17.1455 1.56453 17.8558 3.48034C18.0174 3.9198 18.0543 4.39541 17.9625 4.85456C17.7094 6.19082 16.6043 7.11076 15.2427 7.11076C14.1967 7.11076 13.4783 6.70753 12.987 5.83778C12.3458 4.69048 11.5663 4.21174 10.2807 4.21174C8.01141 4.21174 6.32379 6.07736 5.71303 9.31551C5.08792 12.6309 6.23985 14.6099 8.58463 14.6099C10.3241 14.6099 11.7426 13.6398 12.1699 12.1774L12.2429 11.9243H11.1943C9.99682 11.9243 9.33417 11.2942 9.54929 10.1469C9.76441 8.99958 10.6531 8.36942 11.8633 8.36942H15.3802C17.0822 8.36942 17.8625 9.37793 17.5251 11.168C16.7102 15.4915 13.0827 18.8195 7.66216 18.8195C1.88984 18.8216 -0.887286 15.432 0.25115 9.3927Z" fill="#FF3939"/>
<path d="M18.4152 11.5354C19.2782 6.95973 22.6404 4.23828 27.1043 4.23828C31.5922 4.23828 33.9197 6.9378 33.0516 11.5354C32.1629 16.2503 28.8978 18.8595 24.347 18.8595C19.808 18.8595 17.529 16.2376 18.4152 11.5354ZM27.8045 11.5481C28.2322 9.2792 27.6779 7.93028 26.4066 7.93028C25.1459 7.93028 24.0867 9.28004 23.6569 11.5481C23.2174 13.8802 23.7438 15.1658 25.0425 15.1658C26.3282 15.1658 27.3645 13.8802 27.8045 11.5481Z" fill="#FF3939"/>
<path d="M33.7708 11.5354C34.6334 6.95973 37.9956 4.23828 42.4599 4.23828C46.9474 4.23828 49.2753 6.9378 48.4073 11.5354C47.5185 16.2503 44.2534 18.8595 39.7026 18.8595C35.1632 18.8595 32.8842 16.2376 33.7708 11.5354ZM43.1597 11.5481C43.5874 9.2792 43.0331 7.93028 41.7618 7.93028C40.5011 7.93028 39.4419 9.28004 39.0125 11.5481C38.5726 13.8802 39.0994 15.1658 40.3977 15.1658C41.6834 15.1658 42.7202 13.8802 43.1597 11.5481Z" fill="#FF3939"/>
<path d="M49.1293 11.5092C49.9729 7.03392 52.5138 4.38671 55.9805 4.38671C58.0102 4.38671 59.3064 5.534 59.554 7.09677H59.6544L60.4883 2.67252C60.8329 0.844441 62.0637 0 63.5763 0C65.0889 0 66.0012 0.8436 65.6545 2.68517L63.1165 16.149C62.7724 17.9767 61.5415 18.8211 60.029 18.8211C58.5164 18.8211 57.6036 17.9775 57.9482 16.149L57.9579 16.0984H57.8571C57.1148 17.5608 55.2842 18.7076 53.1925 18.7076C49.7637 18.7081 48.2734 16.0486 49.1293 11.5092ZM58.8387 11.5594C59.2141 9.56767 58.6079 8.37018 57.2211 8.37018C55.8342 8.37018 54.7873 9.58032 54.4165 11.5467C54.0407 13.5385 54.6245 14.7233 56.0236 14.7233C57.4227 14.7233 58.4607 13.5651 58.8387 11.5607V11.5594Z" fill="#FF3939"/>
<path d="M64.5402 16.1491L66.2822 6.90873C66.6217 5.10638 67.8125 4.27417 69.3002 4.27417C70.7879 4.27417 71.6665 5.09372 71.3248 6.90873L71.232 7.40055H71.3332C72.2038 5.52228 73.9952 4.31213 75.8988 4.31213C78.0166 4.31213 79.2192 5.42146 79.1914 7.37524H79.2922C80.1054 5.53493 82.025 4.31213 84.1429 4.31213C86.8533 4.31213 88.3503 6.2659 87.8159 9.10208L86.4868 16.1491C86.1422 17.9767 84.8991 18.8212 83.3861 18.8212C81.8732 18.8212 80.9739 17.9776 81.3193 16.1491L82.3958 10.4383C82.6455 9.11474 82.2017 8.45926 81.0798 8.45926C80.0337 8.45926 79.2757 9.2029 79.045 10.4257L77.9652 16.1491C77.6206 17.9767 76.5163 18.8212 75.0033 18.8212C73.4903 18.8212 72.7172 17.9776 73.063 16.1491L74.1374 10.451C74.3866 9.12739 73.9454 8.45926 72.8361 8.45926C71.7896 8.45926 71.0169 9.21555 70.7887 10.4257L69.7085 16.1491C69.3639 17.9767 68.1208 18.8212 66.6078 18.8212C65.0948 18.8212 64.1956 17.9772 64.5402 16.1491Z" fill="#FFBA0A"/>
<path d="M87.6621 14.4618C88.1662 11.7893 90.4941 10.3396 94.2557 10.1127L97.342 9.92371L97.4685 9.24293C97.6444 8.31033 97.0337 7.80586 96.0631 7.80586C95.2562 7.80586 94.8125 8.02013 93.763 8.83969C93.0531 9.39435 92.3454 9.67147 91.5764 9.67147C90.3532 9.67147 89.6264 8.91519 89.8285 7.84382C89.8719 7.57674 89.9547 7.31759 90.0744 7.07489C90.9391 5.29742 93.5462 4.23828 97.013 4.23828C100.87 4.23828 103.091 6.16717 102.558 8.99069L101.198 16.225C100.86 18.0151 99.637 18.8216 98.1493 18.8216C96.7877 18.8216 95.956 18.1534 96.077 16.6409H95.9762C94.9884 18.0024 93.1662 18.7077 91.5524 18.7077C89.0186 18.7081 87.191 16.9686 87.6621 14.4618ZM96.6502 13.5921L96.8215 12.6844L94.5995 12.8358C93.6019 12.9113 92.9595 13.3778 92.8313 14.059C92.6887 14.8157 93.2231 15.2569 94.1308 15.2569C95.2794 15.2544 96.4596 14.6112 96.6519 13.5904L96.6502 13.5921Z" fill="#FFBA0A"/>
<path d="M102.635 16.1491L104.387 6.85853C104.703 5.18188 105.883 4.27417 107.395 4.27417C108.845 4.27417 109.669 5.18188 109.351 6.87119L109.257 7.37566H109.358C110.064 5.37127 111.169 4.38806 112.556 4.38806C113.073 4.38806 113.478 4.5146 113.748 4.75376C114.193 5.13338 114.332 5.79982 114.152 6.75815C113.997 7.57728 113.641 8.19522 113.081 8.62377C112.521 9.05232 111.76 9.27924 110.807 9.31678C109.411 9.3674 108.998 9.82293 108.71 11.3465L107.804 16.1491C107.471 17.9139 106.304 18.8212 104.716 18.8212C103.128 18.8212 102.303 17.9143 102.635 16.1491Z" fill="#FFBA0A"/>
<path d="M113.012 16.149L115.553 2.67337C115.897 0.845296 117.128 0.000854492 118.641 0.000854492C120.153 0.000854492 121.066 0.844449 120.719 2.68602L119.436 9.49302H119.536L124.221 5.37078C125.098 4.60184 125.765 4.2741 126.571 4.2741C127.933 4.2741 128.735 5.23201 128.486 6.55561C128.331 7.37517 127.987 7.86698 127.067 8.59796L124.221 10.8546L126.138 14.4597C126.574 15.2915 126.665 15.7453 126.539 16.4135C126.266 17.8632 125.077 18.8211 123.577 18.8211C122.354 18.8211 121.784 18.3673 121.16 16.9302L119.758 13.6655L118.459 14.674L118.181 16.1503C117.836 17.9779 116.606 18.8224 115.093 18.8224C113.58 18.8224 112.667 17.9771 113.012 16.149Z" fill="#FFBA0A"/>
<path d="M127.542 11.624C128.4 7.07317 131.67 4.23657 136.044 4.23657C140.356 4.23657 142.624 6.98502 141.917 10.7289C141.685 11.9639 140.85 12.6447 139.565 12.6447H132.33L132.269 12.9725C132.012 14.334 132.81 15.3172 134.196 15.3172C135.318 15.3172 136.189 14.9768 137.337 14.1071C137.969 13.6279 138.403 13.4643 139.034 13.4643C140.03 13.4643 140.803 14.1071 140.594 15.2164C140.521 15.607 140.336 15.9852 140.04 16.3511C138.817 17.9016 136.289 18.8595 133.453 18.8595C128.888 18.8595 126.689 16.149 127.542 11.624ZM137.268 9.84651C137.416 8.5984 136.698 7.7915 135.488 7.7915C134.315 7.7915 133.259 8.6486 132.932 9.84651H137.268Z" fill="#FFBA0A"/>
<path d="M144.673 8.34567H144.358C143.249 8.34567 142.645 7.60204 142.859 6.4674C143.073 5.33276 143.956 4.58912 145.066 4.58912H145.381L145.522 3.8455C145.84 2.1583 146.959 1.17297 148.61 1.17297C150.261 1.17297 151.009 2.15619 150.69 3.8455L150.552 4.59166H151.459C152.568 4.59166 153.17 5.34794 152.958 6.46993C152.746 7.59192 151.862 8.3482 150.751 8.3482H149.844L148.876 13.479C148.726 14.2732 148.939 14.5503 149.419 14.6132L149.714 14.6511C150.772 14.7899 151.337 15.2691 151.112 16.4649C150.831 17.9521 148.949 18.7084 147.071 18.7084H146.957C144.159 18.7084 142.985 17.3093 143.492 14.6242L144.673 8.34567Z" fill="#FFBA0A"/>
</svg>
