<svg width="138" height="48" viewBox="0 0 138 48" fill="none" xmlns="http://www.w3.org/2000/svg">
<g clip-path="url(#clip0_858_15107)">
<path d="M29.4114 7.72594V5.91772C29.0583 6.02732 28.336 6.26293 28.2708 6.32868C28.2056 6.39444 27.7547 6.57526 27.5375 6.65745L27.4561 7.31498L29.4114 7.97252V7.72594Z" fill="#E76F00"/>
<path d="M2.28125 7.72594V5.91772C2.6343 6.02732 3.33441 6.29928 3.42186 6.32868C3.66627 6.41088 3.93785 6.57526 4.1551 6.65745L4.23658 7.31498L2.28125 7.97252V7.72594Z" fill="#E76F00"/>
<path d="M31.7741 8.7124H0V40.7672H31.7741V8.7124Z" fill="#FFA800"/>
<path d="M42.3913 38.5183C40.6776 38.5183 39.1528 38.0988 37.8171 37.2598C36.4815 36.4208 35.4356 35.2767 34.6795 33.8275C33.9234 32.3528 33.5454 30.6876 33.5454 28.8315C33.5454 26.9502 33.9234 25.2721 34.6795 23.7974C35.4356 22.3228 36.4815 21.1786 37.8171 20.3651C39.1528 19.5261 40.6776 19.1066 42.3913 19.1066C43.5507 19.1066 44.6091 19.3228 45.5668 19.7549C46.5244 20.1618 47.3057 20.7465 47.9105 21.5092C48.5407 22.272 48.9187 23.1365 49.0446 24.1025V33.4842C48.9187 34.4758 48.5407 35.3529 47.9105 36.1157C47.3057 36.8529 46.5244 37.4378 45.5668 37.87C44.6091 38.3022 43.5507 38.5183 42.3913 38.5183ZM43.79 32.6071C44.8738 32.6071 45.7432 32.2512 46.3984 31.5392C47.0789 30.8273 47.4191 29.912 47.4191 28.7934C47.4191 28.0561 47.2679 27.4078 46.9655 26.8484C46.663 26.289 46.2347 25.8442 45.6802 25.5136C45.1509 25.183 44.5335 25.0178 43.8278 25.0178C43.1221 25.0178 42.4922 25.183 41.9377 25.5136C41.4084 25.8442 40.9801 26.3018 40.6524 26.8865C40.3499 27.4459 40.1987 28.0814 40.1987 28.7934C40.1987 29.5306 40.3499 30.1918 40.6524 30.7765C40.9548 31.3359 41.3832 31.7807 41.9377 32.1113C42.4922 32.4419 43.1096 32.6071 43.79 32.6071ZM47.1545 38.1369V33.141L48.0996 28.5646L47.1545 24.0644V19.488H53.6188V38.1369H47.1545ZM57.8353 38.1369V19.488H64.413V38.1369H57.8353ZM64.413 27.9925L61.4644 25.4755C62.1952 23.3653 63.1655 21.7762 64.3752 20.7083C65.5849 19.6405 67.1601 19.1066 69.1006 19.1066C69.9826 19.1066 70.7387 19.221 71.3688 19.4498C72.024 19.6786 72.5785 20.0345 73.0321 20.5177L69.214 25.6662C69.0124 25.4373 68.7226 25.2593 68.3445 25.1322C67.9918 24.9797 67.5885 24.9034 67.1348 24.9034C66.2779 24.9034 65.6102 25.1704 65.1313 25.7043C64.6524 26.2127 64.413 26.9755 64.413 27.9925ZM77.4695 38.1369V11.7843H84.0473V38.1369H77.4695ZM73.3868 25.0178V19.488H88.13V25.0178H73.3868ZM90.7821 38.1369V19.488H97.3976V38.1369H90.7821ZM94.0709 17.3142C93.088 17.3142 92.2689 16.9836 91.6137 16.3226C90.9585 15.6361 90.6309 14.7844 90.6309 13.7674C90.6309 12.7759 90.9585 11.9368 91.6137 11.2504C92.2689 10.5639 93.088 10.2207 94.0709 10.2207C95.1042 10.2207 95.9358 10.5639 96.5659 11.2504C97.2211 11.9368 97.5488 12.7759 97.5488 13.7674C97.5488 14.7844 97.2211 15.6361 96.5659 16.3226C95.9358 16.9836 95.1042 17.3142 94.0709 17.3142ZM103.877 38.1369V18.3057C103.877 16.7294 104.217 15.3183 104.897 14.0725C105.578 12.8013 106.548 11.7843 107.808 11.0216C109.094 10.2588 110.631 9.87744 112.42 9.87744C113.756 9.87744 114.928 10.1063 115.936 10.5639C116.944 10.9961 117.813 11.5809 118.544 12.3182L114.424 16.4751C114.222 16.2463 113.97 16.0811 113.668 15.9794C113.39 15.8522 113.063 15.7887 112.685 15.7887C112.004 15.7887 111.462 15.9921 111.059 16.3989C110.656 16.8057 110.454 17.3523 110.454 18.0388V38.1369H103.877ZM99.9452 25.0178V19.488H115.671V25.0178H99.9452ZM124.229 38.1751L116.82 19.488H123.851L128.388 34.8572H125.628L130.202 19.488H137.233L129.635 38.1369L124.229 38.1751ZM119.844 46.0313L125.326 33.8656L129.635 38.1369L126.46 46.0313H119.844Z" fill="#202326"/>
<path d="M20.863 37.9727L10.7544 23.9039L13.3615 21.2055H21.0199L17.6193 25.0066L17.5815 22.611L29.0856 37.9727H20.863ZM4.64404 37.9727V10.8494H11.3957V37.9727H4.64404Z" fill="white"/>
<path d="M94.1 17.0958C96.0348 17.0958 97.6033 15.5135 97.6033 13.5616C97.6033 11.6097 96.0348 10.0273 94.1 10.0273C92.1652 10.0273 90.5967 11.6097 90.5967 13.5616C90.5967 15.5135 92.1652 17.0958 94.1 17.0958Z" fill="#FFA800"/>
<path d="M7.75336 15.4788C8.7956 15.4788 9.6405 14.6264 9.6405 13.575C9.6405 12.5235 8.7956 11.6711 7.75336 11.6711C6.71111 11.6711 5.86621 12.5235 5.86621 13.575C5.86621 14.6264 6.71111 15.4788 7.75336 15.4788Z" fill="#E76F00"/>
<path d="M24.1839 15.4788C25.2263 15.4788 26.0711 14.6264 26.0711 13.575C26.0711 12.5235 25.2263 11.6711 24.1839 11.6711C23.1417 11.6711 22.2969 12.5235 22.2969 13.575C22.2969 14.6264 23.1417 15.4788 24.1839 15.4788Z" fill="#E76F00"/>
<g filter="url(#filter0_d_858_15107)">
<path d="M15.9685 22.815C10.9131 22.8079 6.8165 18.6751 6.80957 13.5751H8.69672C8.69534 17.6267 11.95 20.9122 15.9661 20.9135C19.9822 20.9149 23.2391 17.6315 23.2403 13.5799C23.2403 13.5782 23.2403 13.5766 23.2403 13.575H25.1275C25.1205 18.6751 21.0241 22.8079 15.9685 22.815Z" fill="url(#paint0_linear_858_15107)"/>
</g>
<path d="M3.99213 6.98627L0 8.7123H31.7741C30.6335 8.05477 28.4826 7.49586 28.0264 7.23285C27.456 6.90408 27.9449 6.57532 29.167 6.16436C30.1446 5.83559 28.2708 5.26025 27.2116 5.01367H4.48096C3.44898 5.28765 1.71091 5.83559 2.44416 6.08217C3.94324 6.41093 4.31801 6.82189 3.99213 6.98627Z" fill="url(#paint1_radial_858_15107)"/>
<mask id="mask0_858_15107" style="mask-type:alpha" maskUnits="userSpaceOnUse" x="0" y="5" width="32" height="4">
<path d="M3.99213 6.98627L0 8.7123H31.7741C30.6335 8.05477 28.4826 7.49586 28.0264 7.23285C27.456 6.90408 27.9449 6.57532 29.167 6.16436C30.1446 5.83559 28.2708 5.26025 27.2116 5.01367H4.48096C3.44898 5.28765 1.71091 5.83559 2.44416 6.08217C3.94324 6.41093 4.31801 6.82189 3.99213 6.98627Z" fill="url(#paint2_radial_858_15107)"/>
</mask>
<g mask="url(#mask0_858_15107)">
<g filter="url(#filter1_f_858_15107)">
</g>
</g>
</g>
<defs>
<filter id="filter0_d_858_15107" x="6.80957" y="13.575" width="18.3179" height="12.24" filterUnits="userSpaceOnUse" color-interpolation-filters="sRGB">
<feFlood flood-opacity="0" result="BackgroundImageFix"/>
<feColorMatrix in="SourceAlpha" type="matrix" values="0 0 0 0 0 0 0 0 0 0 0 0 0 0 0 0 0 0 127 0" result="hardAlpha"/>
<feOffset dy="3"/>
<feComposite in2="hardAlpha" operator="out"/>
<feColorMatrix type="matrix" values="0 0 0 0 0 0 0 0 0 0 0 0 0 0 0 0 0 0 0.09 0"/>
<feBlend mode="normal" in2="BackgroundImageFix" result="effect1_dropShadow_858_15107"/>
<feBlend mode="normal" in="SourceGraphic" in2="effect1_dropShadow_858_15107" result="shape"/>
</filter>
<filter id="filter1_f_858_15107" x="-19.2456" y="-21.2876" width="70.4282" height="62.6301" filterUnits="userSpaceOnUse" color-interpolation-filters="sRGB">
<feFlood flood-opacity="0" result="BackgroundImageFix"/>
<feBlend mode="normal" in="SourceGraphic" in2="BackgroundImageFix" result="shape"/>
<feGaussianBlur stdDeviation="15" result="effect1_foregroundBlur_858_15107"/>
</filter>
<linearGradient id="paint0_linear_858_15107" x1="24.4679" y1="15.3429" x2="8.50119" y2="28.5858" gradientUnits="userSpaceOnUse">
<stop stop-color="#DAE5F7"/>
<stop offset="0.968237" stop-color="#A7BCDC"/>
</linearGradient>
<radialGradient id="paint1_radial_858_15107" cx="0" cy="0" r="1" gradientUnits="userSpaceOnUse" gradientTransform="translate(15.887 6.86299) rotate(90) scale(15.637 15.5001)">
<stop stop-color="#FFCB67"/>
<stop offset="1" stop-color="#FFA800"/>
</radialGradient>
<radialGradient id="paint2_radial_858_15107" cx="0" cy="0" r="1" gradientUnits="userSpaceOnUse" gradientTransform="translate(15.887 6.86299) rotate(90) scale(8.34247 8.2694)">
<stop stop-color="#FFA800"/>
<stop offset="1" stop-color="#FFA800"/>
</radialGradient>
<clipPath id="clip0_858_15107">
<rect width="137.362" height="48" fill="white"/>
</clipPath>
</defs>
</svg>
