<svg width="138" height="48" viewBox="0 0 138 48" fill="none" xmlns="http://www.w3.org/2000/svg">
<g clip-path="url(#clip0_858_23221)">
<path d="M29.4114 7.72594V5.91772C29.0583 6.02732 28.336 6.26293 28.2708 6.32868C28.2056 6.39444 27.7547 6.57526 27.5375 6.65745L27.4561 7.31498L29.4114 7.97252V7.72594Z" fill="#0283AE"/>
<path d="M2.28125 7.72594V5.91772C2.6343 6.02732 3.33441 6.29928 3.42186 6.32868C3.66627 6.41088 3.93785 6.57526 4.1551 6.65745L4.23658 7.31498L2.28125 7.97252V7.72594Z" fill="#0283AE"/>
<path d="M31.7741 8.7124H0V40.7672H31.7741V8.7124Z" fill="#1CA3D1"/>
<path d="M42.3916 38.5183C40.6779 38.5183 39.153 38.0988 37.8174 37.2598C36.4817 36.4208 35.4358 35.2767 34.6797 33.8275C33.9237 32.3528 33.5457 30.6876 33.5457 28.8315C33.5457 26.9502 33.9237 25.2721 34.6797 23.7974C35.4358 22.3228 36.4817 21.1786 37.8174 20.3651C39.153 19.5261 40.6779 19.1066 42.3916 19.1066C43.5509 19.1066 44.6094 19.3228 45.567 19.7549C46.5246 20.1618 47.3059 20.7465 47.9108 21.5092C48.5409 22.272 48.9189 23.1365 49.0449 24.1025V33.4842C48.9189 34.4758 48.5409 35.3529 47.9108 36.1157C47.3059 36.8529 46.5246 37.4378 45.567 37.87C44.6094 38.3022 43.5509 38.5183 42.3916 38.5183ZM43.7903 32.6071C44.874 32.6071 45.7435 32.2512 46.3987 31.5392C47.0791 30.8273 47.4193 29.912 47.4193 28.7934C47.4193 28.0561 47.2681 27.4078 46.9657 26.8484C46.6633 26.289 46.2349 25.8442 45.6804 25.5136C45.1512 25.183 44.5338 25.0178 43.8281 25.0178C43.1224 25.0178 42.4924 25.183 41.9379 25.5136C41.4087 25.8442 40.9803 26.3018 40.6526 26.8865C40.3502 27.4459 40.199 28.0814 40.199 28.7934C40.199 29.5306 40.3502 30.1918 40.6526 30.7765C40.955 31.3359 41.3834 31.7807 41.9379 32.1113C42.4924 32.4419 43.1098 32.6071 43.7903 32.6071ZM47.1547 38.1369V33.141L48.0998 28.5646L47.1547 24.0644V19.488H53.619V38.1369H47.1547ZM57.8355 38.1369V19.488H64.4133V38.1369H57.8355ZM64.4133 27.9925L61.4646 25.4755C62.1954 23.3653 63.1658 21.7762 64.3755 20.7083C65.5852 19.6405 67.1603 19.1066 69.1008 19.1066C69.9828 19.1066 70.7389 19.221 71.369 19.4498C72.0242 19.6786 72.5787 20.0345 73.0323 20.5177L69.2142 25.6662C69.0127 25.4373 68.7228 25.2593 68.3448 25.1322C67.992 24.9797 67.5887 24.9034 67.1351 24.9034C66.2782 24.9034 65.6104 25.1704 65.1315 25.7043C64.6526 26.2127 64.4133 26.9755 64.4133 27.9925ZM77.4698 38.1369V11.7843H84.0475V38.1369H77.4698ZM73.3871 25.0178V19.488H88.1302V25.0178H73.3871ZM90.7823 38.1369V19.488H97.3978V38.1369H90.7823ZM94.0712 17.3142C93.0883 17.3142 92.2692 16.9836 91.614 16.3226C90.9588 15.6361 90.6311 14.7844 90.6311 13.7674C90.6311 12.7759 90.9588 11.9368 91.614 11.2504C92.2692 10.5639 93.0883 10.2207 94.0712 10.2207C95.1044 10.2207 95.9361 10.5639 96.5662 11.2504C97.2214 11.9368 97.549 12.7759 97.549 13.7674C97.549 14.7844 97.2214 15.6361 96.5662 16.3226C95.9361 16.9836 95.1044 17.3142 94.0712 17.3142ZM103.877 38.1369V18.3057C103.877 16.7294 104.217 15.3183 104.898 14.0725C105.578 12.8013 106.548 11.7843 107.808 11.0216C109.094 10.2588 110.631 9.87744 112.42 9.87744C113.756 9.87744 114.928 10.1063 115.936 10.5639C116.944 10.9961 117.814 11.5809 118.545 12.3182L114.424 16.4751C114.222 16.2463 113.97 16.0811 113.668 15.9794C113.391 15.8522 113.063 15.7887 112.685 15.7887C112.005 15.7887 111.463 15.9921 111.06 16.3989C110.656 16.8057 110.455 17.3523 110.455 18.0388V38.1369H103.877ZM99.9455 25.0178V19.488H115.671V25.0178H99.9455ZM124.229 38.1751L116.82 19.488H123.851L128.388 34.8572H125.628L130.202 19.488H137.234L129.635 38.1369L124.229 38.1751ZM119.844 46.0313L125.326 33.8656L129.635 38.1369L126.46 46.0313H119.844Z" fill="#202326"/>
<path d="M20.8627 37.9727L10.7542 23.9039L13.3613 21.2055H21.0197L17.619 25.0066L17.5812 22.611L29.0854 37.9727H20.8627ZM4.6438 37.9727V10.8494H11.3954V37.9727H4.6438Z" fill="white"/>
<path d="M94.1002 17.0958C96.035 17.0958 97.6035 15.5135 97.6035 13.5616C97.6035 11.6097 96.035 10.0273 94.1002 10.0273C92.1654 10.0273 90.5969 11.6097 90.5969 13.5616C90.5969 15.5135 92.1654 17.0958 94.1002 17.0958Z" fill="#FF6F96"/>
<path d="M7.75312 15.4788C8.79536 15.4788 9.64025 14.6264 9.64025 13.575C9.64025 12.5235 8.79536 11.6711 7.75312 11.6711C6.71086 11.6711 5.86597 12.5235 5.86597 13.575C5.86597 14.6264 6.71086 15.4788 7.75312 15.4788Z" fill="#0283AE"/>
<path d="M24.1839 15.4788C25.2263 15.4788 26.0711 14.6264 26.0711 13.575C26.0711 12.5235 25.2263 11.6711 24.1839 11.6711C23.1417 11.6711 22.2969 12.5235 22.2969 13.575C22.2969 14.6264 23.1417 15.4788 24.1839 15.4788Z" fill="#0283AE"/>
<g filter="url(#filter0_d_858_23221)">
<path d="M15.9685 22.815C10.9131 22.8079 6.8165 18.6751 6.80957 13.5751H8.69672C8.69534 17.6267 11.95 20.9122 15.9661 20.9135C19.9822 20.9149 23.2391 17.6315 23.2403 13.5799C23.2403 13.5782 23.2403 13.5766 23.2403 13.575H25.1275C25.1205 18.6751 21.0241 22.8079 15.9685 22.815Z" fill="url(#paint0_linear_858_23221)"/>
</g>
<path d="M3.99213 6.98627L0 8.7123H31.7741C30.6335 8.05477 28.4826 7.49586 28.0264 7.23285C27.456 6.90408 27.9449 6.57532 29.167 6.16436C30.1446 5.83559 28.2708 5.26025 27.2116 5.01367H4.48096C3.44898 5.28765 1.71091 5.83559 2.44416 6.08217C3.94324 6.41093 4.31801 6.82189 3.99213 6.98627Z" fill="url(#paint1_radial_858_23221)"/>
<mask id="mask0_858_23221" style="mask-type:alpha" maskUnits="userSpaceOnUse" x="0" y="5" width="32" height="4">
<path d="M3.99213 6.98627L0 8.7123H31.7741C30.6335 8.05477 28.4826 7.49586 28.0264 7.23285C27.456 6.90408 27.9449 6.57532 29.167 6.16436C30.1446 5.83559 28.2708 5.26025 27.2116 5.01367H4.48096C3.44898 5.28765 1.71091 5.83559 2.44416 6.08217C3.94324 6.41093 4.31801 6.82189 3.99213 6.98627Z" fill="url(#paint2_radial_858_23221)"/>
</mask>
<g mask="url(#mask0_858_23221)">
<g filter="url(#filter1_f_858_23221)">
</g>
</g>
</g>
<defs>
<filter id="filter0_d_858_23221" x="6.80957" y="13.575" width="18.3179" height="12.24" filterUnits="userSpaceOnUse" color-interpolation-filters="sRGB">
<feFlood flood-opacity="0" result="BackgroundImageFix"/>
<feColorMatrix in="SourceAlpha" type="matrix" values="0 0 0 0 0 0 0 0 0 0 0 0 0 0 0 0 0 0 127 0" result="hardAlpha"/>
<feOffset dy="3"/>
<feComposite in2="hardAlpha" operator="out"/>
<feColorMatrix type="matrix" values="0 0 0 0 0 0 0 0 0 0 0 0 0 0 0 0 0 0 0.09 0"/>
<feBlend mode="normal" in2="BackgroundImageFix" result="effect1_dropShadow_858_23221"/>
<feBlend mode="normal" in="SourceGraphic" in2="effect1_dropShadow_858_23221" result="shape"/>
</filter>
<filter id="filter1_f_858_23221" x="-19.2456" y="-21.2876" width="70.4285" height="62.6301" filterUnits="userSpaceOnUse" color-interpolation-filters="sRGB">
<feFlood flood-opacity="0" result="BackgroundImageFix"/>
<feBlend mode="normal" in="SourceGraphic" in2="BackgroundImageFix" result="shape"/>
<feGaussianBlur stdDeviation="15" result="effect1_foregroundBlur_858_23221"/>
</filter>
<linearGradient id="paint0_linear_858_23221" x1="24.4679" y1="15.3429" x2="8.50119" y2="28.5858" gradientUnits="userSpaceOnUse">
<stop stop-color="#DAE5F7"/>
<stop offset="0.968237" stop-color="#A7BCDC"/>
</linearGradient>
<radialGradient id="paint1_radial_858_23221" cx="0" cy="0" r="1" gradientUnits="userSpaceOnUse" gradientTransform="translate(15.887 6.86299) rotate(90) scale(15.637 15.5001)">
<stop stop-color="#9EE6FF"/>
<stop offset="1" stop-color="#1CA3D1"/>
</radialGradient>
<radialGradient id="paint2_radial_858_23221" cx="0" cy="0" r="1" gradientUnits="userSpaceOnUse" gradientTransform="translate(15.887 6.86299) rotate(90) scale(8.34247 8.2694)">
<stop stop-color="#FFEFC5"/>
<stop offset="1" stop-color="#FFBA0A"/>
</radialGradient>
<clipPath id="clip0_858_23221">
<rect width="137.362" height="48" fill="white"/>
</clipPath>
</defs>
</svg>
