<svg width="61" height="31" viewBox="0 0 61 31" fill="none" xmlns="http://www.w3.org/2000/svg">
<rect width="61" height="31" rx="2" fill="#F2F3F8"/>
<path fill-rule="evenodd" clip-rule="evenodd" d="M39.1663 9.45474C38.5891 9.23884 37.6845 9.00684 36.5543 9.00684C33.6746 9.00684 31.6453 10.4523 31.6283 12.5226C31.6125 14.0546 33.0765 14.9076 34.1824 15.4182C35.3164 15.9395 35.6983 16.2729 35.6923 16.739C35.6851 17.4533 34.7869 17.7795 33.9491 17.7795C32.7823 17.7795 32.1629 17.6187 31.2056 17.2209L30.8297 17.0512L30.4206 19.4366C31.1021 19.7335 32.36 19.9918 33.6673 20.005C36.7314 20.005 38.7206 18.5764 38.7428 16.3649C38.7534 15.1527 37.9774 14.2302 36.2963 13.4706C35.2768 12.9773 34.6532 12.6477 34.66 12.1489C34.66 11.707 35.1874 11.2323 36.3283 11.2323C37.2827 11.2175 37.9723 11.4249 38.5099 11.6412L38.7717 11.7634L39.1663 9.45474ZM25.6824 19.8468L27.5048 9.19264H30.419L28.5958 19.8468H25.6824ZM44.3888 9.20306H46.6411L48.9998 19.8496H46.295C46.295 19.8496 46.0281 18.6263 45.9408 18.2535C45.7154 18.2535 44.7739 18.2523 43.8891 18.2512L43.8879 18.2512C43.1041 18.2502 42.3649 18.2493 42.208 18.2493C42.0948 18.5373 41.5946 19.8496 41.5946 19.8496H38.5335L42.8619 10.0866C43.1692 9.39223 43.6907 9.20306 44.3888 9.20306ZM43.0462 16.0707C43.2875 15.4569 44.2079 13.0914 44.2079 13.0914C44.1994 13.1053 44.256 12.9586 44.3334 12.7583L44.3335 12.7582C44.4146 12.5481 44.5186 12.2791 44.594 12.0746L44.7906 12.9934C44.7906 12.9934 45.3491 15.5366 45.4662 16.0707H43.0462ZM20.3847 16.4656L23.2376 9.20042H26.3247L21.7366 19.8338L18.6525 19.838L16.0439 10.5195C17.894 11.4425 19.5495 13.2867 20.0803 14.9892L20.3847 16.4656Z" fill="#1A1F71"/>
<path fill-rule="evenodd" clip-rule="evenodd" d="M17.7374 9.19336H13.037L13 9.4148C16.6566 10.2976 19.0762 12.4289 20.0804 14.9903L19.0583 10.0927C18.8821 9.41777 18.37 9.21669 17.7374 9.19336Z" fill="#F9A51A"/>
</svg>
