<svg width="61" height="31" viewBox="0 0 61 31" fill="none" xmlns="http://www.w3.org/2000/svg">
<rect width="61" height="31" rx="2" fill="#F2F3F8"/>
<path fill-rule="evenodd" clip-rule="evenodd" d="M35.8063 24.0043C40.8838 24.0043 44.9999 19.9755 44.9999 15.0058C44.9999 10.0361 40.8838 6.00732 35.8063 6.00732C30.7289 6.00732 26.6128 10.0361 26.6128 15.0058C26.6128 19.9755 30.7289 24.0043 35.8063 24.0043Z" fill="#F79E1B"/>
<path fill-rule="evenodd" clip-rule="evenodd" d="M24.1935 24.0043C29.271 24.0043 33.3871 19.9755 33.3871 15.0058C33.3871 10.0361 29.271 6.00732 24.1935 6.00732C19.1161 6.00732 15 10.0361 15 15.0058C15 19.9755 19.1161 24.0043 24.1935 24.0043Z" fill="#EB001B"/>
<path fill-rule="evenodd" clip-rule="evenodd" d="M29.9997 8.02893C27.9327 9.67898 26.6128 12.1915 26.6128 15.0058C26.6128 17.82 27.9327 20.3325 29.9997 21.9826C32.0667 20.3325 33.3866 17.82 33.3866 15.0058C33.3866 12.1915 32.0667 9.67898 29.9997 8.02893Z" fill="#FF5F00"/>
</svg>
