<svg width="61" height="31" viewBox="0 0 61 31" fill="none" xmlns="http://www.w3.org/2000/svg">
<rect width="61" height="31" rx="2" fill="#F2F3F8"/>
<path fill-rule="evenodd" clip-rule="evenodd" d="M27.5457 23.3943L27.8729 21.4133L27.1441 21.3971H23.6641L26.0826 6.77803C26.0901 6.73376 26.1145 6.69267 26.15 6.66343C26.1858 6.6342 26.2313 6.61816 26.279 6.61816H32.1468C34.095 6.61816 35.4394 7.00455 36.1412 7.7673C36.4702 8.12512 36.6798 8.49914 36.7813 8.91059C36.8876 9.34241 36.8894 9.85826 36.7857 10.4875L36.7781 10.5333V10.9366L37.1072 11.1143C37.3842 11.2545 37.6045 11.4148 37.7734 11.5984C38.0548 11.9045 38.2369 12.2933 38.3138 12.7542C38.3934 13.2283 38.3671 13.7926 38.2369 14.4314C38.0867 15.1661 37.844 15.8061 37.5162 16.3296C37.2148 16.812 36.8307 17.2123 36.3746 17.5223C35.9391 17.817 35.4219 18.0407 34.8369 18.1839C34.2701 18.3245 33.6238 18.3955 32.915 18.3955H32.4584C32.132 18.3955 31.8148 18.5076 31.5658 18.7086C31.3161 18.9137 31.151 19.194 31.1004 19.5005L31.0659 19.6789L30.4878 23.1708L30.4617 23.2989C30.4547 23.3395 30.4428 23.3597 30.4252 23.3734C30.4096 23.3859 30.3872 23.3943 30.3653 23.3943H27.5457Z" fill="#28356A"/>
<path fill-rule="evenodd" clip-rule="evenodd" d="M37.418 10.5796C37.4007 10.6863 37.3805 10.7954 37.3581 10.9075C36.5843 14.6952 33.9368 16.0037 30.5556 16.0037H28.834C28.4204 16.0037 28.0719 16.2899 28.0076 16.6787L26.8765 23.5186C26.8346 23.774 27.041 24.004 27.3112 24.004H30.3648C30.7263 24.004 31.0334 23.7536 31.0904 23.4137L31.1204 23.2659L31.6953 19.7877L31.7323 19.5969C31.7885 19.2558 32.0964 19.0052 32.4579 19.0052H32.9145C35.8729 19.0052 38.1889 17.8603 38.8658 14.5467C39.1484 13.1625 39.0021 12.0067 38.2539 11.1938C38.0275 10.9488 37.7466 10.7453 37.418 10.5796Z" fill="#019DDE"/>
<path fill-rule="evenodd" clip-rule="evenodd" d="M36.6089 10.2721C36.4906 10.2392 36.3686 10.2095 36.2435 10.1826C36.1177 10.1563 35.9889 10.1331 35.8563 10.1127C35.3921 10.0412 34.8834 10.0073 34.3386 10.0073H29.7394C29.626 10.0073 29.5185 10.0317 29.4223 10.0758C29.2101 10.173 29.0525 10.3645 29.0143 10.5988L28.0358 16.5067L28.0078 16.679C28.0721 16.2901 28.4206 16.0039 28.8342 16.0039H30.5558C33.937 16.0039 36.5845 14.6947 37.3583 10.9077C37.3815 10.7956 37.4009 10.6865 37.4183 10.5798C37.2225 10.4807 37.0105 10.396 36.7822 10.3239C36.7258 10.306 36.6676 10.2888 36.6089 10.2721Z" fill="#00164C"/>
<path fill-rule="evenodd" clip-rule="evenodd" d="M29.0143 10.5989C29.0525 10.3645 29.21 10.173 29.4222 10.0765C29.5191 10.0322 29.626 10.0078 29.7394 10.0078H34.3386C34.8834 10.0078 35.3921 10.0419 35.8562 10.1134C35.9889 10.1336 36.1177 10.157 36.2435 10.1832C36.3686 10.21 36.4906 10.2399 36.6089 10.2726C36.6676 10.2893 36.7257 10.3067 36.7827 10.3239C37.011 10.3961 37.2232 10.4814 37.4189 10.5798C37.6492 9.1801 37.417 8.22708 36.6232 7.3641C35.748 6.41392 34.1685 6.00732 32.1472 6.00732H26.2792C25.8663 6.00732 25.5141 6.29348 25.4503 6.68304L23.0063 21.4524C22.9581 21.7446 23.1944 22.0082 23.5036 22.0082H27.1262L29.0143 10.5989Z" fill="#012F86"/>
</svg>
