<svg width="61" height="31" viewBox="0 0 61 31" fill="none" xmlns="http://www.w3.org/2000/svg">
<rect width="61" height="31" rx="2" fill="#F2F3F8"/>
<mask id="mask0_158_6041" style="mask-type:alpha" maskUnits="userSpaceOnUse" x="0" y="0" width="61" height="31">
<rect width="61" height="31" rx="2" fill="#F7F7F7"/>
</mask>
<g mask="url(#mask0_158_6041)">
<path fill-rule="evenodd" clip-rule="evenodd" d="M29 30C29 30 40.8364 27.6319 48.5455 24.1044C56.2224 20.8948 61 17 61 17V30H29Z" fill="#F16822"/>
</g>
<path fill-rule="evenodd" clip-rule="evenodd" d="M47.0254 10.1621H49.2819C50.002 10.1621 51.4353 10.5292 51.4353 12.066C51.4353 13.6043 49.9536 13.9226 49.9536 13.9226L52.0666 16.6256H50.3866L48.519 14.0459H48.3759V16.6256H47.0254V10.1621ZM48.3756 11.2403V13.1271H49.119C49.6913 13.1271 50.0526 12.645 50.0526 12.2235V12.1427C50.0526 11.722 49.6913 11.2403 49.119 11.2403H48.3756Z" fill="#2A2D2E"/>
<path fill-rule="evenodd" clip-rule="evenodd" d="M35.1025 10.1621H36.591L38.4964 14.3963L40.2923 10.1621H41.7812L38.8705 16.7897H38.0133L35.1025 10.1621Z" fill="#2A2D2E"/>
<path fill-rule="evenodd" clip-rule="evenodd" d="M15.2112 16.6256H16.594V10.1621H15.2112V16.6256Z" fill="#2A2D2E"/>
<path fill-rule="evenodd" clip-rule="evenodd" d="M9 10.1621H11.2637C12.6227 10.1621 14.6165 11.3152 14.6165 13.3645V13.3883V13.4125C14.6165 15.4622 12.6227 16.6145 11.2637 16.6145H9V10.1621ZM10.3038 15.5403C10.3038 15.5403 13.2094 15.846 13.2094 13.4442V13.4066C13.2094 11.0044 10.3038 11.3105 10.3038 11.3105V15.5403Z" fill="#2A2D2E"/>
<path fill-rule="evenodd" clip-rule="evenodd" d="M46.0217 12.7097V13.8497H43.6701V15.4856H46.1304V16.6256H42.2966V10.1621H46.1304V11.3021H43.6701V12.7097H46.0217Z" fill="#2A2D2E"/>
<path fill-rule="evenodd" clip-rule="evenodd" d="M35.3457 13.4262C35.3457 15.2769 33.7379 16.7768 31.7561 16.7768C29.7734 16.7768 28.166 15.2769 28.166 13.4262C28.166 11.575 29.7734 10.0747 31.7561 10.0747C33.7379 10.0747 35.3457 11.575 35.3457 13.4262Z" fill="#F16822"/>
<path fill-rule="evenodd" clip-rule="evenodd" d="M20.8334 11.6524C20.8334 11.6524 20.3779 11.1629 19.7661 11.1629C19.1556 11.1629 18.8028 11.5426 18.8028 11.8193C18.8028 12.0952 18.7913 12.2514 19.6638 12.5911C20.5371 12.932 21.8205 13.1765 21.8205 14.6162C21.8205 16.0547 20.6131 16.7849 19.5275 16.7849C17.8148 16.7849 17.0447 15.5588 17.0447 15.5588L17.9065 14.7538C17.9065 14.7538 18.4529 15.612 19.4061 15.612C20.3588 15.612 20.4118 14.9345 20.4118 14.7118C20.4118 14.382 20.2068 14.0557 19.6183 13.8544C19.0299 13.6518 17.4208 13.4489 17.4208 12.0001C17.4208 10.6991 18.4623 10.0542 19.6298 10.0542C20.6734 10.0542 21.5811 10.8168 21.5811 10.8168L20.8334 11.6524Z" fill="#2A2D2E"/>
<path fill-rule="evenodd" clip-rule="evenodd" d="M27.566 11.9211C27.138 11.5081 26.5487 11.208 25.8856 11.208C24.5856 11.208 23.5318 12.1927 23.5318 13.4056C23.5318 14.6198 24.5856 15.6032 25.8856 15.6032C26.5424 15.6032 27.1401 15.3063 27.5664 14.9008L27.566 16.4221C27.0624 16.6683 26.4923 16.8054 25.8856 16.8054C23.8744 16.8054 22.2441 15.2837 22.2441 13.4056C22.2441 11.5283 23.8744 10.0066 25.8856 10.0066C26.494 10.0066 27.062 10.1457 27.566 10.3927V11.9211Z" fill="#2A2D2E"/>
</svg>
