<svg width="61" height="31" viewBox="0 0 61 31" fill="none" xmlns="http://www.w3.org/2000/svg">
<rect width="61" height="31" rx="2" fill="#F2F3F8"/>
<path fill-rule="evenodd" clip-rule="evenodd" d="M36.2648 19.745C35.9903 20.3526 36.6589 19.9562 36.7408 19.8868C37.6424 19.131 38.3059 16.8629 37.8978 16.516C37.3828 16.08 34.9938 16.0839 33.9348 16.7996C33.4924 17.0995 33.7404 17.1576 34.207 17.1313C35.0235 17.0835 35.7568 17.034 36.3839 17.0835C36.979 17.1313 37.0125 17.3998 36.8599 17.981C36.6826 18.6571 36.5709 19.0686 36.2648 19.745Z" fill="#FBAF29"/>
<path fill-rule="evenodd" clip-rule="evenodd" d="M35.2854 17.9183C29.1213 20.2493 22.0091 19.9257 16.1591 17.069C16.0781 17.0298 15.7915 16.8777 15.4649 16.726C15.2095 16.6084 15.1611 16.6472 15.1197 16.689C15.0625 16.7463 15.0843 16.8501 15.1751 16.9259C18.6104 19.7926 22.7409 21.1709 27.2506 20.99C30.6925 20.8512 33.9004 19.6823 35.7372 18.4379C36.0084 18.2539 36.1052 18.0152 35.9926 17.9032C35.8767 17.7877 35.5715 17.8097 35.2854 17.9183Z" fill="#FBAF29"/>
<path fill-rule="evenodd" clip-rule="evenodd" d="M42.6688 9.00701C44.44 8.98805 45.7166 10.5187 45.7175 12.5327C45.7185 14.4885 44.4749 16.0278 42.7004 16.0726C40.9176 16.117 39.6219 14.57 39.62 12.5469C39.6172 10.5738 40.8873 9.0264 42.6688 9.00701ZM25.3679 10.3672C25.3679 9.10155 22.5573 8.24166 21.6543 10.1238C20.9513 8.65997 18.7306 8.70822 18.1258 10.135L18.1263 9.38803C18.1263 9.27473 18.0146 9.17134 17.8918 9.17134H16.631C16.5086 9.17134 16.397 9.27473 16.397 9.38803V15.704C16.397 15.8173 16.5086 15.9212 16.631 15.9212H17.9862C18.1086 15.9212 18.217 15.8173 18.217 15.704V11.6989C18.217 11.2469 18.4236 10.7364 18.9405 10.6309C19.509 10.5141 19.9729 10.8054 19.9729 11.4137L19.9724 15.704C19.9724 15.8173 20.084 15.9212 20.2064 15.9212H21.5845C21.7073 15.9212 21.819 15.8173 21.819 15.704L21.8194 11.4486C21.8194 10.4836 23.5529 10.2341 23.5534 11.4486V15.704C23.5534 15.8173 23.6646 15.9212 23.7874 15.9212H25.1339C25.2567 15.9212 25.3679 15.8173 25.3679 15.704V10.3672ZM38.8453 9.39845C38.8453 9.28515 38.7336 9.18262 38.6112 9.18262H34.1537C34.0918 9.18262 34.0304 9.20632 33.9871 9.24595C33.9434 9.28688 33.9239 9.34331 33.9239 9.40061V10.2782C33.9239 10.3906 34.0425 10.491 34.1644 10.491H36.5074L33.8378 14.1106C33.7012 14.2957 33.7077 14.4183 33.7106 14.4722L33.7106 14.4723L33.711 14.4805L33.7112 14.4884L33.7136 15.4956C33.7136 15.7114 33.8001 15.8079 34.0676 15.7033C35.7002 15.0644 37.4397 15.0265 38.7508 15.7528C38.8578 15.8127 38.9876 15.7476 38.9876 15.5787L38.9881 14.4479C38.9881 14.3747 38.9453 14.3031 38.8783 14.2652C38.1209 13.8228 37.1578 13.7043 36.2231 13.7177L38.7192 10.5052C38.8387 10.3514 38.8453 10.1864 38.8453 10.142V9.39845ZM52.2009 10.8357C52.2009 9.83448 51.5463 9.00734 50.0142 9.05085C49.3033 9.07109 48.7492 9.57169 48.4412 10.2799V9.37007C48.4412 9.25591 48.3296 9.15295 48.2072 9.15295H46.8989C46.7766 9.15295 46.6654 9.25591 46.6654 9.37007V15.7098C46.6654 15.8231 46.7766 15.926 46.8989 15.926H48.2668C48.3896 15.926 48.5013 15.8231 48.5013 15.7098V11.7274C48.5013 11.1346 49.0503 10.634 49.556 10.616C49.9733 10.6017 50.3906 10.9727 50.3906 11.3918V15.7098C50.3906 15.8231 50.5023 15.926 50.6246 15.926H51.9674C52.0897 15.926 52.2014 15.8231 52.2009 15.7098V10.8357ZM29.406 9.02078C31.3345 8.95788 32.3301 9.6364 32.3301 10.7013V13.6566C32.3301 13.8785 32.4018 14.2688 32.4739 14.3563L32.8284 14.7884C32.8935 14.8724 32.881 14.9999 32.8 15.0723L31.836 15.9248C31.7909 15.9649 31.7281 15.9869 31.6658 15.9851C31.6034 15.983 31.542 15.9563 31.5001 15.9136L30.7599 15.1502C30.2449 15.6814 29.5652 15.9894 28.7859 16.0278C27.4781 16.0898 26.5192 15.4527 26.542 14.1167C26.5662 12.6654 27.7344 11.9076 28.9892 11.8188L30.4729 11.7146V11.0985C30.4729 10.6281 30.1504 10.2731 29.406 10.2731C28.9068 10.2731 28.5663 10.5807 28.4797 10.9956C28.4565 11.1003 28.3388 11.1791 28.2234 11.1679L27.0226 11.0404C26.9584 11.0335 26.8974 11.0012 26.8597 10.9529C26.8216 10.9043 26.8067 10.8405 26.8197 10.7815C27.1086 9.46408 28.229 9.05869 29.406 9.02078ZM14.7885 10.6995C14.7885 9.63414 13.7934 8.95563 11.8649 9.01853C10.6874 9.05687 9.56707 9.46225 9.27815 10.7801C9.26512 10.8382 9.28001 10.9024 9.31816 10.9507C9.35631 10.9994 9.4168 11.0325 9.481 11.0394L10.6823 11.1656C10.7972 11.1781 10.9149 11.0993 10.9382 10.9938C11.0247 10.5789 11.3653 10.2722 11.8649 10.2722C12.6089 10.2722 12.9313 10.6263 12.9313 11.0963V11.7132L11.4476 11.817C10.1928 11.9053 9.02459 12.6631 9.0004 14.1145C8.9776 15.4517 9.93648 16.0884 11.2443 16.0255C12.0236 15.9885 12.7033 15.6805 13.2183 15.148L13.959 15.9118C14.0004 15.954 14.0618 15.9812 14.1242 15.9842C14.1865 15.9859 14.2498 15.9639 14.2945 15.9239L15.2589 15.0704C15.3394 14.9985 15.3524 14.8706 15.2868 14.7865L14.9323 14.3553C14.8602 14.2666 14.7885 13.8767 14.7885 13.6548V10.6995ZM42.6684 14.7717C43.6635 14.7717 43.711 13.7803 43.711 12.5557C43.711 11.3316 43.6003 10.3527 42.6684 10.3384C41.7044 10.3242 41.6258 11.3316 41.6258 12.5557C41.6258 13.7803 41.7202 14.7717 42.6684 14.7717ZM30.4888 12.6486V13.4698C30.4888 14.1067 30.0329 14.6491 29.6555 14.7538C28.9121 14.962 28.4296 14.4268 28.4478 13.8563C28.471 13.1355 29.1554 12.696 29.7332 12.6762L30.4888 12.6486ZM12.9472 13.4676V12.6472L12.1917 12.6735C11.6138 12.6946 10.9295 13.1333 10.9062 13.8537C10.888 14.4246 11.3705 14.9593 12.114 14.7516C12.4913 14.6469 12.9472 14.104 12.9472 13.4676Z" fill="#2A2D2E"/>
</svg>
