<svg width="61" height="31" viewBox="0 0 61 31" fill="none" xmlns="http://www.w3.org/2000/svg">
<rect width="61" height="31" rx="2" fill="#F2F3F8"/>
<g clip-path="url(#clip0_158_6076)">
<path d="M18.8985 12.4663C18.526 11.696 17.8198 11.1984 16.7557 11.1984C16.429 11.204 16.1081 11.2835 15.8175 11.4307C15.527 11.578 15.2747 11.789 15.08 12.0476L15.0411 12.0943V9.07519C15.0411 9.05774 15.0341 9.04101 15.0216 9.02867C15.0091 9.01633 14.9921 9.0094 14.9744 9.0094H13.4698C13.4523 9.00971 13.4357 9.01678 13.4234 9.02909C13.4112 9.04139 13.4043 9.05795 13.4043 9.07519V17.7353C13.4043 17.7525 13.4112 17.7689 13.4235 17.781C13.4358 17.7931 13.4524 17.7999 13.4698 17.7999H15.0812C15.0987 17.7999 15.1155 17.7932 15.128 17.7811C15.1404 17.769 15.1476 17.7526 15.1479 17.7353V14.0428C15.1479 13.3251 15.6333 12.8168 16.4099 12.8168C17.2592 12.8168 17.474 13.5057 17.474 14.2079V17.7353C17.474 17.7525 17.4809 17.7689 17.4932 17.781C17.5055 17.7931 17.5221 17.7999 17.5395 17.7999H19.1472C19.1648 17.7999 19.1815 17.7932 19.194 17.7811C19.2065 17.769 19.2137 17.7526 19.214 17.7353V13.9974C19.214 13.8694 19.214 13.7438 19.197 13.6218C19.1694 13.222 19.0682 12.8304 18.8985 12.4663Z" fill="#2242A3"/>
<path d="M10.8525 13.7497C10.8525 13.7497 10.0323 13.5595 9.73016 13.483C9.42802 13.4064 8.9002 13.2437 8.9002 12.8502C8.9002 12.4566 9.3261 12.331 9.75807 12.331C10.19 12.331 10.6705 12.4339 10.7082 12.9064C10.7097 12.9234 10.7176 12.9393 10.7304 12.9508C10.7432 12.9623 10.76 12.9687 10.7773 12.9686L12.3656 12.9626C12.375 12.9626 12.3842 12.9608 12.3928 12.9571C12.4014 12.9535 12.4091 12.9481 12.4155 12.9413C12.4219 12.9346 12.4268 12.9267 12.4299 12.918C12.433 12.9093 12.4343 12.9 12.4336 12.8908C12.3353 11.3789 10.9896 10.8383 9.74836 10.8383C8.27652 10.8383 7.20025 11.7952 7.20025 12.8502C7.20025 13.6205 7.42109 14.343 9.15743 14.8454C9.462 14.9327 9.87577 15.0463 10.2374 15.1456C10.6717 15.2652 10.9059 15.4458 10.9059 15.7305C10.9059 16.0607 10.4206 16.2903 9.94372 16.2903C9.2533 16.2903 8.76309 16.0379 8.72305 15.5846C8.72096 15.568 8.71277 15.5527 8.70002 15.5417C8.68727 15.5307 8.67085 15.5246 8.65388 15.5248L7.0692 15.532C7.05991 15.532 7.05072 15.5338 7.04217 15.5374C7.03361 15.5409 7.02588 15.5462 7.01942 15.5528C7.01297 15.5594 7.00792 15.5672 7.00459 15.5757C7.00126 15.5843 6.99972 15.5934 7.00004 15.6025C7.07285 17.0295 8.47067 17.7987 9.77385 17.7987C11.7153 17.7987 12.5925 16.7221 12.5925 15.7138C12.595 15.2401 12.4845 14.1612 10.8525 13.7497Z" fill="#2242A3"/>
<path d="M31.286 11.1959C30.4792 11.1959 29.8032 11.636 29.3676 12.1672V11.2581C29.3676 11.2411 29.3608 11.2249 29.3488 11.2128C29.337 11.2007 29.3205 11.1938 29.3033 11.1935H27.7963C27.779 11.1935 27.7622 11.2003 27.75 11.2124C27.7377 11.2245 27.7307 11.2409 27.7307 11.2581V19.7508C27.7311 19.7676 27.7382 19.7838 27.7505 19.7956C27.7628 19.8075 27.7792 19.8142 27.7963 19.8142H29.4089C29.4259 19.8142 29.4423 19.8075 29.4543 19.7956C29.4664 19.7837 29.4732 19.7675 29.4732 19.7508V16.9589H29.4975C29.7534 17.3441 30.4536 17.8058 31.3686 17.8058C33.089 17.8058 34.5233 16.3991 34.5233 14.4984C34.5246 12.6743 33.0976 11.1959 31.286 11.1959ZM31.1367 16.1874C30.7972 16.1957 30.4625 16.1041 30.176 15.9242C29.8895 15.7443 29.6637 15.4843 29.5276 15.1774C29.3916 14.8704 29.3514 14.5305 29.4123 14.201C29.4729 13.8714 29.6321 13.5672 29.869 13.3272C30.106 13.0871 30.4101 12.9221 30.7427 12.8532C31.0751 12.7843 31.4209 12.8146 31.7358 12.9403C32.0508 13.066 32.3205 13.2814 32.5108 13.5589C32.701 13.8364 32.803 14.1635 32.804 14.4984C32.8074 14.7174 32.767 14.9349 32.6851 15.1384C32.6032 15.3419 32.4812 15.5275 32.3263 15.6844C32.1715 15.8413 31.9867 15.9666 31.7824 16.0529C31.5783 16.1392 31.3589 16.1849 31.1367 16.1874Z" fill="#2242A3"/>
<path d="M22.9585 10.8228C21.4551 10.8228 20.7052 11.3263 20.1033 11.7294L20.0851 11.7414C20.0541 11.7623 20.0323 11.7941 20.024 11.8302C20.0156 11.8664 20.0214 11.9043 20.0403 11.9364L20.6349 12.9459C20.646 12.9648 20.6612 12.981 20.6794 12.9934C20.6977 13.0059 20.7185 13.0141 20.7404 13.0177C20.7618 13.0215 20.7838 13.0206 20.8048 13.015C20.8257 13.0094 20.8452 12.9993 20.8618 12.9854L20.909 12.9471C21.2184 12.6911 21.7147 12.349 22.916 12.2557C23.5845 12.2031 24.1622 12.3754 24.5881 12.7677C25.0564 13.1935 25.3368 13.8813 25.3368 14.6074C25.3368 15.9435 24.5383 16.7832 23.2558 16.7999C22.1988 16.794 21.489 16.2509 21.489 15.4483C21.489 15.0224 21.6844 14.7449 22.0654 14.4674C22.0945 14.4469 22.115 14.4167 22.1233 14.3824C22.1316 14.3481 22.127 14.312 22.1103 14.2808L21.5765 13.2856C21.5666 13.2678 21.5532 13.2521 21.5372 13.2394C21.5212 13.2266 21.5028 13.2172 21.483 13.2115C21.4627 13.2055 21.4416 13.2039 21.4207 13.2065C21.3997 13.2092 21.3796 13.2162 21.3616 13.227C20.7623 13.5775 20.0269 14.2186 20.0669 15.4507C20.1155 17.0188 21.4381 18.2162 23.1574 18.2652H23.2436H23.3613C25.4046 18.1994 26.8801 16.7042 26.8801 14.6768C26.8801 12.8155 25.5041 10.8228 22.9585 10.8228Z" fill="#2242A3"/>
<path d="M40.8777 11.7797H39.8535C39.8296 11.78 39.8066 11.7895 39.7896 11.8063C39.7725 11.823 39.7628 11.8457 39.7627 11.8694V13.9881C39.7628 14.0117 39.7726 14.0342 39.7897 14.0508C39.8067 14.0674 39.8296 14.0767 39.8535 14.0767H40.8777C41.5014 14.0767 41.9613 13.5921 41.9613 12.9282C41.9613 12.2642 41.5014 11.7797 40.8777 11.7797Z" fill="#2242A3"/>
<path d="M44.0239 15.5273C44.0239 15.8348 44.2872 16.0058 44.7458 16.0058C45.3695 16.0058 45.7383 15.6733 45.7383 15.0834V14.9136L44.8041 14.9614C44.3114 14.9853 44.0239 15.1875 44.0239 15.5273Z" fill="#2242A3"/>
<path d="M51.6077 9.02858H37.8479C37.6223 9.02857 37.3986 9.07243 37.1902 9.15762C36.9816 9.24281 36.7922 9.36768 36.6327 9.52509C36.4731 9.68249 36.3466 9.86935 36.2603 10.075C36.1739 10.2806 36.1297 10.501 36.1299 10.7235V18.1492C36.1299 18.5986 36.3108 19.0295 36.6331 19.3473C36.9553 19.6652 37.3923 19.8439 37.8479 19.8442H51.6077C51.8337 19.8448 52.0577 19.8015 52.2668 19.7168C52.4757 19.6321 52.6657 19.5075 52.8259 19.3503C52.9859 19.1931 53.1131 19.0063 53.2001 18.8006C53.2869 18.595 53.3316 18.3744 53.3321 18.1516V10.7259C53.3324 10.5027 53.2882 10.2816 53.2017 10.0753C53.1152 9.86896 52.9881 9.68155 52.8279 9.52381C52.6677 9.36607 52.4774 9.24111 52.2681 9.15612C52.0587 9.07113 51.8343 9.02779 51.6077 9.02858ZM40.9299 14.9101H39.8476C39.8235 14.9101 39.8005 14.9195 39.7833 14.9363C39.7663 14.9532 39.7566 14.976 39.7566 14.9998V16.5189C39.7566 16.5427 39.747 16.5655 39.73 16.5823C39.7129 16.5992 39.6899 16.6086 39.6657 16.6086H38.9035C38.8796 16.6083 38.8565 16.5987 38.8395 16.582C38.8225 16.5652 38.8131 16.5426 38.8126 16.5189V11.0393C38.8126 11.0155 38.8222 10.9927 38.8394 10.9759C38.8564 10.9591 38.8794 10.9496 38.9035 10.9496H40.9299C42.0778 10.9496 42.8992 11.7738 42.8992 12.9304C42.8992 14.0871 42.0839 14.9124 40.9361 14.9124L40.9299 14.9101ZM46.6329 16.5177C46.6331 16.5296 46.6309 16.5414 46.6263 16.5524C46.6218 16.5634 46.6151 16.5735 46.6067 16.5819C46.5981 16.5904 46.5881 16.5971 46.5769 16.6017C46.5659 16.6062 46.5539 16.6086 46.5419 16.6086H45.8223C45.8103 16.6086 45.7983 16.6062 45.7873 16.6017C45.7761 16.5971 45.7659 16.5904 45.7576 16.5819C45.7492 16.5735 45.7424 16.5634 45.738 16.5524C45.7335 16.5414 45.7312 16.5296 45.7314 16.5177V16.3538C45.7325 16.3394 45.729 16.3251 45.7212 16.3128C45.7136 16.3006 45.702 16.2912 45.6883 16.2859C45.6747 16.2807 45.6598 16.2799 45.6457 16.2837C45.6315 16.2876 45.619 16.2958 45.6101 16.3072C45.3952 16.538 45.0458 16.7055 44.4888 16.7055C43.6687 16.7055 43.1261 16.2844 43.1261 15.5572C43.1183 15.3799 43.1554 15.2034 43.2343 15.0438C43.313 14.8842 43.4311 14.7465 43.5777 14.6433C43.8736 14.4244 44.3323 14.3108 45.013 14.2845L45.735 14.2606V14.0524C45.735 13.6326 45.4486 13.4543 44.9886 13.4543C44.5288 13.4543 44.2388 13.6146 44.171 13.8766C44.1655 13.8951 44.154 13.9113 44.1381 13.9225C44.1224 13.9338 44.1031 13.9395 44.0835 13.9388H43.3713C43.3582 13.9391 43.3452 13.9366 43.3331 13.9314C43.3213 13.9263 43.3104 13.9186 43.3017 13.9089C43.2931 13.8992 43.2867 13.8877 43.283 13.8753C43.2792 13.8629 43.2783 13.8499 43.2803 13.8371C43.3871 13.2151 43.9088 12.7426 45.0216 12.7426C46.2034 12.7426 46.6292 13.2845 46.6292 14.3192L46.6329 16.5177ZM51.1152 12.9627L49.5136 17.1744C49.1495 18.1528 48.5125 18.404 47.8147 18.404C47.6833 18.4072 47.5521 18.3915 47.4252 18.3574C47.4054 18.3521 47.3881 18.3406 47.3754 18.3246C47.363 18.3086 47.3563 18.289 47.3561 18.2689V17.6289C47.3561 17.6155 47.359 17.6023 47.3647 17.5902C47.3705 17.578 47.3788 17.5673 47.3892 17.5587C47.3997 17.5501 47.4119 17.544 47.425 17.5406C47.4381 17.5372 47.4519 17.5367 47.4653 17.5392C47.5753 17.5598 47.687 17.5702 47.799 17.5703C47.9919 17.5799 48.1825 17.5253 48.3404 17.4153C48.498 17.3054 48.6137 17.1464 48.6689 16.9639L48.7164 16.8167C48.7237 16.797 48.7237 16.7754 48.7164 16.7557L47.219 12.9639C47.2144 12.9504 47.2131 12.9359 47.2153 12.9218C47.2175 12.9077 47.223 12.8942 47.2311 12.8826C47.2396 12.8709 47.2507 12.8614 47.2635 12.8547C47.2763 12.8481 47.2906 12.8445 47.3051 12.8443H48.0332C48.0518 12.8445 48.0699 12.8501 48.0853 12.8606C48.1007 12.871 48.1125 12.8858 48.1193 12.9029L49.1362 15.5775C49.1429 15.595 49.1548 15.61 49.1704 15.6207C49.1861 15.6313 49.2046 15.637 49.2235 15.637C49.2423 15.637 49.2611 15.6313 49.2766 15.6207C49.2922 15.61 49.3042 15.595 49.3108 15.5775L50.1931 12.9101C50.1989 12.8919 50.2106 12.8761 50.2263 12.8649C50.242 12.8537 50.2608 12.8477 50.2802 12.8479H51.0266C51.0409 12.8478 51.0552 12.8511 51.0682 12.8575C51.081 12.8638 51.0923 12.8731 51.1009 12.8845C51.1095 12.8959 51.1152 12.9091 51.1177 12.9231C51.1202 12.9371 51.1194 12.9515 51.1152 12.9651V12.9627Z" fill="#2242A3"/>
</g>
<defs>
<clipPath id="clip0_158_6076">
<rect width="46.4444" height="10.9981" fill="white" transform="translate(7 9.00684)"/>
</clipPath>
</defs>
</svg>
