<svg width="61" height="31" viewBox="0 0 61 31" fill="none" xmlns="http://www.w3.org/2000/svg">
<rect width="61" height="31" rx="2" fill="#F2F3F8"/>
<g clip-path="url(#clip0_158_6087)">
<path d="M24.222 14.5291C24.2226 14.1606 24.1895 13.7927 24.1233 13.4294H18.7244V15.5112H21.8159C21.7526 15.8435 21.6188 16.1602 21.4223 16.4423C21.2259 16.7243 20.971 16.9659 20.6731 17.1525V18.5072H22.5186C23.5991 17.5665 24.222 16.1747 24.222 14.5291Z" fill="#4285F4"/>
<path d="M18.7243 19.8128C20.2678 19.8128 21.5706 19.3334 22.5185 18.5073L20.673 17.1551C20.159 17.4856 19.4983 17.6723 18.7243 17.6723C17.2315 17.6723 15.9638 16.7219 15.5106 15.4412H13.6099V16.8343C14.0861 17.7297 14.8167 18.4824 15.7198 19.0084C16.623 19.5344 17.6632 19.8129 18.7243 19.8128Z" fill="#34A853"/>
<path d="M15.5106 15.4411C15.271 14.77 15.271 14.0431 15.5106 13.372V11.9785H13.6099C13.2085 12.732 12.9995 13.5638 12.9995 14.4072C12.9995 15.2507 13.2085 16.0824 13.6099 16.8359L15.5106 15.4411Z" fill="#FBBC04"/>
<path d="M29.3959 15.352V19.1613H28.1152V9.75079H31.5095C31.9148 9.74257 32.3177 9.81032 32.6951 9.95013C33.0725 10.0899 33.4168 10.299 33.708 10.5653C33.9976 10.82 34.2285 11.1283 34.3865 11.471C34.5444 11.8136 34.6259 12.1833 34.6259 12.557C34.6259 12.9307 34.5444 13.3004 34.3865 13.6431C34.2285 13.9857 33.9976 14.294 33.708 14.5487C33.1141 15.0836 32.3812 15.3506 31.5095 15.3497H29.3952L29.3959 15.352ZM29.3959 10.9106V14.1961H31.5424C31.8829 14.2021 32.2178 14.1131 32.5052 13.9405C32.7926 13.7678 33.0198 13.519 33.1584 13.2252C33.297 12.9314 33.3409 12.6055 33.2846 12.2882C33.2284 11.971 33.0744 11.6764 32.842 11.4413C32.8304 11.4301 32.8203 11.4192 32.807 11.4083C32.6455 11.2451 32.4491 11.1162 32.2308 11.0302C32.0125 10.9442 31.7774 10.903 31.541 10.9093L29.3959 10.9106ZM37.5774 12.5136C38.5241 12.5136 39.2706 12.7521 39.8169 13.2293C40.3633 13.7064 40.6368 14.361 40.6375 15.1931V19.1613H39.4128V18.2691H39.3578C38.8276 19.0053 38.1223 19.3732 37.2419 19.3727C36.4912 19.3727 35.8629 19.1625 35.3572 18.7419C35.1147 18.5488 34.9208 18.3071 34.7896 18.0343C34.6584 17.7616 34.5933 17.4646 34.5989 17.1651C34.5989 16.4985 34.8657 15.9687 35.3992 15.5757C35.9327 15.1827 36.6442 14.9858 37.5337 14.9849C38.2934 14.9849 38.9208 15.1171 39.4114 15.3784V15.1015C39.4129 14.8974 39.3662 14.6955 39.2748 14.5105C39.1835 14.3255 39.0496 14.162 38.883 14.0319C38.5444 13.7435 38.103 13.5863 37.6471 13.5918C36.9325 13.5918 36.3667 13.8765 35.9496 14.446L34.8246 13.7738C35.443 12.9332 36.3603 12.5131 37.5764 12.5136H37.5774ZM35.9206 17.1909C35.9199 17.3445 35.958 17.4961 36.0317 17.6331C36.1054 17.7701 36.2125 17.8885 36.3443 17.9786C36.6276 18.1888 36.979 18.3003 37.3391 18.2942C37.8791 18.2928 38.3965 18.0899 38.7787 17.7298C39.2028 17.3527 39.4148 16.9102 39.4145 16.4025C39.0152 16.1022 38.4585 15.9519 37.7447 15.9514C37.2247 15.9514 36.7911 16.0697 36.4437 16.3063C36.0938 16.5479 35.9188 16.84 35.9188 17.1909H35.9206ZM47.6667 12.7247L43.3931 22H42.0718L43.6573 18.7542L40.8461 12.7247H42.2373L44.2669 17.3508H44.2945L46.2709 12.7247H47.6667Z" fill="#5E6278"/>
<path d="M18.7243 11.1409C19.5404 11.1283 20.329 11.4193 20.9197 11.9511L22.5549 10.4087C21.5185 9.48978 20.1458 8.98513 18.7243 9.00033C17.6633 9.00054 16.6232 9.27913 15.7201 9.80501C14.817 10.3309 14.0864 11.0834 13.6099 11.9786L15.5106 13.372C15.9638 12.0912 17.2315 11.1409 18.7243 11.1409Z" fill="#EA4335"/>
</g>
<defs>
<clipPath id="clip0_158_6087">
<rect width="34.6667" height="13" fill="white" transform="translate(13 9)"/>
</clipPath>
</defs>
</svg>
