<svg width="40" height="40" viewBox="0 0 40 40" fill="none" xmlns="http://www.w3.org/2000/svg">
<g style="mix-blend-mode:screen">
<path fill-rule="evenodd" clip-rule="evenodd" d="M39.2587 38.2461C39.2587 38.5148 39.1519 38.7725 38.9619 38.9625C38.7719 39.1525 38.5142 39.2593 38.2455 39.2593H24.9126V25.421C24.9127 25.2867 24.9661 25.1579 25.0611 25.0629C25.1561 24.9679 25.2848 24.9145 25.4192 24.9144H38.7521C38.8864 24.9144 39.0153 24.9678 39.1103 25.0628C39.2053 25.1578 39.2587 25.2866 39.2587 25.421V38.2461Z" fill="url(#paint0_linear_199_13)"/>
<path fill-rule="evenodd" clip-rule="evenodd" d="M36.2392 39.2592H1.01314C0.744438 39.2592 0.486742 39.1524 0.296742 38.9624C0.106741 38.7724 0 38.5147 0 38.246L0 0.50657C0 0.372219 0.0533693 0.243372 0.14837 0.148372C0.24337 0.0533718 0.372219 0 0.50657 0L32.7799 0C32.9143 0 33.0431 0.0533718 33.1381 0.148372C33.2331 0.243372 33.2865 0.372219 33.2865 0.50657V38.246C33.2865 38.5147 33.3932 38.7724 33.5832 38.9624C33.7732 39.1524 34.0309 39.2592 34.2996 39.2592H36.2392Z" fill="url(#paint1_linear_199_13)"/>
<path fill-rule="evenodd" clip-rule="evenodd" d="M4.53038 27.9342H28.6897C28.8899 27.9342 29.082 27.8546 29.2236 27.713C29.3652 27.5715 29.4447 27.3794 29.4447 27.1792C29.4447 26.979 29.3652 26.7869 29.2236 26.6453C29.082 26.5037 28.8899 26.4242 28.6897 26.4242H4.53038C4.33015 26.4242 4.13811 26.5037 3.99652 26.6453C3.85493 26.7869 3.77539 26.979 3.77539 27.1792C3.77539 27.3794 3.85493 27.5715 3.99652 27.713C4.13811 27.8546 4.33015 27.9342 4.53038 27.9342Z" fill="url(#paint2_linear_199_13)"/>
<path fill-rule="evenodd" clip-rule="evenodd" d="M4.53038 31.7093H28.6897C28.8899 31.7093 29.082 31.6297 29.2236 31.4881C29.3652 31.3465 29.4447 31.1545 29.4447 30.9543C29.4447 30.754 29.3652 30.562 29.2236 30.4204C29.082 30.2788 28.8899 30.1993 28.6897 30.1993H4.53038C4.33015 30.1993 4.13811 30.2788 3.99652 30.4204C3.85493 30.562 3.77539 30.754 3.77539 30.9543C3.77539 31.1545 3.85493 31.3465 3.99652 31.4881C4.13811 31.6297 4.33015 31.7093 4.53038 31.7093Z" fill="url(#paint3_linear_199_13)"/>
<path fill-rule="evenodd" clip-rule="evenodd" d="M27.935 7.54953C27.935 7.14906 27.7759 6.76499 27.4927 6.48182C27.2096 6.19864 26.8255 6.03955 26.425 6.03955L6.79563 6.03955C6.39516 6.03955 6.01109 6.19864 5.72791 6.48182C5.44473 6.76499 5.28564 7.14906 5.28564 7.54953L5.28564 18.8748C5.28564 19.2753 5.44473 19.6594 5.72791 19.9425C6.01109 20.2257 6.39516 20.3848 6.79563 20.3848H26.425C26.8255 20.3848 27.2096 20.2257 27.4927 19.9425C27.7759 19.6594 27.935 19.2753 27.935 18.8748V7.54953Z" fill="url(#paint4_linear_199_13)"/>
<path fill-rule="evenodd" clip-rule="evenodd" d="M5.28516 7.54956L16.61 14.3445L27.9349 7.54956V19.8778C27.9349 20.0122 27.8815 20.141 27.7865 20.236C27.6915 20.331 27.5627 20.3844 27.4283 20.3844H5.79173C5.65738 20.3844 5.52853 20.331 5.43353 20.236C5.33853 20.141 5.28516 20.0122 5.28516 19.8778L5.28516 7.54956Z" fill="url(#paint5_linear_199_13)"/>
</g>
<defs>
<linearGradient id="paint0_linear_199_13" x1="35.2854" y1="22.6402" x2="30.0009" y2="36.2276" gradientUnits="userSpaceOnUse">
<stop stop-color="#4B98AA"/>
<stop offset="1" stop-color="#2A6183"/>
</linearGradient>
<linearGradient id="paint1_linear_199_13" x1="-1.55948" y1="-0.514035" x2="33.9199" y2="39.4945" gradientUnits="userSpaceOnUse">
<stop stop-color="#FDFEFE"/>
<stop offset="1" stop-color="#6DC4C7"/>
</linearGradient>
<linearGradient id="paint2_linear_199_13" x1="3.58521" y1="27.4214" x2="29.2509" y2="27.4214" gradientUnits="userSpaceOnUse">
<stop stop-color="#4B98AA"/>
<stop offset="1" stop-color="#2A6183"/>
</linearGradient>
<linearGradient id="paint3_linear_199_13" x1="3.58521" y1="31.1947" x2="29.2509" y2="31.1947" gradientUnits="userSpaceOnUse">
<stop stop-color="#4B98AA"/>
<stop offset="1" stop-color="#2A6183"/>
</linearGradient>
<linearGradient id="paint4_linear_199_13" x1="5.71244" y1="6.71513" x2="28.3598" y2="19.5488" gradientUnits="userSpaceOnUse">
<stop stop-color="#F0E247"/>
<stop offset="1" stop-color="#F47529"/>
</linearGradient>
<linearGradient id="paint5_linear_199_13" x1="3.8147" y1="6.52177" x2="30.9912" y2="21.62" gradientUnits="userSpaceOnUse">
<stop stop-color="#F6C124"/>
<stop offset="1" stop-color="#F44E24"/>
</linearGradient>
</defs>
</svg>
