<svg width="43" height="57" viewBox="0 0 43 57" fill="none" xmlns="http://www.w3.org/2000/svg">
<g style="mix-blend-mode:screen">
<path fill-rule="evenodd" clip-rule="evenodd" d="M0 2.11111C0 1.55121 0.222415 1.01423 0.618325 0.618325C1.01423 0.222415 1.55121 0 2.11111 0H26.3889L42.2222 12.6667V54.8889C42.2222 55.4488 41.9998 55.9858 41.6039 56.3817C41.208 56.7776 40.671 57 40.1111 57H2.11111C1.55121 57 1.01423 56.7776 0.618325 56.3817C0.222415 55.9858 0 55.4488 0 54.8889V2.11111Z" fill="url(#paint0_linear_199_2)"/>
<path fill-rule="evenodd" clip-rule="evenodd" d="M26.3906 0L42.224 12.6667H28.5017C27.9418 12.6667 27.4049 12.4443 27.0089 12.0483C26.613 11.6524 26.3906 11.1155 26.3906 10.5556V0Z" fill="url(#paint1_linear_199_2)"/>
<path d="M23.1323 39.7082C25.8252 38.5927 27.104 35.5054 25.9886 32.8124C24.8731 30.1195 21.7858 28.8407 19.0928 29.9561C16.3999 31.0716 15.1211 34.1589 16.2365 36.8519C17.352 39.5448 20.4393 40.8236 23.1323 39.7082Z" fill="url(#paint2_linear_199_2)"/>
<path fill-rule="evenodd" clip-rule="evenodd" d="M21.111 45.3888C19.0233 45.3888 16.9825 44.7698 15.2467 43.6099C13.5108 42.45 12.1579 40.8015 11.3589 38.8727C10.56 36.944 10.351 34.8216 10.7583 32.774C11.1656 30.7264 12.1709 28.8456 13.6471 27.3694C15.1233 25.8932 17.0041 24.8878 19.0517 24.4806C21.0993 24.0733 23.2217 24.2823 25.1504 25.0812C27.0792 25.8802 28.7278 27.2331 29.8876 28.9689C31.0475 30.7048 31.6666 32.7456 31.6666 34.8333C31.6666 36.9174 31.0704 39.319 30.0334 40.4961C29.8546 40.7069 29.7656 40.9793 29.7855 41.255C29.8055 41.5306 29.9327 41.7875 30.1399 41.9704C30.3471 42.1532 30.6177 42.2476 30.8937 42.2331C31.1697 42.2186 31.429 42.0964 31.6159 41.8929C32.9163 40.4185 33.7777 37.4443 33.7777 34.8333C33.7777 32.3281 33.0348 29.8791 31.643 27.7961C30.2511 25.7131 28.2729 24.0895 25.9583 23.1308C23.6438 22.1721 21.097 21.9213 18.6399 22.41C16.1828 22.8988 13.9258 24.1052 12.1543 25.8766C10.3829 27.6481 9.17648 29.9051 8.68773 32.3622C8.19899 34.8193 8.44981 37.3661 9.40852 39.6806C10.3672 41.9952 11.9908 43.9734 14.0738 45.3652C16.1568 46.7571 18.6058 47.5 21.111 47.5C21.391 47.5 21.6594 47.3888 21.8574 47.1908C22.0554 46.9928 22.1666 46.7244 22.1666 46.4444C22.1666 46.1645 22.0554 45.896 21.8574 45.698C21.6594 45.5001 21.391 45.3888 21.111 45.3888Z" fill="url(#paint3_linear_199_2)"/>
<path fill-rule="evenodd" clip-rule="evenodd" d="M21.1112 28.5C19.8586 28.5 18.6341 28.8715 17.5926 29.5674C16.551 30.2633 15.7393 31.2524 15.2599 32.4097C14.7806 33.5669 14.6552 34.8404 14.8995 36.0689C15.1439 37.2975 15.7471 38.4259 16.6328 39.3117C17.5186 40.1974 18.647 40.8006 19.8756 41.045C21.1041 41.2893 22.3776 41.1639 23.5348 40.6846C24.6921 40.2052 25.6812 39.3935 26.3771 38.3519C27.073 37.3104 27.4445 36.0859 27.4445 34.8333C27.4441 33.1538 26.7766 31.5431 25.589 30.3555C24.4014 29.1679 22.7907 28.5004 21.1112 28.5ZM21.1112 30.6111C21.9462 30.6111 22.7626 30.8587 23.4569 31.3227C24.1513 31.7866 24.6924 32.446 25.012 33.2176C25.3316 33.9891 25.4152 34.838 25.2523 35.6571C25.0893 36.4761 24.6872 37.2284 24.0967 37.8189C23.5062 38.4094 22.7539 38.8115 21.9349 38.9744C21.1158 39.1373 20.2669 39.0537 19.4954 38.7342C18.7239 38.4146 18.0645 37.8734 17.6005 37.1791C17.1366 36.4847 16.8889 35.6684 16.8889 34.8333C16.8889 33.7135 17.3338 32.6396 18.1256 31.8478C18.9174 31.056 19.9914 30.6111 21.1112 30.6111Z" fill="url(#paint4_linear_199_2)"/>
<path fill-rule="evenodd" clip-rule="evenodd" d="M30.0422 40.4895C29.6842 40.87 29.1993 41.1063 28.6791 41.1537C28.1588 41.2011 27.6392 41.0564 27.2183 40.7469C26.7975 40.4375 26.5044 39.9846 26.3946 39.4739C26.2848 38.9632 26.3657 38.4299 26.6222 37.9748C26.6908 37.8542 26.735 37.7214 26.7523 37.5837C26.7696 37.4461 26.7596 37.3064 26.7229 37.1726C26.6862 37.0388 26.6235 36.9136 26.5385 36.804C26.4534 36.6945 26.3475 36.6028 26.227 36.5341C26.1064 36.4655 25.9735 36.4213 25.8359 36.404C25.6983 36.3867 25.5586 36.3967 25.4248 36.4334C25.291 36.4701 25.1658 36.5328 25.0563 36.6179C24.9467 36.703 24.855 36.8088 24.7864 36.9294C24.2734 37.8339 24.11 38.8951 24.3269 39.912C24.5439 40.929 25.1263 41.8311 25.9637 42.4475C26.8011 43.0639 27.8355 43.3519 28.871 43.2569C29.9065 43.1618 30.8712 42.6904 31.5824 41.9318C31.6771 41.8306 31.751 41.7117 31.7997 41.5819C31.8485 41.4521 31.8712 41.314 31.8666 41.1754C31.8619 41.0369 31.8301 40.9006 31.7728 40.7744C31.7155 40.6481 31.6339 40.5344 31.5326 40.4397C31.4314 40.345 31.3125 40.2712 31.1827 40.2224C31.0529 40.1737 30.9148 40.151 30.7762 40.1556C30.6377 40.1602 30.5014 40.1921 30.3751 40.2494C30.2489 40.3067 30.1352 40.3883 30.0405 40.4895H30.0422Z" fill="url(#paint5_linear_199_2)"/>
</g>
<defs>
<linearGradient id="paint0_linear_199_2" x1="-4.72894" y1="0.970301" x2="37.4865" y2="57.9602" gradientUnits="userSpaceOnUse">
<stop stop-color="#D4EFF1"/>
<stop offset="1" stop-color="#86CED1"/>
</linearGradient>
<linearGradient id="paint1_linear_199_2" x1="22.9374" y1="2.69753" x2="37.7118" y2="16.4181" gradientUnits="userSpaceOnUse">
<stop stop-color="#4B98AA"/>
<stop offset="1" stop-color="#2A6183"/>
</linearGradient>
<linearGradient id="paint2_linear_199_2" x1="17.2215" y1="29.7889" x2="26.7462" y2="38.2541" gradientUnits="userSpaceOnUse">
<stop stop-color="#F6C124"/>
<stop offset="1" stop-color="#F44E24"/>
</linearGradient>
<linearGradient id="paint3_linear_199_2" x1="10.7291" y1="28.0496" x2="30.7796" y2="44.9385" gradientUnits="userSpaceOnUse">
<stop stop-color="#4B98AA"/>
<stop offset="1" stop-color="#2A6183"/>
</linearGradient>
<linearGradient id="paint4_linear_199_2" x1="10.7293" y1="28.0497" x2="30.7798" y2="44.9386" gradientUnits="userSpaceOnUse">
<stop stop-color="#4B98AA"/>
<stop offset="1" stop-color="#2A6183"/>
</linearGradient>
<linearGradient id="paint5_linear_199_2" x1="10.645" y1="28.15" x2="30.6955" y2="45.0389" gradientUnits="userSpaceOnUse">
<stop stop-color="#4B98AA"/>
<stop offset="1" stop-color="#2A6183"/>
</linearGradient>
</defs>
</svg>
