<svg width="61" height="36" viewBox="0 0 61 36" fill="none" xmlns="http://www.w3.org/2000/svg">
<g style="mix-blend-mode:screen">
<path fill-rule="evenodd" clip-rule="evenodd" d="M57.9237 7.47343C57.0763 6.00516 55.948 4.7182 54.6032 3.6861C53.2584 2.65399 51.7234 1.89696 50.0859 1.45823C48.4484 1.01951 46.7405 0.907692 45.0598 1.12918C43.3791 1.35066 41.7586 1.9011 40.2906 2.74905L27.3931 10.1946C24.4287 11.9068 22.2658 14.7262 21.3798 18.0329C20.4939 21.3396 20.9575 24.8628 22.6687 27.8277L23.6616 29.5481C25.3735 32.5114 28.1919 34.6738 31.4975 35.56C34.803 36.4462 38.3252 35.9836 41.2898 34.274L54.1874 26.8269C55.6556 25.9795 56.9426 24.8512 57.9747 23.5064C59.0068 22.1616 59.7638 20.6266 60.2026 18.9891C60.6413 17.3516 60.7531 15.6437 60.5316 13.963C60.3101 12.2823 59.7597 10.6618 58.9117 9.19384L57.9189 7.47502L57.9237 7.47343ZM52.7656 10.4456L53.7569 12.1644C54.2137 12.9547 54.5103 13.8272 54.6298 14.7322C54.7492 15.6371 54.6892 16.5567 54.4532 17.4385C54.2172 18.3202 53.8097 19.1468 53.2541 19.871C52.6985 20.5953 52.0057 21.2029 51.2152 21.6593L38.3176 29.1049C36.7217 30.0265 34.825 30.2765 33.0447 29.7998C31.2644 29.3232 29.7464 28.1589 28.8244 26.5632L27.8316 24.8428C26.9099 23.2468 26.66 21.3501 27.1366 19.5698C27.6132 17.7895 28.7775 16.2715 30.3733 15.3495L43.2708 7.90393C44.0611 7.44734 44.9336 7.15089 45.8385 7.03152C46.7434 6.91215 47.6629 6.97219 48.5446 7.20821C49.4263 7.44423 50.2529 7.85162 50.9771 8.4071C51.7014 8.96258 52.3091 9.65526 52.7656 10.4456Z" fill="url(#paint0_linear_199_9)"/>
<path fill-rule="evenodd" clip-rule="evenodd" d="M37.8454 6.45488C36.9981 4.9866 35.8698 3.69965 34.5249 2.66754C33.1801 1.63543 31.6451 0.878402 30.0076 0.439677C28.3702 0.000951552 26.6623 -0.110863 24.9816 0.110621C23.3009 0.332104 21.6803 0.882544 20.2124 1.7305L7.31645 9.17449C4.35209 10.8867 2.1891 13.7061 1.30315 17.0128C0.417203 20.3194 0.880826 23.8426 2.59207 26.8075C2.92249 27.3794 3.2545 27.956 3.58492 28.5263C4.4324 29.9945 5.56079 31.2813 6.90564 32.3132C8.25048 33.3452 9.78544 34.1022 11.4229 34.5409C13.0603 34.9796 14.7681 35.0915 16.4487 34.8701C18.1294 34.6487 19.75 34.0985 21.2179 33.2507L34.1155 25.8051C35.5836 24.9576 36.8704 23.8293 37.9024 22.4844C38.9344 21.1396 39.6913 19.6046 40.13 17.9672C40.5687 16.3298 40.6806 14.622 40.4592 12.9413C40.2379 11.2607 39.6876 9.64007 38.8399 8.1721L37.8454 6.45488ZM32.6874 9.43184L33.6802 11.1522C34.1368 11.9424 34.4332 12.8148 34.5525 13.7196C34.6719 14.6244 34.6118 15.5438 34.3758 16.4254C34.1398 17.3069 33.7324 18.1333 33.1769 18.8574C32.6215 19.5815 31.9288 20.1891 31.1385 20.6455L18.241 28.0927C16.645 29.0143 14.7483 29.2643 12.968 28.7876C11.1878 28.311 9.66972 27.1467 8.74774 25.551L7.75489 23.8306C6.83327 22.2346 6.5833 20.3379 7.05994 18.5576C7.53659 16.7773 8.70082 15.2593 10.2966 14.3373L23.1941 6.89014C24.7903 5.96845 26.6873 5.71843 28.4678 6.19507C30.2483 6.6717 31.7667 7.83596 32.6889 9.43184H32.6874Z" fill="url(#paint1_linear_199_9)"/>
<path fill-rule="evenodd" clip-rule="evenodd" d="M38.573 3.74133L29.9741 8.70559L32.9527 13.8636L41.5516 8.89939L38.573 3.74133Z" fill="url(#paint2_linear_199_9)"/>
</g>
<defs>
<linearGradient id="paint0_linear_199_9" x1="15.8418" y1="21.7317" x2="63.7274" y2="19.3044" gradientUnits="userSpaceOnUse">
<stop stop-color="#F6C124"/>
<stop offset="1" stop-color="#F44E24"/>
</linearGradient>
<linearGradient id="paint1_linear_199_9" x1="-0.0804139" y1="16.2693" x2="42.1562" y2="15.958" gradientUnits="userSpaceOnUse">
<stop stop-color="#4B98AA"/>
<stop offset="1" stop-color="#2A6183"/>
</linearGradient>
<linearGradient id="paint2_linear_199_9" x1="15.3377" y1="11.7949" x2="63.2233" y2="9.3676" gradientUnits="userSpaceOnUse">
<stop stop-color="#F6C124"/>
<stop offset="1" stop-color="#F44E24"/>
</linearGradient>
</defs>
</svg>
